SplineFontDB: 3.2
FontName: GotoMono-Italic
FullName: Goto Mono Italic
FamilyName: Goto Mono
Weight: Book
Copyright: Copyright 2015 Google LLC. All Rights Reserved.
Version: 2.6
ItalicAngle: -12
UnderlinePosition: -125
UnderlineWidth: 50
Ascent: 800
Descent: 200
InvalidEm: 0
sfntRevision: 0x00020189
LayerCount: 2
Layer: 0 0 "Back" 1
Layer: 1 0 "Fore" 0
XUID: [1021 328 1927437058 14855360]
StyleMap: 0x0001
FSType: 0
OS2Version: 3
OS2_WeightWidthSlopeOnly: 0
OS2_UseTypoMetrics: 0
CreationTime: 1604030168
ModificationTime: 1609931531
PfmFamily: 49
TTFWeight: 400
TTFWidth: 5
LineGap: 0
VLineGap: 0
Panose: 2 11 5 9 4 5 4 2 2 4
OS2TypoAscent: 1069
OS2TypoAOffset: 0
OS2TypoDescent: -293
OS2TypoDOffset: 0
OS2TypoLinegap: 0
OS2WinAscent: 1069
OS2WinAOffset: 0
OS2WinDescent: 293
OS2WinDOffset: 0
HheadAscent: 1069
HheadAOffset: 0
HheadDescent: -293
HheadDOffset: 0
OS2SubXSize: 650
OS2SubYSize: 600
OS2SubXOff: 0
OS2SubYOff: 75
OS2SupXSize: 650
OS2SupYSize: 600
OS2SupXOff: 0
OS2SupYOff: 350
OS2StrikeYSize: 50
OS2StrikeYPos: 322
OS2CapHeight: 714
OS2XHeight: 536
OS2Vendor: 'GOOG'
OS2CodePages: 0000019f.dfd70000
OS2UnicodeRanges: e00002ff.0200fcff.08000039.00100000
Lookup: 1 0 0 "'aalt' Access All Alternates lookup 0" { "'aalt' Access All Alternates lookup 0 subtable"  } ['aalt' ('DFLT' <'dflt' > 'cyrl' <'MKD ' 'SRB ' 'dflt' > 'grek' <'dflt' > 'latn' <'APPH' 'CAT ' 'IPPH' 'MAH ' 'MOL ' 'NAV ' 'ROM ' 'dflt' > ) ]
Lookup: 3 0 0 "'aalt' Access All Alternates lookup 1" { "'aalt' Access All Alternates lookup 1 subtable"  } ['aalt' ('DFLT' <'dflt' > 'cyrl' <'MKD ' 'SRB ' 'dflt' > 'grek' <'dflt' > 'latn' <'APPH' 'CAT ' 'IPPH' 'MAH ' 'MOL ' 'NAV ' 'ROM ' 'dflt' > ) ]
Lookup: 4 0 0 "'ccmp' Glyph Composition/Decomposition lookup 2" { "'ccmp' Glyph Composition/Decomposition lookup 2 subtable"  } ['ccmp' ('DFLT' <'dflt' > 'cyrl' <'MKD ' 'SRB ' 'dflt' > 'grek' <'dflt' > 'latn' <'APPH' 'CAT ' 'IPPH' 'MAH ' 'MOL ' 'NAV ' 'ROM ' 'dflt' > ) ]

StartChar: .notdef
Encoding: 1114112 -1 0
Width: 563
Flags: HW
LayerCount: 2
Fore
SplineSet
76 0 m 1
 228 714 l 1
 639 714 l 1
 487 0 l 1
 76 0 l 1
138 51 m 1
 447 51 l 1
 577 663 l 1
 268 663 l 1
 138 51 l 1
EndSplineSet
Validated: 1
EndChar

StartChar: exclam
Encoding: 33 33 4
Width: 563
Flags: HW
LayerCount: 2
Fore
SplineSet
291 202 m 1
 383 714 l 1
 489 714 l 1
 364 202 l 1
 291 202 l 1
282 -11 m 0
 253 -11 233 4 233 36 c 0
 233 42 233 49 235 57 c 0
 245 105 275 124 310 124 c 0
 338 124 359 111 359 79 c 0
 359 72 358 65 356 57 c 0
 346 10 315 -11 282 -11 c 0
EndSplineSet
Validated: 1
Substitution2: "'smcp' Lowercase to Small Capitals lookup 35 subtable" exclam.sc
Substitution2: "'c2sc' Capitals to Small Capitals lookup 34 subtable" exclam.sc
Substitution2: "'aalt' Access All Alternates lookup 0 subtable" exclam.sc
EndChar

StartChar: quotedbl
Encoding: 34 34 5
Width: 563
Flags: HW
LayerCount: 2
Fore
SplineSet
440 456 m 1
 476 714 l 1
 571 714 l 1
 497 456 l 1
 440 456 l 1
261 456 m 1
 297 714 l 1
 391 714 l 1
 318 456 l 1
 261 456 l 1
EndSplineSet
Validated: 1
EndChar

StartChar: numbersign
Encoding: 35 35 6
Width: 563
Flags: HW
LayerCount: 2
Fore
SplineSet
99 0 m 1
 177 212 l 1
 72 212 l 1
 86 278 l 1
 203 278 l 1
 265 441 l 1
 152 441 l 1
 166 506 l 1
 290 506 l 1
 368 714 l 1
 437 714 l 1
 358 506 l 1
 473 506 l 1
 551 714 l 1
 617 714 l 1
 539 506 l 1
 645 506 l 1
 631 441 l 1
 514 441 l 1
 452 278 l 1
 566 278 l 1
 552 212 l 1
 427 212 l 1
 346 0 l 1
 278 0 l 1
 359 212 l 1
 245 212 l 1
 166 0 l 1
 99 0 l 1
270 278 m 1
 384 278 l 1
 446 441 l 1
 332 441 l 1
 270 278 l 1
EndSplineSet
Validated: 1
EndChar

StartChar: dollar
Encoding: 36 36 7
Width: 563
Flags: HW
LayerCount: 2
Fore
SplineSet
259 35 m 1
 194 36 138 48 101 68 c 1
 119 151 l 1
 157 129 214 110 275 109 c 1
 322 331 l 1
 229 366 182 405 182 475 c 0
 182 488 184 502 187 517 c 0
 208 614 290 677 398 686 c 1
 413 759 l 1
 471 759 l 1
 456 687 l 1
 517 685 562 671 604 651 c 1
 563 580 l 1
 527 597 486 610 440 613 c 1
 394 394 l 1
 490 360 541 326 541 254 c 0
 541 241 539 227 536 212 c 0
 516 120 436 54 318 39 c 1
 298 -58 l 1
 240 -58 l 1
 259 35 l 1
382 612 m 1
 318 605 279 569 268 518 c 0
 266 508 265 499 265 491 c 0
 265 455 286 435 340 416 c 1
 382 612 l 1
334 113 m 1
 405 124 445 160 456 211 c 0
 458 220 459 227 459 234 c 0
 459 270 435 290 376 310 c 1
 334 113 l 1
EndSplineSet
Validated: 1
EndChar

StartChar: percent
Encoding: 37 37 8
Width: 563
Flags: HW
LayerCount: 2
Fore
SplineSet
221 383 m 0
 154 383 112 425 112 501 c 0
 112 517 114 534 118 553 c 0
 141 661 207 722 295 722 c 0
 361 722 405 680 405 604 c 0
 405 588 404 572 400 553 c 0
 377 445 308 383 221 383 c 0
234 439 m 0
 280 439 311 476 327 553 c 0
 331 574 333 591 333 606 c 0
 333 647 316 665 282 665 c 0
 235 665 207 631 190 553 c 0
 186 533 183 516 183 501 c 0
 183 459 200 439 234 439 c 0
71 62 m 1
 566 652 l 1
 643 652 l 1
 148 62 l 1
 71 62 l 1
419 -9 m 0
 352 -9 309 33 309 109 c 0
 309 125 311 142 315 161 c 0
 338 269 405 330 493 330 c 0
 559 330 603 288 603 212 c 0
 603 196 601 180 597 161 c 0
 574 53 506 -9 419 -9 c 0
432 47 m 0
 478 47 508 84 524 161 c 0
 528 182 531 199 531 214 c 0
 531 255 514 273 480 273 c 0
 433 273 404 239 387 161 c 0
 383 141 381 124 381 109 c 0
 381 67 398 47 432 47 c 0
EndSplineSet
Validated: 1
EndChar

StartChar: ampersand
Encoding: 38 38 9
Width: 563
Flags: HW
LayerCount: 2
Fore
SplineSet
214 -10 m 0
 117 -10 71 45 71 123 c 0
 71 138 73 155 77 172 c 0
 98 272 168 335 249 392 c 1
 230 434 216 481 216 530 c 0
 216 546 217 562 221 579 c 0
 239 666 305 725 392 725 c 0
 465 725 504 682 504 618 c 0
 504 606 503 593 500 579 c 0
 482 494 416 430 348 379 c 1
 439 207 l 1
 471 253 496 303 510 346 c 1
 591 346 l 1
 564 273 524 199 475 138 c 1
 548 0 l 1
 447 0 l 1
 411 71 l 1
 353 22 286 -10 214 -10 c 0
300 578 m 0
 297 565 296 552 296 539 c 0
 296 503 305 467 317 438 c 1
 360 470 410 517 423 580 c 0
 425 589 426 598 426 606 c 0
 426 639 409 657 378 657 c 0
 340 657 311 628 300 578 c 0
161 175 m 0
 159 164 158 154 158 144 c 0
 158 96 186 64 238 64 c 0
 288 64 336 93 379 135 c 1
 280 330 l 1
 225 289 175 242 161 175 c 0
EndSplineSet
Validated: 1
Substitution2: "'smcp' Lowercase to Small Capitals lookup 35 subtable" ampersand.sc
Substitution2: "'c2sc' Capitals to Small Capitals lookup 34 subtable" ampersand.sc
Substitution2: "'aalt' Access All Alternates lookup 0 subtable" ampersand.sc
EndChar

StartChar: quotesingle
Encoding: 39 39 10
Width: 563
Flags: HW
LayerCount: 2
Fore
SplineSet
350 456 m 1
 386 714 l 1
 481 714 l 1
 407 456 l 1
 350 456 l 1
EndSplineSet
Validated: 1
EndChar

StartChar: parenleft
Encoding: 40 40 11
Width: 563
Flags: HW
LayerCount: 2
Fore
SplineSet
296 -160 m 1
 248 -84 225 9 225 110 c 0
 225 162 231 217 243 273 c 0
 278 438 360 595 482 714 c 1
 561 714 l 1
 443 587 363 432 329 274 c 0
 318 221 312 167 312 115 c 0
 312 16 333 -79 374 -160 c 1
 296 -160 l 1
EndSplineSet
Validated: 1
Substitution2: "'smcp' Lowercase to Small Capitals lookup 35 subtable" parenleft.sc
Substitution2: "'c2sc' Capitals to Small Capitals lookup 34 subtable" parenleft.sc
Substitution2: "'sups' Superscript lookup 23 subtable" uni207D
Substitution2: "'subs' Subscript lookup 22 subtable" uni208D
AlternateSubs2: "'aalt' Access All Alternates lookup 1 subtable" uni208D uni207D parenleft.sc
EndChar

StartChar: parenright
Encoding: 41 41 12
Width: 563
Flags: HW
LayerCount: 2
Fore
SplineSet
378 714 m 1
 426 638 449 545 449 444 c 0
 449 392 443 337 431 281 c 0
 396 116 314 -41 192 -160 c 1
 113 -160 l 1
 231 -33 311 122 345 280 c 0
 356 334 362 387 362 439 c 0
 362 538 341 633 300 714 c 1
 378 714 l 1
EndSplineSet
Validated: 1
Substitution2: "'smcp' Lowercase to Small Capitals lookup 35 subtable" parenright.sc
Substitution2: "'c2sc' Capitals to Small Capitals lookup 34 subtable" parenright.sc
Substitution2: "'sups' Superscript lookup 23 subtable" uni207E
Substitution2: "'subs' Subscript lookup 22 subtable" uni208E
AlternateSubs2: "'aalt' Access All Alternates lookup 1 subtable" uni208E uni207E parenright.sc
EndChar

StartChar: asterisk
Encoding: 42 42 13
Width: 563
Flags: HW
LayerCount: 2
Fore
SplineSet
433 368 m 1
 391 511 l 1
 287 369 l 1
 225 414 l 1
 349 539 l 1
 207 556 l 1
 238 632 l 1
 381 592 l 1
 401 752 l 1
 482 752 l 1
 435 592 l 1
 596 635 l 1
 594 554 l 1
 444 538 l 1
 517 413 l 1
 433 368 l 1
EndSplineSet
Validated: 1
EndChar

StartChar: plus
Encoding: 43 43 14
Width: 563
Flags: HW
LayerCount: 2
Fore
SplineSet
273 120 m 1
 315 318 l 1
 143 318 l 1
 157 388 l 1
 329 388 l 1
 372 586 l 1
 443 586 l 1
 400 388 l 1
 570 388 l 1
 556 318 l 1
 386 318 l 1
 344 120 l 1
 273 120 l 1
EndSplineSet
Validated: 1
Substitution2: "'sups' Superscript lookup 23 subtable" uni207A
Substitution2: "'subs' Subscript lookup 22 subtable" uni208A
AlternateSubs2: "'aalt' Access All Alternates lookup 1 subtable" uni208A uni207A
EndChar

StartChar: comma
Encoding: 44 44 15
Width: 563
Flags: HW
LayerCount: 2
Fore
SplineSet
163 -137 m 1
 202 -53 243 50 269 124 c 1
 370 124 l 1
 376 112 l 1
 340 35 283 -60 233 -137 c 1
 163 -137 l 1
EndSplineSet
Validated: 1
EndChar

StartChar: hyphen
Encoding: 45 45 16
Width: 563
Flags: HW
LayerCount: 2
Fore
SplineSet
189 231 m 1
 206 310 l 1
 489 310 l 1
 472 231 l 1
 189 231 l 1
EndSplineSet
Validated: 1
EndChar

StartChar: period
Encoding: 46 46 17
Width: 563
Flags: HW
LayerCount: 2
Fore
SplineSet
279 -11 m 0
 251 -11 231 4 231 36 c 0
 231 42 231 49 233 57 c 0
 243 105 273 124 307 124 c 0
 335 124 357 112 357 79 c 0
 357 73 356 65 354 57 c 0
 344 10 313 -11 279 -11 c 0
EndSplineSet
Validated: 1
EndChar

StartChar: slash
Encoding: 47 47 18
Width: 563
Flags: HW
LayerCount: 2
Fore
SplineSet
83 -1 m 1
 505 715 l 1
 587 715 l 1
 166 -1 l 1
 83 -1 l 1
EndSplineSet
Validated: 1
Substitution2: "'frac' Diagonal Fractions lookup 26 subtable" fraction
Substitution2: "'aalt' Access All Alternates lookup 0 subtable" fraction
EndChar

StartChar: zero
Encoding: 48 48 19
Width: 563
Flags: HW
LayerCount: 2
Fore
SplineSet
279 -10 m 0
 159 -10 106 63 106 194 c 0
 106 241 113 296 126 358 c 0
 175 589 267 724 435 724 c 0
 556 724 610 651 610 519 c 0
 610 472 603 419 590 358 c 0
 541 127 448 -10 279 -10 c 0
211 358 m 0
 199 302 192 254 191 213 c 1
 506 605 l 1
 488 634 460 648 419 648 c 0
 316 648 252 553 211 358 c 0
295 66 m 0
 399 66 465 161 507 358 c 0
 519 416 526 466 526 507 c 0
 526 512 526 517 526 521 c 1
 206 122 l 1
 221 86 250 66 295 66 c 0
EndSplineSet
Validated: 1
Substitution2: "'zero' Slashed Zero lookup 37 subtable" zero.slash
Substitution2: "'onum' Oldstyle Figures lookup 33 subtable" zero.osf
Substitution2: "'frac' Diagonal Fractions lookup 27 subtable" zero.numr
Substitution2: "'dnom' Denominators lookup 25 subtable" zero.dnom
Substitution2: "'numr' Numerators lookup 24 subtable" zero.numr
Substitution2: "'sups' Superscript lookup 23 subtable" uni2070
Substitution2: "'subs' Subscript lookup 22 subtable" uni2080
AlternateSubs2: "'aalt' Access All Alternates lookup 1 subtable" uni2070 zero.osf zero.dnom zero.numr uni2080
EndChar

StartChar: one
Encoding: 49 49 20
Width: 563
Flags: HW
LayerCount: 2
Fore
SplineSet
122 0 m 1
 135 60 l 1
 279 70 l 1
 359 447 l 2
 371 503 389 579 400 623 c 1
 376 609 363 603 330 587 c 2
 240 543 l 1
 215 609 l 1
 430 714 l 1
 502 714 l 1
 365 70 l 1
 502 60 l 1
 489 0 l 1
 122 0 l 1
EndSplineSet
Validated: 1
Substitution2: "'onum' Oldstyle Figures lookup 33 subtable" one.osf
Substitution2: "'frac' Diagonal Fractions lookup 27 subtable" one.numr
Substitution2: "'dnom' Denominators lookup 25 subtable" one.dnom
Substitution2: "'numr' Numerators lookup 24 subtable" one.numr
Substitution2: "'sups' Superscript lookup 23 subtable" uni00B9
Substitution2: "'subs' Subscript lookup 22 subtable" uni2081
AlternateSubs2: "'aalt' Access All Alternates lookup 1 subtable" uni00B9 one.osf one.dnom one.numr uni2081
EndChar

StartChar: two
Encoding: 50 50 21
Width: 563
Flags: HW
LayerCount: 2
Fore
SplineSet
66 0 m 1
 82 75 l 1
 294 263 l 2
 404 360 480 432 500 525 c 0
 503 539 504 551 504 562 c 0
 504 620 467 647 409 647 c 0
 350 647 290 618 239 581 c 1
 204 641 l 1
 267 688 343 724 430 724 c 0
 534 724 595 673 595 582 c 0
 595 566 593 549 589 530 c 0
 566 420 484 336 367 231 c 2
 199 84 l 1
 198 80 l 1
 525 80 l 1
 508 0 l 1
 66 0 l 1
EndSplineSet
Validated: 1
Substitution2: "'onum' Oldstyle Figures lookup 33 subtable" two.osf
Substitution2: "'frac' Diagonal Fractions lookup 27 subtable" two.numr
Substitution2: "'dnom' Denominators lookup 25 subtable" two.dnom
Substitution2: "'numr' Numerators lookup 24 subtable" two.numr
Substitution2: "'sups' Superscript lookup 23 subtable" uni00B2
Substitution2: "'subs' Subscript lookup 22 subtable" uni2082
AlternateSubs2: "'aalt' Access All Alternates lookup 1 subtable" uni00B2 two.osf two.dnom two.numr uni2082
EndChar

StartChar: three
Encoding: 51 51 22
Width: 563
Flags: HW
LayerCount: 2
Fore
SplineSet
240 -10 m 0
 184 -10 120 -1 72 29 c 1
 90 113 l 1
 138 83 201 67 260 67 c 0
 369 67 429 122 446 203 c 0
 449 215 450 227 450 237 c 0
 450 303 397 330 302 330 c 2
 237 330 l 1
 254 408 l 1
 320 408 l 2
 418 408 482 462 499 540 c 0
 501 550 502 560 502 569 c 0
 502 618 470 647 405 647 c 0
 345 647 286 623 240 594 c 1
 209 655 l 1
 268 695 343 724 426 724 c 0
 538 724 595 670 595 589 c 0
 595 575 593 561 590 546 c 0
 570 453 502 391 412 376 c 1
 411 373 l 1
 497 361 542 318 542 246 c 0
 542 232 540 216 536 199 c 0
 510 78 411 -10 240 -10 c 0
EndSplineSet
Validated: 1
Substitution2: "'onum' Oldstyle Figures lookup 33 subtable" three.osf
Substitution2: "'frac' Diagonal Fractions lookup 27 subtable" three.numr
Substitution2: "'dnom' Denominators lookup 25 subtable" three.dnom
Substitution2: "'numr' Numerators lookup 24 subtable" three.numr
Substitution2: "'sups' Superscript lookup 23 subtable" uni00B3
Substitution2: "'subs' Subscript lookup 22 subtable" uni2083
AlternateSubs2: "'aalt' Access All Alternates lookup 1 subtable" uni00B3 three.osf three.dnom three.numr uni2083
EndChar

StartChar: four
Encoding: 52 52 23
Width: 563
Flags: HW
LayerCount: 2
Fore
SplineSet
335 0 m 1
 369 160 l 1
 80 160 l 1
 96 235 l 1
 472 718 l 1
 574 718 l 1
 472 238 l 1
 568 238 l 1
 551 160 l 1
 455 160 l 1
 421 0 l 1
 335 0 l 1
183 238 m 1
 386 238 l 1
 423 413 l 2
 439 486 462 579 474 625 c 1
 470 625 l 1
 455 595 423 550 405 525 c 2
 183 238 l 1
EndSplineSet
Validated: 1
Substitution2: "'onum' Oldstyle Figures lookup 33 subtable" four.osf
Substitution2: "'frac' Diagonal Fractions lookup 27 subtable" four.numr
Substitution2: "'dnom' Denominators lookup 25 subtable" four.dnom
Substitution2: "'numr' Numerators lookup 24 subtable" four.numr
Substitution2: "'sups' Superscript lookup 23 subtable" uni2074
Substitution2: "'subs' Subscript lookup 22 subtable" uni2084
AlternateSubs2: "'aalt' Access All Alternates lookup 1 subtable" uni2074 four.osf four.dnom four.numr uni2084
EndChar

StartChar: five
Encoding: 53 53 24
Width: 563
Flags: HW
LayerCount: 2
Fore
SplineSet
238 -10 m 0
 177 -10 116 3 80 29 c 1
 98 113 l 1
 136 83 191 67 249 67 c 0
 352 67 421 114 443 216 c 0
 446 231 448 245 448 258 c 0
 448 329 400 365 319 365 c 0
 282 365 235 357 205 350 c 1
 168 378 l 1
 266 714 l 1
 599 714 l 1
 582 634 l 1
 325 634 l 1
 263 428 l 1
 292 433 331 438 362 438 c 0
 468 438 542 385 542 280 c 0
 542 262 539 244 535 223 c 0
 505 80 396 -10 238 -10 c 0
EndSplineSet
Validated: 1
Substitution2: "'onum' Oldstyle Figures lookup 33 subtable" five.osf
Substitution2: "'frac' Diagonal Fractions lookup 27 subtable" five.numr
Substitution2: "'dnom' Denominators lookup 25 subtable" five.dnom
Substitution2: "'numr' Numerators lookup 24 subtable" five.numr
Substitution2: "'sups' Superscript lookup 23 subtable" uni2075
Substitution2: "'subs' Subscript lookup 22 subtable" uni2085
AlternateSubs2: "'aalt' Access All Alternates lookup 1 subtable" uni2075 five.osf five.dnom five.numr uni2085
EndChar

StartChar: six
Encoding: 54 54 25
Width: 563
Flags: HW
LayerCount: 2
Fore
SplineSet
287 -10 m 0
 176 -10 109 54 109 188 c 0
 109 223 114 264 124 309 c 0
 169 519 276 724 523 724 c 0
 549 724 584 721 603 715 c 1
 587 638 l 1
 567 646 538 650 510 650 c 0
 336 650 261 519 222 364 c 1
 228 364 l 1
 264 413 323 450 402 450 c 0
 503 450 561 395 561 296 c 0
 561 276 559 253 554 229 c 0
 523 81 420 -10 287 -10 c 0
303 64 m 0
 379 64 443 114 467 228 c 0
 471 248 474 265 474 281 c 0
 474 345 440 381 373 381 c 0
 287 381 213 314 198 244 c 0
 194 228 192 211 192 194 c 0
 192 126 224 64 303 64 c 0
EndSplineSet
Validated: 1
Substitution2: "'onum' Oldstyle Figures lookup 33 subtable" six.osf
Substitution2: "'frac' Diagonal Fractions lookup 27 subtable" six.numr
Substitution2: "'dnom' Denominators lookup 25 subtable" six.dnom
Substitution2: "'numr' Numerators lookup 24 subtable" six.numr
Substitution2: "'sups' Superscript lookup 23 subtable" uni2076
Substitution2: "'subs' Subscript lookup 22 subtable" uni2086
AlternateSubs2: "'aalt' Access All Alternates lookup 1 subtable" uni2076 six.osf six.dnom six.numr uni2086
EndChar

StartChar: seven
Encoding: 55 55 26
Width: 563
Flags: HW
LayerCount: 2
Fore
SplineSet
156 0 m 1
 550 634 l 1
 191 634 l 1
 208 714 l 1
 658 714 l 1
 643 643 l 1
 251 0 l 1
 156 0 l 1
EndSplineSet
Validated: 1
Substitution2: "'onum' Oldstyle Figures lookup 33 subtable" seven.osf
Substitution2: "'frac' Diagonal Fractions lookup 27 subtable" seven.numr
Substitution2: "'dnom' Denominators lookup 25 subtable" seven.dnom
Substitution2: "'numr' Numerators lookup 24 subtable" seven.numr
Substitution2: "'sups' Superscript lookup 23 subtable" uni2077
Substitution2: "'subs' Subscript lookup 22 subtable" uni2087
AlternateSubs2: "'aalt' Access All Alternates lookup 1 subtable" uni2077 seven.osf seven.dnom seven.numr uni2087
EndChar

StartChar: eight
Encoding: 56 56 27
Width: 563
Flags: HW
LayerCount: 2
Fore
SplineSet
274 -10 m 0
 164 -10 96 41 96 133 c 0
 96 148 97 163 101 180 c 0
 122 280 192 337 278 374 c 1
 232 406 198 449 198 512 c 0
 198 525 200 538 203 553 c 0
 227 667 331 724 436 724 c 0
 529 724 599 680 599 593 c 0
 599 580 598 567 595 553 c 0
 577 466 514 414 432 378 c 1
 496 341 542 296 542 224 c 0
 542 211 541 197 538 183 c 0
 514 68 409 -10 274 -10 c 0
370 414 m 1
 440 443 494 481 508 549 c 0
 510 559 511 568 511 576 c 0
 511 625 476 650 419 650 c 0
 352 650 301 616 287 548 c 0
 285 538 284 528 284 520 c 0
 284 466 324 439 370 414 c 1
293 63 m 0
 380 63 437 113 453 186 c 0
 455 196 456 205 456 214 c 0
 456 265 418 297 342 340 c 1
 258 303 204 255 188 181 c 0
 186 170 185 159 185 149 c 0
 185 97 218 63 293 63 c 0
EndSplineSet
Validated: 1
Substitution2: "'onum' Oldstyle Figures lookup 33 subtable" eight.osf
Substitution2: "'frac' Diagonal Fractions lookup 27 subtable" eight.numr
Substitution2: "'dnom' Denominators lookup 25 subtable" eight.dnom
Substitution2: "'numr' Numerators lookup 24 subtable" eight.numr
Substitution2: "'sups' Superscript lookup 23 subtable" uni2078
Substitution2: "'subs' Subscript lookup 22 subtable" uni2088
AlternateSubs2: "'aalt' Access All Alternates lookup 1 subtable" uni2078 eight.osf eight.dnom eight.numr uni2088
EndChar

StartChar: nine
Encoding: 57 57 28
Width: 563
Flags: HW
LayerCount: 2
Fore
SplineSet
197 -10 m 0
 168 -10 137 -7 117 -1 c 1
 133 77 l 1
 153 68 181 64 209 64 c 0
 372 64 452 196 491 350 c 1
 486 350 l 1
 446 300 389 264 312 264 c 0
 211 264 154 319 154 418 c 0
 154 439 157 462 162 487 c 0
 193 633 295 724 429 724 c 0
 537 724 604 662 604 526 c 0
 604 489 599 447 589 398 c 0
 549 208 440 -10 197 -10 c 0
340 333 m 0
 421 333 499 389 518 478 c 0
 521 491 522 506 522 520 c 0
 522 582 493 650 412 650 c 0
 332 650 270 595 247 488 c 0
 243 467 240 449 240 433 c 0
 240 366 276 333 340 333 c 0
EndSplineSet
Validated: 1
Substitution2: "'onum' Oldstyle Figures lookup 33 subtable" nine.osf
Substitution2: "'frac' Diagonal Fractions lookup 27 subtable" nine.numr
Substitution2: "'dnom' Denominators lookup 25 subtable" nine.dnom
Substitution2: "'numr' Numerators lookup 24 subtable" nine.numr
Substitution2: "'sups' Superscript lookup 23 subtable" uni2079
Substitution2: "'subs' Subscript lookup 22 subtable" uni2089
AlternateSubs2: "'aalt' Access All Alternates lookup 1 subtable" uni2079 nine.osf nine.dnom nine.numr uni2089
EndChar

StartChar: colon
Encoding: 58 58 29
Width: 563
Flags: HW
LayerCount: 2
Fore
SplineSet
369 411 m 0
 340 411 321 424 321 456 c 0
 321 462 322 470 324 478 c 0
 334 527 363 546 398 546 c 0
 426 546 446 532 446 500 c 0
 446 493 446 486 444 478 c 0
 434 431 403 411 369 411 c 0
280 -11 m 0
 251 -11 231 4 231 36 c 0
 231 42 231 49 233 57 c 0
 243 105 273 124 308 124 c 0
 336 124 357 112 357 79 c 0
 357 73 356 65 354 57 c 0
 344 10 313 -11 280 -11 c 0
EndSplineSet
Validated: 1
EndChar

StartChar: semicolon
Encoding: 59 59 30
Width: 563
Flags: HW
LayerCount: 2
Fore
SplineSet
381 411 m 0
 352 411 332 425 332 457 c 0
 332 463 333 470 335 478 c 0
 345 527 375 546 410 546 c 0
 438 546 458 532 458 500 c 0
 458 493 458 486 456 478 c 0
 446 431 414 411 381 411 c 0
161 -137 m 1
 200 -53 242 50 268 124 c 1
 369 124 l 1
 374 112 l 1
 339 35 282 -60 231 -137 c 1
 161 -137 l 1
EndSplineSet
Validated: 1
EndChar

StartChar: less
Encoding: 60 60 31
Width: 563
Flags: HW
LayerCount: 2
Fore
SplineSet
506 122 m 1
 147 326 l 1
 158 376 l 1
 607 597 l 1
 590 519 l 1
 246 352 l 1
 523 200 l 1
 506 122 l 1
EndSplineSet
Validated: 1
EndChar

StartChar: equal
Encoding: 61 61 32
Width: 563
Flags: HW
LayerCount: 2
Fore
SplineSet
150 410 m 1
 167 489 l 1
 605 489 l 1
 588 410 l 1
 150 410 l 1
109 215 m 1
 125 294 l 1
 563 294 l 1
 547 215 l 1
 109 215 l 1
EndSplineSet
Validated: 1
Substitution2: "'sups' Superscript lookup 23 subtable" uni207C
Substitution2: "'subs' Subscript lookup 22 subtable" uni208C
AlternateSubs2: "'aalt' Access All Alternates lookup 1 subtable" uni208C uni207C
EndChar

StartChar: greater
Encoding: 62 62 33
Width: 563
Flags: HW
LayerCount: 2
Fore
SplineSet
106 122 m 1
 123 200 l 1
 464 352 l 1
 190 519 l 1
 207 597 l 1
 563 376 l 1
 552 326 l 1
 106 122 l 1
EndSplineSet
Validated: 1
EndChar

StartChar: question
Encoding: 63 63 34
Width: 563
Flags: HW
LayerCount: 2
Fore
SplineSet
261 223 m 2
 277 297 308 339 387 393 c 0
 464 447 495 479 509 547 c 0
 511 555 512 563 512 571 c 0
 512 617 479 647 414 647 c 0
 351 647 300 629 247 605 c 1
 230 677 l 1
 288 703 350 724 429 724 c 0
 538 724 599 674 599 592 c 0
 599 579 597 566 594 551 c 0
 574 459 530 414 444 353 c 0
 363 296 345 271 333 214 c 2
 331 202 l 1
 257 202 l 1
 261 223 l 2
253 -11 m 0
 224 -11 204 4 204 36 c 0
 204 42 204 49 206 57 c 0
 216 105 245 124 281 124 c 0
 309 124 330 112 330 79 c 0
 330 73 329 65 327 57 c 0
 317 10 286 -11 253 -11 c 0
EndSplineSet
Validated: 1
Substitution2: "'smcp' Lowercase to Small Capitals lookup 35 subtable" question.sc
Substitution2: "'c2sc' Capitals to Small Capitals lookup 34 subtable" question.sc
Substitution2: "'aalt' Access All Alternates lookup 0 subtable" question.sc
EndChar

StartChar: at
Encoding: 64 64 35
Width: 563
Flags: HW
LayerCount: 2
Fore
SplineSet
286 -89 m 0
 132 -89 57 4 57 159 c 0
 57 200 62 245 72 294 c 0
 125 545 265 714 452 714 c 0
 576 714 644 628 644 483 c 0
 644 445 640 403 630 357 c 0
 604 235 547 108 464 108 c 0
 426 108 407 139 407 180 c 0
 407 184 408 189 408 193 c 1
 406 193 l 1
 376 143 333 108 282 108 c 0
 223 108 193 153 193 225 c 0
 193 246 195 270 201 296 c 0
 229 428 314 520 417 520 c 0
 461 520 506 508 527 497 c 1
 473 294 l 2
 469 282 467 267 465 257 c 0
 460 234 458 216 458 203 c 0
 458 177 465 167 478 167 c 0
 512 167 542 247 566 358 c 0
 575 400 579 437 579 471 c 0
 579 587 529 652 438 652 c 0
 292 652 185 514 139 297 c 0
 129 251 124 210 124 173 c 0
 124 47 181 -26 302 -26 c 0
 363 -26 420 -11 472 12 c 1
 459 -49 l 1
 406 -74 352 -89 286 -89 c 0
308 167 m 0
 352 167 382 226 408 323 c 2
 442 451 l 1
 432 456 417 461 401 461 c 0
 338 461 294 385 275 294 c 0
 270 268 267 247 267 229 c 0
 267 187 282 167 308 167 c 0
EndSplineSet
Validated: 1
EndChar

StartChar: A
Encoding: 65 65 36
Width: 563
GlyphClass: 2
Flags: HW
AnchorPoint: "Anchor-2" 695 714 basechar 0
AnchorPoint: "Anchor-1" 434 714 basechar 0
AnchorPoint: "Anchor-0" 282 0 basechar 0
LayerCount: 2
Fore
SplineSet
20 0 m 1
 383 716 l 1
 483 716 l 1
 543 0 l 1
 454 0 l 1
 439 222 l 1
 218 222 l 1
 109 0 l 1
 20 0 l 1
365 521 m 2
 256 300 l 1
 434 300 l 1
 419 521 l 2
 417 549 414 594 414 631 c 1
 399 594 378 548 365 521 c 2
EndSplineSet
Validated: 1048577
Substitution2: "'c2sc' Capitals to Small Capitals lookup 34 subtable" a.sc
Substitution2: "Single Substitution lookup 32 subtable" ordfeminine
AlternateSubs2: "'aalt' Access All Alternates lookup 1 subtable" ordfeminine a.sc
EndChar

StartChar: B
Encoding: 66 66 37
Width: 563
GlyphClass: 2
Flags: HW
AnchorPoint: "Anchor-2" 695 714 basechar 0
AnchorPoint: "Anchor-1" 434 714 basechar 0
AnchorPoint: "Anchor-0" 282 0 basechar 0
LayerCount: 2
Fore
SplineSet
84 0 m 1
 236 714 l 1
 414 714 l 2
 539 714 612 678 612 586 c 0
 612 572 611 556 607 539 c 0
 588 448 531 393 451 379 c 1
 449 374 l 1
 513 361 561 329 561 254 c 0
 561 240 560 224 556 206 c 0
 529 77 428 0 290 0 c 2
 84 0 l 1
354 412 m 2
 452 412 500 450 516 527 c 0
 519 539 520 550 520 560 c 0
 520 614 480 637 389 637 c 2
 302 637 l 1
 255 412 l 1
 354 412 l 2
291 77 m 2
 398 77 449 128 466 207 c 0
 469 220 470 233 470 244 c 0
 470 301 433 335 339 335 c 2
 238 335 l 1
 183 77 l 1
 291 77 l 2
EndSplineSet
Validated: 1048577
Substitution2: "'c2sc' Capitals to Small Capitals lookup 34 subtable" b.sc
Substitution2: "'aalt' Access All Alternates lookup 0 subtable" b.sc
EndChar

StartChar: C
Encoding: 67 67 38
Width: 563
GlyphClass: 2
Flags: HW
AnchorPoint: "Anchor-2" 695 714 basechar 0
AnchorPoint: "Anchor-1" 492 714 basechar 0
AnchorPoint: "Anchor-0" 328 0 basechar 0
LayerCount: 2
Fore
SplineSet
342 -10 m 0
 187 -10 117 82 117 228 c 0
 117 267 122 310 132 357 c 0
 179 577 314 725 504 725 c 0
 569 725 624 710 668 684 c 1
 619 612 l 1
 585 634 537 647 488 647 c 0
 354 647 260 535 222 357 c 0
 213 315 208 277 208 243 c 0
 208 134 256 70 364 70 c 0
 411 70 463 80 515 99 c 1
 498 18 l 1
 444 -2 398 -10 342 -10 c 0
EndSplineSet
Validated: 1048577
Substitution2: "'c2sc' Capitals to Small Capitals lookup 34 subtable" c.sc
Substitution2: "'aalt' Access All Alternates lookup 0 subtable" c.sc
EndChar

StartChar: D
Encoding: 68 68 39
Width: 563
GlyphClass: 2
Flags: HW
AnchorPoint: "Anchor-3" 361 357 basechar 0
AnchorPoint: "Anchor-2" 715 714 basechar 0
AnchorPoint: "Anchor-1" 413 714 basechar 0
AnchorPoint: "Anchor-0" 248 0 basechar 0
LayerCount: 2
Fore
SplineSet
61 0 m 1
 213 714 l 1
 392 714 l 2
 535 714 617 634 617 482 c 0
 617 447 613 408 604 365 c 0
 553 124 416 0 222 0 c 2
 61 0 l 1
232 78 m 2
 383 78 473 175 513 363 c 0
 522 404 526 439 526 470 c 0
 526 585 468 636 361 636 c 2
 283 636 l 1
 165 78 l 1
 232 78 l 2
EndSplineSet
Validated: 1
Substitution2: "'c2sc' Capitals to Small Capitals lookup 34 subtable" d.sc
Substitution2: "'aalt' Access All Alternates lookup 0 subtable" d.sc
EndChar

StartChar: E
Encoding: 69 69 40
Width: 563
GlyphClass: 2
Flags: HW
AnchorPoint: "Anchor-2" 695 714 basechar 0
AnchorPoint: "Anchor-1" 437 714 basechar 0
AnchorPoint: "Anchor-0" 286 0 basechar 0
LayerCount: 2
Fore
SplineSet
84 0 m 1
 236 714 l 1
 640 714 l 1
 623 635 l 1
 307 635 l 1
 260 412 l 1
 557 412 l 1
 540 332 l 1
 243 332 l 1
 189 79 l 1
 505 79 l 1
 488 0 l 1
 84 0 l 1
EndSplineSet
Validated: 1048577
Substitution2: "'c2sc' Capitals to Small Capitals lookup 34 subtable" e.sc
Substitution2: "'aalt' Access All Alternates lookup 0 subtable" e.sc
EndChar

StartChar: F
Encoding: 70 70 41
Width: 563
GlyphClass: 2
Flags: HW
AnchorPoint: "Anchor-2" 695 714 basechar 0
AnchorPoint: "Anchor-1" 447 714 basechar 0
AnchorPoint: "Anchor-0" 295 0 basechar 0
LayerCount: 2
Fore
SplineSet
84 0 m 1
 236 714 l 1
 640 714 l 1
 623 635 l 1
 307 635 l 1
 253 382 l 1
 552 382 l 1
 535 303 l 1
 236 303 l 1
 172 0 l 1
 84 0 l 1
EndSplineSet
Validated: 1048577
Substitution2: "'c2sc' Capitals to Small Capitals lookup 34 subtable" f.sc
Substitution2: "'aalt' Access All Alternates lookup 0 subtable" f.sc
EndChar

StartChar: G
Encoding: 71 71 42
Width: 563
GlyphClass: 2
Flags: HW
AnchorPoint: "Anchor-2" 695 714 basechar 0
AnchorPoint: "Anchor-1" 456 714 basechar 0
AnchorPoint: "Anchor-0" 316 0 basechar 0
LayerCount: 2
Fore
SplineSet
317 -10 m 0
 168 -10 97 74 97 219 c 0
 97 259 103 303 113 351 c 0
 162 580 290 725 482 725 c 0
 547 725 599 710 642 682 c 1
 594 609 l 1
 561 633 522 646 467 646 c 0
 333 646 242 540 202 353 c 0
 193 312 188 273 188 238 c 0
 188 136 229 68 335 68 c 0
 374 68 406 75 434 83 c 1
 479 298 l 1
 360 298 l 1
 377 377 l 1
 581 377 l 1
 507 26 l 1
 451 5 387 -10 317 -10 c 0
EndSplineSet
Validated: 1048577
Substitution2: "'c2sc' Capitals to Small Capitals lookup 34 subtable" g.sc
Substitution2: "'aalt' Access All Alternates lookup 0 subtable" g.sc
EndChar

StartChar: H
Encoding: 72 72 43
Width: 563
GlyphClass: 2
Flags: HW
AnchorPoint: "Anchor-3" 361 373 basechar 0
AnchorPoint: "Anchor-2" 715 714 basechar 0
AnchorPoint: "Anchor-1" 434 714 basechar 0
AnchorPoint: "Anchor-0" 282 0 basechar 0
LayerCount: 2
Fore
SplineSet
61 0 m 1
 213 714 l 1
 301 714 l 1
 236 411 l 1
 502 411 l 1
 567 714 l 1
 655 714 l 1
 503 0 l 1
 415 0 l 1
 486 332 l 1
 220 332 l 1
 149 0 l 1
 61 0 l 1
EndSplineSet
Validated: 1
Substitution2: "'c2sc' Capitals to Small Capitals lookup 34 subtable" h.sc
Substitution2: "'aalt' Access All Alternates lookup 0 subtable" h.sc
EndChar

StartChar: I
Encoding: 73 73 44
Width: 563
GlyphClass: 2
Flags: HW
AnchorPoint: "Anchor-2" 695 714 basechar 0
AnchorPoint: "Anchor-1" 434 714 basechar 0
AnchorPoint: "Anchor-0" 282 0 basechar 0
LayerCount: 2
Fore
SplineSet
97 0 m 1
 110 61 l 1
 253 73 l 1
 373 641 l 1
 236 653 l 1
 249 714 l 1
 618 714 l 1
 605 653 l 1
 460 641 l 1
 340 73 l 1
 479 61 l 1
 466 0 l 1
 97 0 l 1
EndSplineSet
Validated: 1048577
Substitution2: "'c2sc' Capitals to Small Capitals lookup 34 subtable" i.sc
Substitution2: "'aalt' Access All Alternates lookup 0 subtable" i.sc
EndChar

StartChar: J
Encoding: 74 74 45
Width: 563
GlyphClass: 2
Flags: HW
AnchorPoint: "Anchor-2" 695 714 basechar 0
AnchorPoint: "Anchor-1" 546 714 basechar 0
AnchorPoint: "Anchor-0" 282 0 basechar 0
LayerCount: 2
Fore
SplineSet
223 -10 m 0
 172 -10 117 2 86 19 c 1
 103 101 l 1
 133 86 184 70 233 70 c 0
 316 70 375 118 398 225 c 2
 502 714 l 1
 590 714 l 1
 483 212 l 2
 454 75 363 -10 223 -10 c 0
EndSplineSet
Validated: 1048577
Substitution2: "'c2sc' Capitals to Small Capitals lookup 34 subtable" j.sc
Substitution2: "'aalt' Access All Alternates lookup 0 subtable" j.sc
EndChar

StartChar: K
Encoding: 75 75 46
Width: 563
GlyphClass: 2
Flags: HW
AnchorPoint: "Anchor-2" 695 714 basechar 0
AnchorPoint: "Anchor-1" 434 714 basechar 0
AnchorPoint: "Anchor-0" 291 0 basechar 0
LayerCount: 2
Fore
SplineSet
61 0 m 1
 213 714 l 1
 300 714 l 1
 220 339 l 1
 250 373 282 410 321 453 c 2
 565 714 l 1
 665 714 l 1
 367 392 l 1
 523 0 l 1
 423 0 l 1
 294 331 l 1
 201 247 l 1
 148 0 l 1
 61 0 l 1
EndSplineSet
Validated: 1048577
Substitution2: "'c2sc' Capitals to Small Capitals lookup 34 subtable" k.sc
Substitution2: "'aalt' Access All Alternates lookup 0 subtable" k.sc
EndChar

StartChar: L
Encoding: 76 76 47
Width: 563
GlyphClass: 2
Flags: HW
AnchorPoint: "Anchor-3" 358 357 basechar 0
AnchorPoint: "Anchor-2" 568 714 basechar 0
AnchorPoint: "Anchor-1" 298 714 basechar 0
AnchorPoint: "Anchor-0" 308 0 basechar 0
LayerCount: 2
Fore
SplineSet
100 0 m 1
 252 714 l 1
 340 714 l 1
 205 82 l 1
 505 82 l 1
 488 0 l 1
 100 0 l 1
EndSplineSet
Validated: 1
Substitution2: "'c2sc' Capitals to Small Capitals lookup 34 subtable" l.sc
Substitution2: "'aalt' Access All Alternates lookup 0 subtable" l.sc
EndChar

StartChar: M
Encoding: 77 77 48
Width: 563
GlyphClass: 2
Flags: HW
AnchorPoint: "Anchor-2" 715 714 basechar 0
AnchorPoint: "Anchor-1" 438 714 basechar 0
AnchorPoint: "Anchor-0" 282 0 basechar 0
LayerCount: 2
Fore
SplineSet
43 0 m 1
 195 714 l 1
 320 714 l 1
 342 295 l 1
 345 295 l 1
 546 714 l 1
 673 714 l 1
 521 0 l 1
 438 0 l 1
 520 388 l 2
 537 468 560 558 584 632 c 1
 580 632 l 1
 362 188 l 1
 279 188 l 1
 249 632 l 1
 245 632 l 1
 240 573 225 470 207 387 c 2
 125 0 l 1
 43 0 l 1
EndSplineSet
Validated: 1048577
Substitution2: "'c2sc' Capitals to Small Capitals lookup 34 subtable" m.sc
Substitution2: "'aalt' Access All Alternates lookup 0 subtable" m.sc
EndChar

StartChar: N
Encoding: 78 78 49
Width: 563
GlyphClass: 2
Flags: HW
AnchorPoint: "Anchor-2" 715 714 basechar 0
AnchorPoint: "Anchor-1" 439 714 basechar 0
AnchorPoint: "Anchor-0" 282 0 basechar 0
LayerCount: 2
Fore
SplineSet
61 0 m 1
 213 714 l 1
 331 714 l 1
 448 107 l 1
 452 107 l 1
 459 165 468 231 484 307 c 2
 571 714 l 1
 655 714 l 1
 503 0 l 1
 393 0 l 1
 270 625 l 1
 265 625 l 1
 256 555 248 486 232 412 c 2
 144 0 l 1
 61 0 l 1
EndSplineSet
Validated: 1048577
Substitution2: "'c2sc' Capitals to Small Capitals lookup 34 subtable" n.sc
Substitution2: "'aalt' Access All Alternates lookup 0 subtable" n.sc
EndChar

StartChar: O
Encoding: 79 79 50
Width: 563
GlyphClass: 2
Flags: HW
AnchorPoint: "Anchor-3" 358 357 basechar 0
AnchorPoint: "Anchor-2" 715 714 basechar 0
AnchorPoint: "Anchor-1" 434 714 basechar 0
AnchorPoint: "Anchor-0" 282 0 basechar 0
LayerCount: 2
Fore
SplineSet
279 -10 m 0
 149 -10 96 76 96 207 c 0
 96 252 102 303 114 358 c 0
 162 584 267 726 436 726 c 0
 565 726 620 641 620 508 c 0
 620 463 613 413 602 359 c 0
 556 143 454 -10 279 -10 c 0
297 68 m 0
 407 68 473 173 512 358 c 0
 524 414 530 462 530 503 c 0
 530 597 497 648 421 648 c 0
 308 648 242 541 203 358 c 0
 191 304 185 256 185 216 c 0
 185 121 220 68 297 68 c 0
EndSplineSet
Validated: 1
Substitution2: "'c2sc' Capitals to Small Capitals lookup 34 subtable" o.sc
Substitution2: "Single Substitution lookup 32 subtable" ordmasculine
AlternateSubs2: "'aalt' Access All Alternates lookup 1 subtable" ordmasculine o.sc
EndChar

StartChar: P
Encoding: 80 80 51
Width: 563
GlyphClass: 2
Flags: HW
AnchorPoint: "Anchor-2" 715 714 basechar 0
AnchorPoint: "Anchor-1" 434 714 basechar 0
AnchorPoint: "Anchor-0" 282 0 basechar 0
LayerCount: 2
Fore
SplineSet
84 0 m 1
 236 714 l 1
 433 714 l 2
 566 714 626 662 626 567 c 0
 626 548 624 527 619 505 c 0
 593 382 508 276 328 276 c 2
 230 276 l 1
 171 0 l 1
 84 0 l 1
335 354 m 2
 444 354 506 395 528 500 c 0
 532 517 534 532 534 545 c 0
 534 609 493 636 410 636 c 2
 306 636 l 1
 246 354 l 1
 335 354 l 2
EndSplineSet
Validated: 1048577
Substitution2: "'c2sc' Capitals to Small Capitals lookup 34 subtable" p.sc
Substitution2: "'aalt' Access All Alternates lookup 0 subtable" p.sc
EndChar

StartChar: Q
Encoding: 81 81 52
Width: 563
GlyphClass: 2
Flags: HW
AnchorPoint: "Anchor-3" 358 357 basechar 0
AnchorPoint: "Anchor-2" 715 714 basechar 0
AnchorPoint: "Anchor-1" 434 714 basechar 0
AnchorPoint: "Anchor-0" 235 -220 basechar 0
LayerCount: 2
Fore
SplineSet
279 -10 m 0
 149 -10 96 76 96 207 c 0
 96 252 102 303 114 358 c 0
 162 584 267 726 436 726 c 0
 565 726 620 641 620 508 c 0
 620 463 613 413 602 359 c 0
 570 207 510 87 417 28 c 1
 477 -180 l 1
 380 -180 l 1
 334 -5 l 1
 316 -8 298 -10 279 -10 c 0
297 68 m 0
 407 68 473 173 512 358 c 0
 524 414 530 462 530 503 c 0
 530 597 497 648 421 648 c 0
 308 648 242 541 203 358 c 0
 191 304 185 256 185 216 c 0
 185 121 220 68 297 68 c 0
EndSplineSet
Validated: 1
Substitution2: "'c2sc' Capitals to Small Capitals lookup 34 subtable" q.sc
Substitution2: "'aalt' Access All Alternates lookup 0 subtable" q.sc
EndChar

StartChar: R
Encoding: 82 82 53
Width: 563
GlyphClass: 2
Flags: HW
AnchorPoint: "Anchor-2" 695 714 basechar 0
AnchorPoint: "Anchor-1" 434 714 basechar 0
AnchorPoint: "Anchor-0" 305 0 basechar 0
LayerCount: 2
Fore
SplineSet
84 0 m 1
 236 714 l 1
 399 714 l 2
 533 714 601 666 601 569 c 0
 601 552 598 533 594 513 c 0
 570 400 502 344 426 317 c 1
 536 0 l 1
 439 0 l 1
 341 293 l 1
 233 293 l 1
 171 0 l 1
 84 0 l 1
324 370 m 2
 430 370 483 417 502 506 c 0
 505 522 507 535 507 548 c 0
 507 611 464 637 377 637 c 2
 306 637 l 1
 250 370 l 1
 324 370 l 2
EndSplineSet
Validated: 1048577
Substitution2: "'c2sc' Capitals to Small Capitals lookup 34 subtable" r.sc
Substitution2: "'aalt' Access All Alternates lookup 0 subtable" r.sc
EndChar

StartChar: S
Encoding: 83 83 54
Width: 563
GlyphClass: 2
Flags: HW
AnchorPoint: "Anchor-2" 695 714 basechar 0
AnchorPoint: "Anchor-1" 449 714 basechar 0
AnchorPoint: "Anchor-0" 282 0 basechar 0
LayerCount: 2
Fore
SplineSet
256 -10 m 0
 188 -10 120 5 82 26 c 1
 99 107 l 1
 143 85 208 66 273 66 c 0
 374 66 432 114 448 191 c 0
 450 201 451 210 451 218 c 0
 451 267 412 287 325 332 c 0
 260 366 197 402 197 489 c 0
 197 503 198 519 202 536 c 0
 229 661 327 725 460 725 c 0
 526 725 585 709 630 685 c 1
 584 612 l 1
 545 633 494 647 443 647 c 0
 364 647 307 612 291 536 c 0
 289 526 288 516 288 508 c 0
 288 457 328 435 401 398 c 0
 483 356 542 324 542 240 c 0
 542 226 541 210 537 192 c 0
 510 63 410 -10 256 -10 c 0
EndSplineSet
Validated: 1048577
Substitution2: "'c2sc' Capitals to Small Capitals lookup 34 subtable" s.sc
Substitution2: "'aalt' Access All Alternates lookup 0 subtable" s.sc
EndChar

StartChar: T
Encoding: 84 84 55
Width: 563
GlyphClass: 2
Flags: HW
AnchorPoint: "Anchor-3" 358 357 basechar 0
AnchorPoint: "Anchor-2" 695 714 basechar 0
AnchorPoint: "Anchor-1" 434 714 basechar 0
AnchorPoint: "Anchor-0" 282 0 basechar 0
LayerCount: 2
Fore
SplineSet
237 0 m 1
 372 635 l 1
 176 635 l 1
 193 714 l 1
 674 714 l 1
 657 635 l 1
 460 635 l 1
 325 0 l 1
 237 0 l 1
EndSplineSet
Validated: 1
Substitution2: "'c2sc' Capitals to Small Capitals lookup 34 subtable" t.sc
Substitution2: "'aalt' Access All Alternates lookup 0 subtable" t.sc
EndChar

StartChar: U
Encoding: 85 85 56
Width: 563
GlyphClass: 2
Flags: HW
AnchorPoint: "Anchor-2" 695 714 basechar 0
AnchorPoint: "Anchor-1" 434 714 basechar 0
AnchorPoint: "Anchor-0" 282 0 basechar 0
LayerCount: 2
Fore
SplineSet
279 -10 m 0
 156 -10 102 48 102 152 c 0
 102 179 105 209 112 241 c 2
 213 714 l 1
 301 714 l 1
 201 245 l 2
 195 218 192 194 192 173 c 0
 192 106 222 68 296 68 c 0
 398 68 444 138 467 246 c 2
 567 714 l 1
 655 714 l 1
 554 240 l 2
 522 88 437 -10 279 -10 c 0
EndSplineSet
Validated: 1048577
Substitution2: "'c2sc' Capitals to Small Capitals lookup 34 subtable" u.sc
Substitution2: "'aalt' Access All Alternates lookup 0 subtable" u.sc
EndChar

StartChar: V
Encoding: 86 86 57
Width: 563
GlyphClass: 2
Flags: HW
AnchorPoint: "Anchor-2" 695 714 basechar 0
AnchorPoint: "Anchor-1" 434 714 basechar 0
AnchorPoint: "Anchor-0" 282 0 basechar 0
LayerCount: 2
Fore
SplineSet
237 0 m 1
 173 714 l 1
 262 714 l 1
 295 250 l 2
 298 191 300 132 300 85 c 1
 302 85 l 1
 321 131 347 192 378 253 c 2
 605 714 l 1
 694 714 l 1
 328 0 l 1
 237 0 l 1
EndSplineSet
Validated: 1048577
Substitution2: "'c2sc' Capitals to Small Capitals lookup 34 subtable" v.sc
Substitution2: "'aalt' Access All Alternates lookup 0 subtable" v.sc
EndChar

StartChar: W
Encoding: 87 87 58
Width: 563
GlyphClass: 2
Flags: HW
AnchorPoint: "Anchor-2" 695 714 basechar 0
AnchorPoint: "Anchor-1" 434 714 basechar 0
AnchorPoint: "Anchor-0" 282 0 basechar 0
LayerCount: 2
Fore
SplineSet
95 0 m 1
 173 714 l 1
 251 714 l 1
 239 609 226 503 213 398 c 0
 204 311 177 138 168 91 c 1
 170 91 l 1
 187 137 229 242 255 304 c 2
 353 536 l 1
 439 536 l 1
 441 302 l 2
 441 296 441 289 441 282 c 0
 441 216 439 133 436 91 c 1
 439 91 l 1
 450 138 492 299 521 400 c 0
 552 505 583 609 614 714 c 1
 694 714 l 1
 475 0 l 1
 377 0 l 1
 377 328 l 2
 378 388 378 427 379 448 c 1
 376 448 l 1
 369 427 355 388 329 327 c 2
 191 0 l 1
 95 0 l 1
EndSplineSet
Validated: 1048577
Substitution2: "'c2sc' Capitals to Small Capitals lookup 34 subtable" w.sc
Substitution2: "'aalt' Access All Alternates lookup 0 subtable" w.sc
EndChar

StartChar: X
Encoding: 88 88 59
Width: 563
GlyphClass: 2
Flags: HW
AnchorPoint: "Anchor-2" 695 714 basechar 0
AnchorPoint: "Anchor-1" 434 714 basechar 0
AnchorPoint: "Anchor-0" 282 0 basechar 0
LayerCount: 2
Fore
SplineSet
30 0 m 1
 315 370 l 1
 196 714 l 1
 291 714 l 1
 376 442 l 1
 578 714 l 1
 672 714 l 1
 403 369 l 1
 534 0 l 1
 441 0 l 1
 343 298 l 1
 123 0 l 1
 30 0 l 1
EndSplineSet
Validated: 1048577
Substitution2: "'c2sc' Capitals to Small Capitals lookup 34 subtable" x.sc
Substitution2: "'aalt' Access All Alternates lookup 0 subtable" x.sc
EndChar

StartChar: Y
Encoding: 89 89 60
Width: 563
GlyphClass: 2
Flags: HW
AnchorPoint: "Anchor-2" 695 714 basechar 0
AnchorPoint: "Anchor-1" 434 714 basechar 0
AnchorPoint: "Anchor-0" 282 0 basechar 0
LayerCount: 2
Fore
SplineSet
239 0 m 1
 298 276 l 1
 182 714 l 1
 278 714 l 1
 357 352 l 1
 592 714 l 1
 686 714 l 1
 383 276 l 1
 324 0 l 1
 239 0 l 1
EndSplineSet
Validated: 1048577
Substitution2: "'c2sc' Capitals to Small Capitals lookup 34 subtable" y.sc
Substitution2: "'aalt' Access All Alternates lookup 0 subtable" y.sc
EndChar

StartChar: Z
Encoding: 90 90 61
Width: 563
GlyphClass: 2
Flags: HW
AnchorPoint: "Anchor-2" 695 714 basechar 0
AnchorPoint: "Anchor-1" 445 714 basechar 0
AnchorPoint: "Anchor-0" 297 0 basechar 0
LayerCount: 2
Fore
SplineSet
84 0 m 1
 99 71 l 1
 523 636 l 1
 236 636 l 1
 253 714 l 1
 632 714 l 1
 617 643 l 1
 196 79 l 1
 500 79 l 1
 483 0 l 1
 84 0 l 1
EndSplineSet
Validated: 1048577
Substitution2: "'c2sc' Capitals to Small Capitals lookup 34 subtable" z.sc
Substitution2: "'aalt' Access All Alternates lookup 0 subtable" z.sc
EndChar

StartChar: bracketleft
Encoding: 91 91 62
Width: 563
Flags: HW
LayerCount: 2
Fore
SplineSet
184 -159 m 1
 370 716 l 1
 590 716 l 1
 575 646 l 1
 438 646 l 1
 282 -89 l 1
 419 -89 l 1
 404 -159 l 1
 184 -159 l 1
EndSplineSet
Validated: 1
Substitution2: "'smcp' Lowercase to Small Capitals lookup 35 subtable" bracketleft.sc
Substitution2: "'c2sc' Capitals to Small Capitals lookup 34 subtable" bracketleft.sc
Substitution2: "'aalt' Access All Alternates lookup 0 subtable" bracketleft.sc
EndChar

StartChar: backslash
Encoding: 92 92 63
Width: 563
Flags: HW
LayerCount: 2
Fore
SplineSet
458 -1 m 1
 375 -1 l 1
 257 715 l 1
 340 715 l 1
 458 -1 l 1
EndSplineSet
Validated: 1
EndChar

StartChar: bracketright
Encoding: 93 93 64
Width: 563
Flags: HW
LayerCount: 2
Fore
SplineSet
499 721 m 1
 313 -154 l 1
 94 -154 l 1
 109 -83 l 1
 245 -83 l 1
 401 651 l 1
 265 651 l 1
 280 721 l 1
 499 721 l 1
EndSplineSet
Validated: 1
Substitution2: "'smcp' Lowercase to Small Capitals lookup 35 subtable" bracketright.sc
Substitution2: "'c2sc' Capitals to Small Capitals lookup 34 subtable" bracketright.sc
Substitution2: "'aalt' Access All Alternates lookup 0 subtable" bracketright.sc
EndChar

StartChar: asciicircum
Encoding: 94 94 65
Width: 563
Flags: HW
LayerCount: 2
Fore
SplineSet
109 291 m 1
 402 717 l 1
 451 717 l 1
 578 291 l 1
 499 291 l 1
 407 620 l 1
 187 291 l 1
 109 291 l 1
EndSplineSet
Validated: 1
EndChar

StartChar: underscore
Encoding: 95 95 66
Width: 563
Flags: HW
LayerCount: 2
Fore
SplineSet
-33 -155 m 1
 -16 -76 l 1
 547 -76 l 1
 530 -155 l 1
 -33 -155 l 1
EndSplineSet
Validated: 1
EndChar

StartChar: grave
Encoding: 96 96 67
Width: 563
Flags: HW
LayerCount: 2
Fore
SplineSet
427 606 m 1
 390 641 336 717 320 756 c 1
 322 766 l 1
 424 766 l 1
 435 721 463 655 485 618 c 1
 483 606 l 1
 427 606 l 1
EndSplineSet
Validated: 1
EndChar

StartChar: a
Encoding: 97 97 68
Width: 563
GlyphClass: 2
Flags: HW
AnchorPoint: "Anchor-2" 657 536 basechar 0
AnchorPoint: "Anchor-1" 404 536 basechar 0
AnchorPoint: "Anchor-0" 282 0 basechar 0
LayerCount: 2
Fore
SplineSet
230 -10 m 0
 147 -10 93 28 93 105 c 0
 93 118 94 133 97 148 c 0
 121 263 213 318 363 322 c 2
 472 325 l 1
 478 351 l 2
 481 366 482 379 482 391 c 0
 482 452 442 473 380 473 c 0
 326 473 271 457 223 432 c 1
 206 499 l 1
 263 525 324 546 400 546 c 0
 508 546 567 505 567 417 c 0
 567 400 565 382 561 362 c 2
 484 0 l 1
 416 0 l 1
 419 75 l 1
 415 75 l 1
 362 19 304 -10 230 -10 c 0
263 63 m 0
 343 63 425 111 447 214 c 2
 458 262 l 1
 370 259 l 2
 253 255 198 218 184 151 c 0
 182 142 181 133 181 126 c 0
 181 81 214 63 263 63 c 0
EndSplineSet
Validated: 1048577
Substitution2: "'smcp' Lowercase to Small Capitals lookup 35 subtable" a.sc
Substitution2: "Single Substitution lookup 32 subtable" ordfeminine
AlternateSubs2: "'aalt' Access All Alternates lookup 1 subtable" ordfeminine a.sc
EndChar

StartChar: b
Encoding: 98 98 69
Width: 563
GlyphClass: 2
Flags: HW
AnchorPoint: "Anchor-2" 705 760 basechar 0
AnchorPoint: "Anchor-1" 444 760 basechar 0
AnchorPoint: "Anchor-0" 282 0 basechar 0
LayerCount: 2
Fore
SplineSet
310 -10 m 0
 237 -10 194 24 171 68 c 1
 165 68 l 1
 140 0 l 1
 73 0 l 1
 235 760 l 1
 320 760 l 1
 280 576 l 2
 272 539 265 503 253 466 c 1
 257 466 l 1
 295 509 352 546 428 546 c 0
 526 546 583 486 583 370 c 0
 583 340 579 306 571 269 c 0
 532 85 432 -10 310 -10 c 0
305 63 m 0
 395 63 453 136 481 268 c 0
 488 301 492 331 492 356 c 0
 492 433 460 473 392 473 c 0
 306 473 244 403 216 272 c 0
 209 237 205 207 205 181 c 0
 205 103 238 63 305 63 c 0
EndSplineSet
Validated: 1048577
Substitution2: "'smcp' Lowercase to Small Capitals lookup 35 subtable" b.sc
Substitution2: "'aalt' Access All Alternates lookup 0 subtable" b.sc
EndChar

StartChar: c
Encoding: 99 99 70
Width: 563
GlyphClass: 2
Flags: HW
AnchorPoint: "Anchor-2" 657 536 basechar 0
AnchorPoint: "Anchor-1" 426 536 basechar 0
AnchorPoint: "Anchor-0" 317 0 basechar 0
LayerCount: 2
Fore
SplineSet
322 -10 m 0
 199 -10 125 44 125 170 c 0
 125 198 129 229 136 264 c 0
 180 470 301 546 446 546 c 0
 505 546 551 534 590 512 c 1
 548 440 l 1
 513 462 479 470 435 470 c 0
 320 470 255 404 226 266 c 0
 220 237 216 210 216 188 c 0
 216 102 261 66 346 66 c 0
 399 66 452 80 495 98 c 1
 478 20 l 1
 434 1 377 -10 322 -10 c 0
EndSplineSet
Validated: 1048577
Substitution2: "'smcp' Lowercase to Small Capitals lookup 35 subtable" c.sc
Substitution2: "'aalt' Access All Alternates lookup 0 subtable" c.sc
EndChar

StartChar: d
Encoding: 100 100 71
Width: 563
GlyphClass: 2
Flags: HW
AnchorPoint: "Anchor-3" 339 268 basechar 0
AnchorPoint: "Anchor-2" 705 760 basechar 0
AnchorPoint: "Anchor-1" 444 760 basechar 0
AnchorPoint: "Anchor-0" 282 0 basechar 0
LayerCount: 2
Fore
SplineSet
253 -10 m 0
 154 -10 95 48 95 166 c 0
 95 197 99 231 107 270 c 0
 145 449 240 546 377 546 c 0
 449 546 487 512 504 468 c 1
 509 468 l 1
 511 490 515 522 520 547 c 2
 566 760 l 1
 653 760 l 1
 491 0 l 1
 421 0 l 1
 424 72 l 1
 420 72 l 1
 382 25 329 -10 253 -10 c 0
288 63 m 0
 379 63 434 134 458 247 c 2
 462 267 l 2
 469 302 473 333 473 361 c 0
 473 430 448 473 379 473 c 0
 288 473 224 403 194 261 c 0
 187 229 184 201 184 176 c 0
 184 101 216 63 288 63 c 0
EndSplineSet
Validated: 1
Substitution2: "'smcp' Lowercase to Small Capitals lookup 35 subtable" d.sc
Substitution2: "'aalt' Access All Alternates lookup 0 subtable" d.sc
EndChar

StartChar: e
Encoding: 101 101 72
Width: 563
GlyphClass: 2
Flags: HW
AnchorPoint: "Anchor-2" 657 536 basechar 0
AnchorPoint: "Anchor-1" 400 536 basechar 0
AnchorPoint: "Anchor-0" 292 0 basechar 0
LayerCount: 2
Fore
SplineSet
316 -10 m 0
 180 -10 102 58 102 184 c 0
 102 209 105 236 111 265 c 0
 148 441 264 546 408 546 c 0
 520 546 580 480 580 372 c 0
 580 349 578 323 572 296 c 2
 562 250 l 1
 196 250 l 1
 192 229 190 210 190 193 c 0
 190 101 245 64 336 64 c 0
 393 64 448 80 509 107 c 1
 492 28 l 1
 430 1 372 -10 316 -10 c 0
490 322 m 1
 493 338 495 352 495 366 c 0
 495 433 461 473 393 473 c 0
 310 473 244 416 213 322 c 1
 490 322 l 1
EndSplineSet
Validated: 1048577
Substitution2: "'smcp' Lowercase to Small Capitals lookup 35 subtable" e.sc
Substitution2: "'aalt' Access All Alternates lookup 0 subtable" e.sc
EndChar

StartChar: f
Encoding: 102 102 73
Width: 563
GlyphClass: 2
Flags: HW
AnchorPoint: "Anchor-2" 740 765 basechar 0
AnchorPoint: "Anchor-1" 539 765 basechar 0
AnchorPoint: "Anchor-0" 282 0 basechar 0
LayerCount: 2
Fore
SplineSet
222 0 m 1
 320 462 l 1
 158 462 l 1
 171 523 l 1
 336 537 l 1
 348 593 l 2
 376 724 455 765 566 765 c 0
 619 765 659 756 689 746 c 1
 654 677 l 1
 628 686 591 692 558 692 c 0
 492 692 452 669 434 586 c 2
 423 536 l 1
 614 536 l 1
 598 462 l 1
 407 462 l 1
 309 0 l 1
 222 0 l 1
EndSplineSet
Validated: 1048577
Substitution2: "'smcp' Lowercase to Small Capitals lookup 35 subtable" f.sc
Substitution2: "'aalt' Access All Alternates lookup 0 subtable" f.sc
EndChar

StartChar: g
Encoding: 103 103 74
Width: 563
GlyphClass: 2
Flags: HW
AnchorPoint: "Anchor-2" 657 536 basechar 0
AnchorPoint: "Anchor-1" 396 536 basechar 0
AnchorPoint: "Anchor-0" 230 -245 basechar 0
LayerCount: 2
Fore
SplineSet
207 -245 m 0
 141 -245 83 -231 36 -208 c 1
 53 -128 l 1
 99 -158 166 -173 221 -173 c 0
 329 -173 383 -113 403 -17 c 2
 408 5 l 2
 411 21 417 41 424 65 c 1
 421 65 l 1
 374 10 322 -10 257 -10 c 0
 152 -10 95 55 95 169 c 0
 95 198 99 230 106 265 c 0
 143 439 243 546 372 546 c 0
 438 546 480 523 504 468 c 1
 509 468 l 1
 535 536 l 1
 605 536 l 1
 488 -14 l 2
 455 -167 365 -245 207 -245 c 0
293 63 m 0
 377 63 436 119 463 246 c 2
 468 267 l 2
 475 302 479 332 479 357 c 0
 479 438 443 473 378 473 c 0
 284 473 224 399 196 268 c 0
 189 236 186 208 186 183 c 0
 186 104 221 63 293 63 c 0
EndSplineSet
Validated: 1048577
Substitution2: "'smcp' Lowercase to Small Capitals lookup 35 subtable" g.sc
Substitution2: "'aalt' Access All Alternates lookup 0 subtable" g.sc
EndChar

StartChar: h
Encoding: 104 104 75
Width: 563
GlyphClass: 2
Flags: HW
AnchorPoint: "Anchor-3" 339 268 basechar 0
AnchorPoint: "Anchor-2" 705 760 basechar 0
AnchorPoint: "Anchor-1" 278 760 basechar 0
AnchorPoint: "Anchor-0" 282 0 basechar 0
LayerCount: 2
Fore
SplineSet
73 0 m 1
 235 760 l 1
 322 760 l 1
 275 540 l 2
 270 515 259 478 253 455 c 1
 258 455 l 1
 302 515 362 546 434 546 c 0
 521 546 578 505 578 413 c 0
 578 394 575 373 570 350 c 2
 496 0 l 1
 409 0 l 1
 480 332 l 2
 484 352 486 369 486 384 c 0
 486 444 455 473 397 473 c 0
 311 473 245 402 219 278 c 2
 160 0 l 1
 73 0 l 1
EndSplineSet
Validated: 1
Substitution2: "'smcp' Lowercase to Small Capitals lookup 35 subtable" h.sc
Substitution2: "'subs' Subscript lookup 22 subtable" uni2095
AlternateSubs2: "'aalt' Access All Alternates lookup 1 subtable" h.sc uni2095
EndChar

StartChar: i
Encoding: 105 105 76
Width: 563
GlyphClass: 2
Flags: HW
AnchorPoint: "Anchor-3" 357 284 basechar 0
AnchorPoint: "Anchor-2" 627 762 basechar 0
AnchorPoint: "Anchor-1" 449 762 basechar 0
AnchorPoint: "Anchor-0" 299 0 basechar 0
LayerCount: 2
Fore
SplineSet
422 633 m 0
 392 633 372 648 372 679 c 0
 372 685 373 690 374 697 c 0
 383 741 414 762 449 762 c 0
 478 762 498 747 498 716 c 0
 498 710 497 704 496 697 c 0
 487 654 456 633 422 633 c 0
78 0 m 1
 91 60 l 1
 267 73 l 1
 349 462 l 1
 191 475 l 1
 204 536 l 1
 452 536 l 1
 354 73 l 1
 511 60 l 1
 498 0 l 1
 78 0 l 1
EndSplineSet
Validated: 1
Substitution2: "'smcp' Lowercase to Small Capitals lookup 35 subtable" i.sc
Substitution2: "Single Substitution lookup 5 subtable" dotlessi
Substitution2: "Single Substitution lookup 4 subtable" dotlessi
AlternateSubs2: "'aalt' Access All Alternates lookup 1 subtable" dotlessi i.sc
EndChar

StartChar: j
Encoding: 106 106 77
Width: 563
GlyphClass: 2
Flags: HW
AnchorPoint: "Anchor-2" 649 762 basechar 0
AnchorPoint: "Anchor-1" 482 762 basechar 0
AnchorPoint: "Anchor-0" 157 -245 basechar 0
LayerCount: 2
Fore
SplineSet
456 633 m 0
 427 633 408 647 408 677 c 0
 408 683 408 690 410 697 c 0
 419 741 448 762 483 762 c 0
 512 762 532 747 532 716 c 0
 532 710 531 704 530 697 c 0
 521 653 490 633 456 633 c 0
128 -245 m 0
 87 -245 38 -238 7 -228 c 1
 23 -150 l 1
 53 -162 99 -171 136 -171 c 0
 216 -171 261 -130 278 -48 c 2
 386 462 l 1
 215 475 l 1
 228 536 l 1
 489 536 l 1
 363 -56 l 2
 337 -180 253 -245 128 -245 c 0
EndSplineSet
Validated: 1048577
Substitution2: "'smcp' Lowercase to Small Capitals lookup 35 subtable" j.sc
Substitution2: "Single Substitution lookup 5 subtable" uni0237
Substitution2: "Single Substitution lookup 4 subtable" uni0237
AlternateSubs2: "'aalt' Access All Alternates lookup 1 subtable" uni0237 j.sc
EndChar

StartChar: k
Encoding: 107 107 78
Width: 563
GlyphClass: 2
Flags: HW
AnchorPoint: "Anchor-2" 654 849 basechar 0
AnchorPoint: "Anchor-1" 480 760 basechar 0
AnchorPoint: "Anchor-0" 315 0 basechar 0
LayerCount: 2
Fore
SplineSet
90 0 m 1
 252 760 l 1
 339 760 l 1
 262 400 l 2
 253 356 238 303 225 255 c 1
 226 255 l 1
 254 285 279 308 309 335 c 2
 530 536 l 1
 637 536 l 1
 377 305 l 1
 536 0 l 1
 434 0 l 1
 306 248 l 1
 215 179 l 1
 177 0 l 1
 90 0 l 1
EndSplineSet
Validated: 1048577
Substitution2: "'smcp' Lowercase to Small Capitals lookup 35 subtable" k.sc
Substitution2: "'subs' Subscript lookup 22 subtable" uni2096
AlternateSubs2: "'aalt' Access All Alternates lookup 1 subtable" k.sc uni2096
EndChar

StartChar: l
Encoding: 108 108 79
Width: 563
GlyphClass: 2
Flags: HW
AnchorPoint: "Anchor-3" 377 381 basechar 0
AnchorPoint: "Anchor-2" 625 760 basechar 0
AnchorPoint: "Anchor-1" 444 760 basechar 0
AnchorPoint: "Anchor-0" 296 0 basechar 0
LayerCount: 2
Fore
SplineSet
78 0 m 1
 91 60 l 1
 268 73 l 1
 398 687 l 1
 232 699 l 1
 245 760 l 1
 501 760 l 1
 355 73 l 1
 511 60 l 1
 498 0 l 1
 78 0 l 1
EndSplineSet
Validated: 1
Substitution2: "'smcp' Lowercase to Small Capitals lookup 35 subtable" l.sc
Substitution2: "'subs' Subscript lookup 22 subtable" uni2097
AlternateSubs2: "'aalt' Access All Alternates lookup 1 subtable" l.sc uni2097
EndChar

StartChar: m
Encoding: 109 109 80
Width: 563
GlyphClass: 2
Flags: HW
AnchorPoint: "Anchor-2" 657 536 basechar 0
AnchorPoint: "Anchor-1" 419 536 basechar 0
AnchorPoint: "Anchor-0" 286 0 basechar 0
LayerCount: 2
Fore
SplineSet
41 0 m 1
 155 536 l 1
 216 536 l 1
 216 479 l 1
 221 479 l 1
 255 529 289 546 331 546 c 0
 383 546 403 521 409 472 c 1
 412 472 l 1
 444 521 481 546 533 546 c 0
 588 546 613 519 613 458 c 0
 613 434 608 404 601 369 c 2
 523 0 l 1
 444 0 l 1
 520 356 l 2
 526 384 530 408 530 426 c 0
 530 455 520 470 493 470 c 0
 442 470 408 405 385 295 c 2
 322 0 l 1
 242 0 l 1
 318 356 l 2
 324 382 327 404 327 422 c 0
 327 453 316 470 288 470 c 0
 234 470 204 393 182 291 c 2
 120 0 l 1
 41 0 l 1
EndSplineSet
Validated: 1048577
Substitution2: "'smcp' Lowercase to Small Capitals lookup 35 subtable" m.sc
Substitution2: "'subs' Subscript lookup 22 subtable" uni2098
AlternateSubs2: "'aalt' Access All Alternates lookup 1 subtable" m.sc uni2098
EndChar

StartChar: n
Encoding: 110 110 81
Width: 563
GlyphClass: 2
Flags: HW
AnchorPoint: "Anchor-2" 657 536 basechar 0
AnchorPoint: "Anchor-1" 407 536 basechar 0
AnchorPoint: "Anchor-0" 287 0 basechar 0
LayerCount: 2
Fore
SplineSet
73 0 m 1
 187 536 l 1
 257 536 l 1
 253 460 l 1
 258 460 l 1
 301 519 366 546 439 546 c 0
 526 546 579 506 579 418 c 0
 579 399 576 378 571 355 c 2
 496 0 l 1
 409 0 l 1
 482 343 l 2
 486 362 488 378 488 393 c 0
 488 447 461 473 402 473 c 0
 303 473 246 401 219 276 c 2
 160 0 l 1
 73 0 l 1
EndSplineSet
Validated: 1048577
Substitution2: "'smcp' Lowercase to Small Capitals lookup 35 subtable" n.sc
Substitution2: "'sups' Superscript lookup 23 subtable" uni207F
Substitution2: "'subs' Subscript lookup 22 subtable" uni2099
AlternateSubs2: "'aalt' Access All Alternates lookup 1 subtable" uni207F n.sc uni2099
EndChar

StartChar: o
Encoding: 111 111 82
Width: 563
GlyphClass: 2
Flags: HW
AnchorPoint: "Anchor-3" 339 268 basechar 0
AnchorPoint: "Anchor-2" 657 536 basechar 0
AnchorPoint: "Anchor-1" 396 536 basechar 0
AnchorPoint: "Anchor-0" 282 0 basechar 0
LayerCount: 2
Fore
SplineSet
281 -10 m 0
 168 -10 97 54 97 180 c 0
 97 207 100 237 107 270 c 0
 146 452 259 546 396 546 c 0
 508 546 581 482 581 356 c 0
 581 329 578 299 571 267 c 0
 532 85 417 -10 281 -10 c 0
295 62 m 0
 390 62 454 138 482 269 c 0
 488 299 492 325 492 349 c 0
 492 429 455 474 382 474 c 0
 287 474 222 400 194 269 c 0
 188 239 185 212 185 188 c 0
 185 107 221 62 295 62 c 0
EndSplineSet
Validated: 1
Substitution2: "'smcp' Lowercase to Small Capitals lookup 35 subtable" o.sc
Substitution2: "Single Substitution lookup 32 subtable" ordmasculine
AlternateSubs2: "'aalt' Access All Alternates lookup 1 subtable" ordmasculine o.sc
EndChar

StartChar: p
Encoding: 112 112 83
Width: 563
GlyphClass: 2
Flags: HW
AnchorPoint: "Anchor-2" 657 536 basechar 0
AnchorPoint: "Anchor-1" 413 536 basechar 0
AnchorPoint: "Anchor-0" 248 -240 basechar 0
LayerCount: 2
Fore
SplineSet
22 -240 m 1
 187 536 l 1
 258 536 l 1
 253 463 l 1
 257 463 l 1
 298 513 353 546 428 546 c 0
 526 546 583 486 583 370 c 0
 583 340 579 306 571 269 c 0
 532 86 432 -10 309 -10 c 0
 236 -10 196 27 174 69 c 1
 168 69 l 1
 167 46 163 15 157 -11 c 2
 108 -240 l 1
 22 -240 l 1
305 63 m 0
 395 63 453 133 482 271 c 0
 489 305 493 335 493 361 c 0
 493 436 461 473 392 473 c 0
 299 473 245 407 220 289 c 2
 216 269 l 2
 209 234 205 204 205 177 c 0
 205 105 234 63 305 63 c 0
EndSplineSet
Validated: 1048577
Substitution2: "'smcp' Lowercase to Small Capitals lookup 35 subtable" p.sc
Substitution2: "'subs' Subscript lookup 22 subtable" uni209A
AlternateSubs2: "'aalt' Access All Alternates lookup 1 subtable" p.sc uni209A
EndChar

StartChar: q
Encoding: 113 113 84
Width: 563
GlyphClass: 2
Flags: HW
AnchorPoint: "Anchor-2" 657 536 basechar 0
AnchorPoint: "Anchor-1" 379 536 basechar 0
AnchorPoint: "Anchor-0" 214 -240 basechar 0
LayerCount: 2
Fore
SplineSet
402 -11 m 2
 408 16 415 43 423 72 c 1
 419 72 l 1
 381 27 329 -10 256 -10 c 0
 156 -10 95 51 95 169 c 0
 95 198 99 231 107 267 c 0
 146 450 250 546 375 546 c 0
 448 546 484 509 504 464 c 1
 508 464 l 1
 535 536 l 1
 605 536 l 1
 440 -240 l 1
 353 -240 l 1
 402 -11 l 2
288 63 m 0
 376 63 433 130 458 247 c 2
 462 267 l 2
 469 302 473 333 473 360 c 0
 473 432 445 473 375 473 c 0
 284 473 225 401 196 266 c 0
 190 236 186 208 186 184 c 0
 186 107 219 63 288 63 c 0
EndSplineSet
Validated: 1048577
Substitution2: "'smcp' Lowercase to Small Capitals lookup 35 subtable" q.sc
Substitution2: "'aalt' Access All Alternates lookup 0 subtable" q.sc
EndChar

StartChar: r
Encoding: 114 114 85
Width: 563
GlyphClass: 2
Flags: HW
AnchorPoint: "Anchor-2" 657 536 basechar 0
AnchorPoint: "Anchor-1" 425 536 basechar 0
AnchorPoint: "Anchor-0" 246 0 basechar 0
LayerCount: 2
Fore
SplineSet
53 0 m 1
 66 60 l 1
 217 73 l 1
 299 462 l 1
 166 475 l 1
 179 536 l 1
 385 536 l 1
 375 439 l 1
 379 439 l 1
 426 507 478 546 552 546 c 0
 590 546 621 539 647 526 c 1
 606 446 l 1
 587 458 559 465 531 465 c 0
 445 465 369 377 346 268 c 2
 305 73 l 1
 447 60 l 1
 434 0 l 1
 53 0 l 1
EndSplineSet
Validated: 1048577
Substitution2: "'smcp' Lowercase to Small Capitals lookup 35 subtable" r.sc
Substitution2: "'aalt' Access All Alternates lookup 0 subtable" r.sc
EndChar

StartChar: s
Encoding: 115 115 86
Width: 563
GlyphClass: 2
Flags: HW
AnchorPoint: "Anchor-2" 657 536 basechar 0
AnchorPoint: "Anchor-1" 401 536 basechar 0
AnchorPoint: "Anchor-0" 287 0 basechar 0
LayerCount: 2
Fore
SplineSet
260 -10 m 0
 194 -10 137 2 100 24 c 1
 117 105 l 1
 157 83 208 63 280 63 c 0
 367 63 403 93 414 143 c 0
 415 149 416 154 416 159 c 0
 416 188 392 203 313 243 c 0
 237 281 186 310 186 373 c 0
 186 383 188 393 190 404 c 0
 210 498 293 546 418 546 c 0
 475 546 520 536 570 512 c 1
 528 443 l 1
 481 466 444 473 402 473 c 0
 326 473 284 450 275 406 c 0
 274 401 274 397 274 393 c 0
 274 359 307 341 381 304 c 0
 457 267 506 243 506 179 c 0
 506 169 505 157 502 145 c 0
 481 44 398 -10 260 -10 c 0
EndSplineSet
Validated: 1048577
Substitution2: "'smcp' Lowercase to Small Capitals lookup 35 subtable" s.sc
Substitution2: "'subs' Subscript lookup 22 subtable" uni209B
AlternateSubs2: "'aalt' Access All Alternates lookup 1 subtable" s.sc uni209B
EndChar

StartChar: t
Encoding: 116 116 87
Width: 563
GlyphClass: 2
Flags: HW
AnchorPoint: "Anchor-3" 303 276 basechar 0
AnchorPoint: "Anchor-2" 644 849 basechar 0
AnchorPoint: "Anchor-1" 395 679 basechar 0
AnchorPoint: "Anchor-0" 355 0 basechar 0
LayerCount: 2
Fore
SplineSet
378 -10 m 0
 288 -10 223 17 223 105 c 0
 223 120 225 137 229 156 c 2
 294 462 l 1
 152 462 l 1
 165 520 l 1
 312 539 l 1
 363 679 l 1
 428 679 l 1
 398 536 l 1
 594 536 l 1
 578 462 l 1
 381 462 l 1
 320 172 l 2
 317 157 315 144 315 132 c 0
 315 84 342 63 402 63 c 0
 433 63 473 70 506 78 c 1
 490 5 l 1
 457 -3 417 -10 378 -10 c 0
EndSplineSet
Validated: 1
Substitution2: "'smcp' Lowercase to Small Capitals lookup 35 subtable" t.sc
Substitution2: "'subs' Subscript lookup 22 subtable" uni209C
AlternateSubs2: "'aalt' Access All Alternates lookup 1 subtable" t.sc uni209C
EndChar

StartChar: u
Encoding: 117 117 88
Width: 563
GlyphClass: 2
Flags: HW
AnchorPoint: "Anchor-2" 657 536 basechar 0
AnchorPoint: "Anchor-1" 396 536 basechar 0
AnchorPoint: "Anchor-0" 282 0 basechar 0
LayerCount: 2
Fore
SplineSet
241 -10 m 0
 146 -10 98 31 98 114 c 0
 98 133 101 154 106 177 c 2
 182 536 l 1
 269 536 l 1
 196 192 l 2
 192 173 190 156 190 141 c 0
 190 87 217 63 280 63 c 0
 380 63 433 135 459 259 c 2
 518 536 l 1
 605 536 l 1
 491 0 l 1
 420 0 l 1
 422 72 l 1
 417 72 l 1
 370 13 312 -10 241 -10 c 0
EndSplineSet
Validated: 1048577
Substitution2: "'smcp' Lowercase to Small Capitals lookup 35 subtable" u.sc
Substitution2: "'aalt' Access All Alternates lookup 0 subtable" u.sc
EndChar

StartChar: v
Encoding: 118 118 89
Width: 563
GlyphClass: 2
Flags: HW
AnchorPoint: "Anchor-2" 657 536 basechar 0
AnchorPoint: "Anchor-1" 396 536 basechar 0
AnchorPoint: "Anchor-0" 282 0 basechar 0
LayerCount: 2
Fore
SplineSet
227 0 m 1
 154 536 l 1
 241 536 l 1
 280 220 l 2
 285 177 292 124 296 73 c 1
 299 73 l 1
 325 124 355 177 378 220 c 2
 548 536 l 1
 637 536 l 1
 333 0 l 1
 227 0 l 1
EndSplineSet
Validated: 1048577
Substitution2: "'smcp' Lowercase to Small Capitals lookup 35 subtable" v.sc
Substitution2: "'aalt' Access All Alternates lookup 0 subtable" v.sc
EndChar

StartChar: w
Encoding: 119 119 90
Width: 563
GlyphClass: 2
Flags: HW
AnchorPoint: "Anchor-2" 657 536 basechar 0
AnchorPoint: "Anchor-1" 397 536 basechar 0
AnchorPoint: "Anchor-0" 283 0 basechar 0
LayerCount: 2
Fore
SplineSet
94 0 m 1
 128 536 l 1
 208 536 l 1
 188 267 l 2
 183 199 173 139 163 73 c 1
 166 73 l 1
 178 108 211 196 237 250 c 2
 326 439 l 1
 422 439 l 1
 429 250 l 2
 430 229 431 204 431 179 c 0
 431 138 430 96 428 73 c 1
 431 73 l 1
 449 136 465 196 490 267 c 2
 586 536 l 1
 664 536 l 1
 468 0 l 1
 362 0 l 1
 359 194 l 2
 358 230 357 266 357 303 c 0
 357 321 357 340 358 358 c 1
 355 358 l 1
 335 304 307 247 284 193 c 2
 197 0 l 1
 94 0 l 1
EndSplineSet
Validated: 1048577
Substitution2: "'smcp' Lowercase to Small Capitals lookup 35 subtable" w.sc
Substitution2: "'aalt' Access All Alternates lookup 0 subtable" w.sc
EndChar

StartChar: x
Encoding: 120 120 91
Width: 563
GlyphClass: 2
Flags: HW
AnchorPoint: "Anchor-2" 657 536 basechar 0
AnchorPoint: "Anchor-1" 396 536 basechar 0
AnchorPoint: "Anchor-0" 282 0 basechar 0
LayerCount: 2
Fore
SplineSet
40 0 m 1
 288 274 l 1
 163 536 l 1
 262 536 l 1
 352 335 l 1
 530 536 l 1
 629 536 l 1
 389 273 l 1
 523 0 l 1
 424 0 l 1
 327 213 l 1
 139 0 l 1
 40 0 l 1
EndSplineSet
Validated: 1048577
Substitution2: "'smcp' Lowercase to Small Capitals lookup 35 subtable" x.sc
Substitution2: "'aalt' Access All Alternates lookup 0 subtable" x.sc
EndChar

StartChar: y
Encoding: 121 121 92
Width: 563
GlyphClass: 2
Flags: HW
AnchorPoint: "Anchor-2" 657 536 basechar 0
AnchorPoint: "Anchor-1" 396 536 basechar 0
AnchorPoint: "Anchor-0" 230 -245 basechar 0
LayerCount: 2
Fore
SplineSet
74 -245 m 0
 49 -245 26 -241 7 -237 c 1
 21 -168 l 1
 36 -171 59 -174 79 -174 c 0
 135 -174 166 -147 206 -78 c 2
 250 -5 l 1
 154 536 l 1
 240 536 l 1
 292 222 l 2
 299 177 305 124 307 79 c 1
 310 79 l 1
 331 125 359 181 381 223 c 2
 547 536 l 1
 637 536 l 1
 295 -70 l 2
 236 -174 179 -245 74 -245 c 0
EndSplineSet
Validated: 1048577
Substitution2: "'smcp' Lowercase to Small Capitals lookup 35 subtable" y.sc
Substitution2: "'aalt' Access All Alternates lookup 0 subtable" y.sc
EndChar

StartChar: z
Encoding: 122 122 93
Width: 563
GlyphClass: 2
Flags: HW
AnchorPoint: "Anchor-2" 657 536 basechar 0
AnchorPoint: "Anchor-1" 404 536 basechar 0
AnchorPoint: "Anchor-0" 290 0 basechar 0
LayerCount: 2
Fore
SplineSet
81 0 m 1
 94 61 l 1
 480 466 l 1
 195 466 l 1
 210 536 l 1
 589 536 l 1
 574 465 l 1
 199 75 l 1
 499 75 l 1
 483 0 l 1
 81 0 l 1
EndSplineSet
Validated: 1048577
Substitution2: "'smcp' Lowercase to Small Capitals lookup 35 subtable" z.sc
Substitution2: "'aalt' Access All Alternates lookup 0 subtable" z.sc
EndChar

StartChar: braceleft
Encoding: 123 123 94
Width: 563
Flags: HW
LayerCount: 2
Fore
SplineSet
400 -159 m 1
 296 -158 239 -121 239 -43 c 0
 239 -30 241 -15 244 0 c 2
 275 148 l 2
 277 159 279 169 279 178 c 0
 279 224 247 244 181 244 c 1
 196 313 l 1
 272 313 316 338 331 408 c 2
 362 557 l 2
 384 662 466 714 586 715 c 1
 571 645 l 1
 503 643 459 617 445 551 c 2
 414 404 l 2
 399 334 359 294 285 281 c 1
 284 276 l 1
 340 266 365 237 365 190 c 0
 365 179 364 166 361 153 c 2
 329 5 l 2
 327 -6 326 -15 326 -24 c 0
 326 -69 356 -88 415 -89 c 1
 400 -159 l 1
EndSplineSet
Validated: 1
Substitution2: "'smcp' Lowercase to Small Capitals lookup 35 subtable" braceleft.sc
Substitution2: "'c2sc' Capitals to Small Capitals lookup 34 subtable" braceleft.sc
Substitution2: "'aalt' Access All Alternates lookup 0 subtable" braceleft.sc
EndChar

StartChar: bar
Encoding: 124 124 95
Width: 563
Flags: HW
LayerCount: 2
Fore
SplineSet
194 -240 m 1
 407 760 l 1
 481 760 l 1
 268 -240 l 1
 194 -240 l 1
EndSplineSet
Validated: 1
EndChar

StartChar: braceright
Encoding: 125 125 96
Width: 563
Flags: HW
LayerCount: 2
Fore
SplineSet
277 715 m 1
 382 714 439 677 439 599 c 0
 439 586 437 571 434 556 c 2
 403 408 l 2
 401 397 399 387 399 378 c 0
 399 332 431 312 496 312 c 1
 482 243 l 1
 407 243 362 218 347 148 c 2
 316 -1 l 2
 294 -106 211 -158 91 -159 c 1
 106 -89 l 1
 174 -87 219 -61 233 5 c 2
 264 152 l 2
 279 222 319 262 393 275 c 1
 395 280 l 1
 339 290 313 319 313 366 c 0
 313 377 315 390 318 403 c 2
 349 551 l 2
 351 562 352 571 352 580 c 0
 352 625 322 644 262 645 c 1
 277 715 l 1
EndSplineSet
Validated: 1
Substitution2: "'smcp' Lowercase to Small Capitals lookup 35 subtable" braceright.sc
Substitution2: "'c2sc' Capitals to Small Capitals lookup 34 subtable" braceright.sc
Substitution2: "'aalt' Access All Alternates lookup 0 subtable" braceright.sc
EndChar

StartChar: asciitilde
Encoding: 126 126 97
Width: 563
Flags: HW
LayerCount: 2
Fore
SplineSet
132 288 m 1
 156 368 196 463 284 463 c 0
 327 463 352 440 386 397 c 0
 407 368 426 346 451 346 c 0
 486 346 508 386 532 463 c 1
 589 463 l 1
 566 389 524 288 439 288 c 0
 398 288 371 308 340 352 c 0
 317 384 300 405 273 405 c 0
 237 405 213 367 189 288 c 1
 132 288 l 1
EndSplineSet
Validated: 1
EndChar

StartChar: exclamdown
Encoding: 161 161 99
Width: 563
Flags: HW
LayerCount: 2
Fore
SplineSet
397 540 m 0
 426 540 445 526 445 494 c 0
 445 487 444 480 442 472 c 0
 432 424 403 405 368 405 c 0
 340 405 319 417 319 450 c 0
 319 456 319 464 321 472 c 0
 331 519 363 540 397 540 c 0
388 327 m 1
 296 -185 l 1
 189 -185 l 1
 314 327 l 1
 388 327 l 1
EndSplineSet
Validated: 1
Substitution2: "'smcp' Lowercase to Small Capitals lookup 35 subtable" exclamdown.sc
Substitution2: "'c2sc' Capitals to Small Capitals lookup 34 subtable" exclamdown.sc
Substitution2: "'aalt' Access All Alternates lookup 0 subtable" exclamdown.sc
EndChar

StartChar: cent
Encoding: 162 162 100
Width: 563
Flags: HW
LayerCount: 2
Fore
SplineSet
304 90 m 1
 208 103 154 159 154 267 c 0
 154 295 157 326 165 362 c 0
 201 532 294 623 421 640 c 1
 439 724 l 1
 502 724 l 1
 485 644 l 1
 533 642 580 631 607 616 c 1
 566 546 l 1
 536 559 497 570 457 570 c 0
 346 570 282 502 252 363 c 0
 246 333 243 306 243 283 c 0
 243 200 284 162 367 162 c 0
 418 162 468 174 509 191 c 1
 493 116 l 1
 460 100 415 90 366 88 c 1
 345 -10 l 1
 283 -10 l 1
 304 90 l 1
EndSplineSet
Validated: 1
EndChar

StartChar: sterling
Encoding: 163 163 101
Width: 563
Flags: HW
LayerCount: 2
Fore
SplineSet
100 73 m 1
 154 89 195 131 213 214 c 2
 236 322 l 1
 153 322 l 1
 167 388 l 1
 250 388 l 1
 282 538 l 2
 307 656 390 723 504 723 c 0
 560 723 600 709 636 682 c 1
 591 615 l 1
 559 638 529 648 495 648 c 0
 425 648 385 614 367 529 c 2
 337 388 l 1
 501 388 l 1
 487 322 l 1
 323 322 l 1
 301 215 l 2
 289 157 250 102 210 79 c 1
 515 79 l 1
 498 0 l 1
 84 0 l 1
 100 73 l 1
EndSplineSet
Validated: 1
EndChar

StartChar: currency
Encoding: 164 164 102
Width: 563
Flags: HW
LayerCount: 2
Fore
SplineSet
437 196 m 1
 399 174 358 161 316 161 c 0
 273 161 236 174 210 197 c 1
 130 132 l 1
 94 178 l 1
 173 244 l 1
 162 266 156 290 156 316 c 0
 156 329 158 343 161 357 c 0
 170 398 191 438 221 470 c 1
 169 538 l 1
 226 583 l 1
 278 518 l 1
 315 541 357 555 400 555 c 0
 442 555 477 542 505 518 c 1
 586 583 l 1
 622 538 l 1
 543 471 l 1
 553 449 560 423 560 395 c 0
 560 383 559 370 556 357 c 0
 547 315 525 276 495 243 c 1
 545 177 l 1
 490 131 l 1
 437 196 l 1
330 226 m 0
 407 226 471 279 488 358 c 0
 490 370 492 381 492 391 c 0
 492 452 450 491 387 491 c 0
 312 491 244 437 227 357 c 0
 225 346 223 336 223 326 c 0
 223 265 266 226 330 226 c 0
EndSplineSet
Validated: 1
EndChar

StartChar: yen
Encoding: 165 165 103
Width: 563
Flags: HW
LayerCount: 2
Fore
SplineSet
238 0 m 1
 265 129 l 1
 134 129 l 1
 148 192 l 1
 279 192 l 1
 296 275 l 1
 165 275 l 1
 179 337 l 1
 286 337 l 1
 195 714 l 1
 286 714 l 1
 360 370 l 1
 582 714 l 1
 672 714 l 1
 419 337 l 1
 530 337 l 1
 516 275 l 1
 382 275 l 1
 365 192 l 1
 499 192 l 1
 485 129 l 1
 351 129 l 1
 324 0 l 1
 238 0 l 1
EndSplineSet
Validated: 1
EndChar

StartChar: brokenbar
Encoding: 166 166 104
Width: 563
Flags: HW
LayerCount: 2
Fore
SplineSet
324 375 m 1
 406 760 l 1
 480 760 l 1
 398 375 l 1
 324 375 l 1
193 -240 m 1
 275 146 l 1
 349 146 l 1
 267 -240 l 1
 193 -240 l 1
EndSplineSet
Validated: 1
EndChar

StartChar: section
Encoding: 167 167 105
Width: 563
Flags: HW
LayerCount: 2
Fore
SplineSet
251 -10 m 0
 187 -10 138 2 104 23 c 1
 119 96 l 1
 152 74 210 53 267 53 c 0
 347 53 393 84 402 128 c 0
 403 134 404 139 404 145 c 0
 404 180 377 203 308 236 c 0
 232 274 188 305 188 363 c 0
 188 372 190 382 192 393 c 0
 206 457 253 498 303 518 c 1
 271 540 253 568 253 606 c 0
 253 616 254 626 256 637 c 0
 273 718 351 765 465 765 c 0
 527 765 566 753 606 733 c 1
 567 672 l 1
 531 692 500 702 448 702 c 0
 379 702 343 678 335 639 c 0
 334 634 333 629 333 625 c 0
 333 592 362 568 425 539 c 0
 494 507 547 474 547 410 c 0
 547 401 546 392 544 382 c 0
 530 317 485 272 438 250 c 1
 469 225 486 198 486 162 c 0
 486 153 484 143 482 133 c 0
 463 43 376 -10 251 -10 c 0
389 280 m 1
 427 297 460 327 469 369 c 0
 470 376 472 382 472 388 c 0
 472 426 442 453 355 488 c 1
 312 477 273 444 264 404 c 0
 263 398 262 392 262 387 c 0
 262 346 299 323 364 293 c 1
 389 280 l 1
EndSplineSet
Validated: 1
EndChar

StartChar: dieresis
Encoding: 168 168 106
Width: 563
GlyphClass: 2
Flags: HW
AnchorPoint: "Anchor-1" 419 646 basechar 0
LayerCount: 2
Fore
SplineSet
521 623 m 0
 497 623 479 636 479 665 c 0
 479 670 480 676 481 683 c 0
 490 724 518 741 547 741 c 0
 572 741 590 729 590 700 c 0
 590 695 589 689 588 683 c 0
 579 642 550 623 521 623 c 0
307 623 m 0
 283 623 265 636 265 665 c 0
 265 670 266 676 267 683 c 0
 276 724 304 741 333 741 c 0
 357 741 375 729 375 700 c 0
 375 695 374 689 373 683 c 0
 364 642 335 623 307 623 c 0
EndSplineSet
Validated: 1048577
EndChar

StartChar: copyright
Encoding: 169 169 107
Width: 563
Flags: HW
LayerCount: 2
Fore
SplineSet
306 114 m 0
 176 114 105 186 105 296 c 0
 105 316 107 337 112 359 c 0
 143 506 262 606 412 606 c 0
 540 606 612 533 612 423 c 0
 612 403 610 383 605 361 c 0
 574 213 453 114 306 114 c 0
316 159 m 0
 432 159 528 234 554 358 c 0
 558 377 560 395 560 411 c 0
 560 503 500 559 400 559 c 0
 283 559 188 484 162 361 c 0
 158 342 156 325 156 308 c 0
 156 216 215 159 316 159 c 0
337 206 m 0
 261 206 226 247 226 310 c 0
 226 324 229 340 232 356 c 0
 252 448 314 513 401 513 c 0
 431 513 460 505 482 493 c 1
 451 447 l 1
 432 459 412 464 393 464 c 0
 340 464 302 427 287 356 c 0
 284 342 282 329 282 318 c 0
 282 276 303 253 346 253 c 0
 368 253 396 259 421 268 c 1
 411 221 l 1
 388 212 365 206 337 206 c 0
EndSplineSet
Validated: 1
EndChar

StartChar: ordfeminine
Encoding: 170 170 108
Width: 563
GlyphClass: 2
Flags: HW
AnchorPoint: "Anchor-1" 427 722 basechar 0
AnchorPoint: "Anchor-0" 352 388 basechar 0
LayerCount: 2
Fore
SplineSet
322 383 m 0
 269 383 237 408 237 454 c 0
 237 462 238 471 240 480 c 0
 255 549 311 583 416 588 c 2
 468 591 l 1
 472 612 l 2
 473 618 474 624 474 629 c 0
 474 659 451 670 415 670 c 0
 383 670 350 660 319 646 c 1
 309 694 l 1
 346 711 387 722 432 722 c 0
 501 722 537 697 537 643 c 0
 537 633 536 621 533 609 c 2
 487 389 l 1
 441 389 l 1
 439 432 l 1
 406 401 369 383 322 383 c 0
351 435 m 0
 406 435 442 468 453 520 c 2
 458 544 l 1
 415 542 l 2
 342 538 313 521 305 483 c 0
 304 478 303 473 303 469 c 0
 303 445 320 435 351 435 c 0
EndSplineSet
Validated: 1048577
EndChar

StartChar: guillemotleft
Encoding: 171 171 109
Width: 563
Flags: HW
LayerCount: 2
Fore
SplineSet
442 56 m 1
 324 257 l 1
 326 270 l 1
 530 472 l 1
 579 435 l 1
 418 264 l 1
 507 93 l 1
 442 56 l 1
248 57 m 1
 132 257 l 1
 134 270 l 1
 336 472 l 1
 386 433 l 1
 225 264 l 1
 313 93 l 1
 248 57 l 1
EndSplineSet
Validated: 1
EndChar

StartChar: logicalnot
Encoding: 172 172 110
Width: 563
Flags: HW
LayerCount: 2
Fore
SplineSet
441 125 m 1
 482 318 l 1
 141 318 l 1
 155 388 l 1
 566 388 l 1
 511 125 l 1
 441 125 l 1
EndSplineSet
Validated: 1
EndChar

StartChar: uni00AD
Encoding: 173 173 111
Width: 563
Flags: HW
LayerCount: 2
Fore
SplineSet
189 231 m 1
 206 310 l 1
 489 310 l 1
 472 231 l 1
 189 231 l 1
EndSplineSet
Validated: 1
EndChar

StartChar: registered
Encoding: 174 174 112
Width: 563
Flags: HW
LayerCount: 2
Fore
SplineSet
306 114 m 0
 176 114 105 186 105 296 c 0
 105 316 107 337 112 359 c 0
 143 506 262 606 412 606 c 0
 540 606 612 533 612 423 c 0
 612 403 610 383 605 361 c 0
 574 213 453 114 306 114 c 0
316 159 m 0
 432 159 528 234 554 358 c 0
 558 377 560 395 560 411 c 0
 560 503 500 559 400 559 c 0
 283 559 188 484 162 361 c 0
 158 342 156 325 156 308 c 0
 156 216 215 159 316 159 c 0
236 212 m 1
 300 511 l 1
 384 511 l 2
 446 511 475 486 475 445 c 0
 475 438 475 431 473 423 c 0
 463 374 429 349 401 338 c 1
 453 212 l 1
 393 212 l 1
 351 326 l 1
 309 326 l 1
 285 212 l 1
 236 212 l 1
352 369 m 2
 387 369 414 385 421 419 c 0
 422 424 423 428 423 432 c 0
 423 455 406 466 372 466 c 2
 339 466 l 1
 318 369 l 1
 352 369 l 2
EndSplineSet
Validated: 1
EndChar

StartChar: overscore
Encoding: 175 175 113
Width: 563
Flags: HW
LayerCount: 2
Fore
SplineSet
276 624 m 1
 290 692 l 1
 567 692 l 1
 553 624 l 1
 276 624 l 1
EndSplineSet
Validated: 1
EndChar

StartChar: degree
Encoding: 176 176 114
Width: 563
Flags: HW
LayerCount: 2
Fore
SplineSet
374 433 m 0
 300 433 256 477 256 543 c 0
 256 554 257 566 260 578 c 0
 278 663 354 724 436 724 c 0
 505 724 552 678 552 611 c 0
 552 600 551 590 549 578 c 0
 531 493 457 433 374 433 c 0
387 490 m 0
 435 490 479 523 491 578 c 0
 493 586 493 594 493 601 c 0
 493 642 466 667 425 667 c 0
 374 667 330 633 318 578 c 0
 316 571 316 564 316 557 c 0
 316 515 346 490 387 490 c 0
EndSplineSet
Validated: 1
EndChar

StartChar: plusminus
Encoding: 177 177 115
Width: 563
Flags: HW
LayerCount: 2
Fore
SplineSet
272 129 m 1
 314 326 l 1
 141 326 l 1
 156 396 l 1
 329 396 l 1
 371 595 l 1
 442 595 l 1
 400 396 l 1
 572 396 l 1
 557 326 l 1
 385 326 l 1
 343 129 l 1
 272 129 l 1
75 0 m 1
 90 70 l 1
 503 70 l 1
 488 0 l 1
 75 0 l 1
EndSplineSet
Validated: 1
EndChar

StartChar: uni00B2
Encoding: 178 178 116
Width: 563
Flags: HW
LayerCount: 2
Fore
SplineSet
232 416 m 1
 244 470 l 1
 374 581 l 2
 465 658 497 685 507 732 c 0
 508 738 508 743 508 748 c 0
 508 778 487 795 449 795 c 0
 413 795 379 779 342 752 c 1
 317 798 l 1
 360 831 409 853 464 853 c 0
 537 853 579 819 579 764 c 0
 579 755 577 746 575 736 c 0
 561 668 513 630 414 547 c 2
 328 476 l 1
 533 476 l 1
 520 416 l 1
 232 416 l 1
EndSplineSet
Validated: 1
EndChar

StartChar: uni00B3
Encoding: 179 179 117
Width: 563
Flags: HW
LayerCount: 2
Fore
SplineSet
349 408 m 0
 307 408 271 416 238 434 c 1
 252 498 l 1
 288 477 324 466 363 466 c 0
 424 466 458 494 467 538 c 0
 468 544 469 550 469 555 c 0
 469 592 438 609 381 609 c 2
 333 609 l 1
 345 664 l 1
 393 664 l 2
 453 664 488 693 497 735 c 0
 498 741 499 746 499 751 c 0
 499 781 477 795 442 795 c 0
 410 795 377 781 341 758 c 1
 317 804 l 1
 362 835 404 853 458 853 c 0
 531 853 571 820 571 768 c 0
 571 760 570 751 568 742 c 0
 557 691 521 656 480 641 c 1
 480 638 l 1
 518 628 540 603 540 563 c 0
 540 554 539 545 537 535 c 0
 521 458 453 408 349 408 c 0
EndSplineSet
Validated: 1
EndChar

StartChar: acute
Encoding: 180 180 118
Width: 563
Flags: HW
LayerCount: 2
Fore
SplineSet
366 618 m 1
 408 661 459 721 491 766 c 1
 594 766 l 1
 592 756 l 1
 559 718 473 642 420 606 c 1
 364 606 l 1
 366 618 l 1
EndSplineSet
Validated: 1
EndChar

StartChar: uni00B5
Encoding: 181 181 119
Width: 563
GlyphClass: 2
Flags: HW
AnchorPoint: "Anchor-2" 657 536 basechar 0
AnchorPoint: "Anchor-1" 396 536 basechar 0
AnchorPoint: "Anchor-0" 282 0 basechar 0
LayerCount: 2
Fore
SplineSet
241 -10 m 0
 207 -10 178 -5 156 6 c 1
 104 -240 l 1
 17 -240 l 1
 182 536 l 1
 269 536 l 1
 196 192 l 2
 192 173 190 156 190 141 c 0
 190 87 217 63 280 63 c 0
 380 63 433 135 459 259 c 2
 518 536 l 1
 605 536 l 1
 491 0 l 1
 420 0 l 1
 422 72 l 1
 417 72 l 1
 370 13 312 -10 241 -10 c 0
EndSplineSet
Validated: 1048577
EndChar

StartChar: paragraph
Encoding: 182 182 120
Width: 563
Flags: HW
LayerCount: 2
Fore
SplineSet
342 273 m 1
 323 267 297 264 274 264 c 0
 195 264 149 304 149 403 c 0
 149 433 153 468 162 509 c 0
 201 691 284 760 398 760 c 2
 650 760 l 1
 461 -127 l 1
 403 -127 l 1
 580 704 l 1
 492 704 l 1
 315 -127 l 1
 257 -127 l 1
 342 273 l 1
EndSplineSet
Validated: 1
EndChar

StartChar: periodcentered
Encoding: 183 183 121
Width: 563
Flags: HW
LayerCount: 2
Fore
SplineSet
339 271 m 0
 311 271 291 286 291 318 c 0
 291 324 291 331 293 339 c 0
 303 387 333 406 367 406 c 0
 395 406 417 394 417 361 c 0
 417 355 416 347 414 339 c 0
 404 292 373 271 339 271 c 0
EndSplineSet
Validated: 1
EndChar

StartChar: cedilla
Encoding: 184 184 122
Width: 563
Flags: HW
LayerCount: 2
Fore
SplineSet
186 -240 m 0
 166 -240 147 -238 136 -235 c 1
 148 -180 l 1
 159 -183 179 -185 196 -185 c 0
 241 -185 268 -171 275 -140 c 0
 276 -136 276 -133 276 -130 c 0
 276 -103 249 -90 202 -83 c 1
 260 3 l 1
 315 3 l 1
 278 -52 l 1
 320 -61 347 -81 347 -120 c 0
 347 -126 347 -133 345 -141 c 0
 332 -203 276 -240 186 -240 c 0
EndSplineSet
Validated: 1
EndChar

StartChar: uni00B9
Encoding: 185 185 123
Width: 563
Flags: HW
LayerCount: 2
Fore
SplineSet
253 416 m 1
 264 465 l 1
 364 471 l 1
 410 687 l 2
 417 719 424 745 432 774 c 1
 419 763 403 754 388 745 c 2
 321 708 l 1
 299 760 l 1
 446 844 l 1
 508 844 l 1
 429 470 l 1
 529 465 l 1
 518 416 l 1
 253 416 l 1
EndSplineSet
Validated: 1
EndChar

StartChar: ordmasculine
Encoding: 186 186 124
Width: 563
GlyphClass: 2
Flags: HW
AnchorPoint: "Anchor-1" 435 722 basechar 0
AnchorPoint: "Anchor-0" 363 384 basechar 0
LayerCount: 2
Fore
SplineSet
364 383 m 0
 293 383 253 422 253 496 c 0
 253 513 256 532 260 553 c 0
 283 661 349 722 438 722 c 0
 508 722 549 683 549 609 c 0
 549 592 547 574 543 553 c 0
 519 442 453 383 364 383 c 0
377 436 m 0
 432 436 463 474 480 553 c 0
 484 573 486 590 486 605 c 0
 486 649 466 669 426 669 c 0
 372 669 340 629 324 553 c 0
 320 533 317 515 317 500 c 0
 317 457 336 436 377 436 c 0
EndSplineSet
Validated: 1048577
EndChar

StartChar: guillemotright
Encoding: 187 187 125
Width: 563
Flags: HW
LayerCount: 2
Fore
SplineSet
235 473 m 1
 353 272 l 1
 350 259 l 1
 146 57 l 1
 97 94 l 1
 258 265 l 1
 170 436 l 1
 235 473 l 1
428 472 m 1
 545 272 l 1
 542 259 l 1
 340 57 l 1
 290 96 l 1
 451 265 l 1
 364 436 l 1
 428 472 l 1
EndSplineSet
Validated: 1
EndChar

StartChar: onequarter
Encoding: 188 188 126
Width: 563
Flags: HW
LayerCount: 2
Fore
SplineSet
75 0 m 1
 577 714 l 1
 651 714 l 1
 149 0 l 1
 75 0 l 1
108 367 m 1
 119 418 l 1
 192 424 l 1
 221 562 l 2
 228 596 235 619 242 647 c 1
 228 635 212 624 195 615 c 2
 164 599 l 1
 143 655 l 1
 254 714 l 1
 316 714 l 1
 254 424 l 1
 329 418 l 1
 318 367 l 1
 108 367 l 1
429 0 m 1
 446 78 l 1
 298 78 l 1
 309 130 l 1
 500 349 l 1
 564 349 l 1
 518 134 l 1
 566 134 l 1
 555 78 l 1
 507 78 l 1
 490 0 l 1
 429 0 l 1
375 134 m 1
 457 134 l 1
 473 208 l 2
 479 234 483 247 489 272 c 1
 481 259 466 242 453 226 c 2
 375 134 l 1
EndSplineSet
Validated: 1
EndChar

StartChar: onehalf
Encoding: 189 189 127
Width: 563
Flags: HW
LayerCount: 2
Fore
SplineSet
75 0 m 1
 577 714 l 1
 651 714 l 1
 149 0 l 1
 75 0 l 1
108 367 m 1
 119 418 l 1
 192 424 l 1
 221 562 l 2
 228 596 235 619 242 647 c 1
 228 635 212 624 195 615 c 2
 164 599 l 1
 143 655 l 1
 254 714 l 1
 316 714 l 1
 254 424 l 1
 329 418 l 1
 318 367 l 1
 108 367 l 1
312 0 m 1
 323 54 l 1
 423 138 l 2
 494 197 512 214 519 248 c 0
 520 253 520 258 520 262 c 0
 520 285 506 297 482 297 c 0
 455 297 432 283 404 263 c 1
 381 309 l 1
 416 336 453 355 496 355 c 0
 555 355 588 327 588 279 c 0
 588 271 587 262 585 252 c 0
 574 200 538 168 468 111 c 2
 407 62 l 1
 552 62 l 1
 539 0 l 1
 312 0 l 1
EndSplineSet
Validated: 1
EndChar

StartChar: threequarters
Encoding: 190 190 128
Width: 563
Flags: HW
LayerCount: 2
Fore
SplineSet
190 361 m 0
 158 361 131 366 107 380 c 1
 120 443 l 1
 149 427 176 418 204 418 c 0
 248 418 271 439 278 471 c 0
 279 475 279 478 279 482 c 0
 279 508 257 518 218 518 c 2
 174 518 l 1
 186 573 l 1
 230 573 l 2
 272 573 296 592 302 622 c 0
 303 626 304 630 304 634 c 0
 304 656 289 666 266 666 c 0
 242 666 216 654 188 637 c 1
 164 683 l 1
 201 707 235 723 280 723 c 0
 343 723 374 694 374 650 c 0
 374 643 373 635 371 627 c 0
 362 586 336 560 308 552 c 1
 308 549 l 1
 335 540 349 522 349 494 c 0
 349 487 348 479 346 471 c 0
 332 406 282 361 190 361 c 0
75 0 m 1
 577 714 l 1
 651 714 l 1
 149 0 l 1
 75 0 l 1
428 0 m 1
 445 78 l 1
 298 78 l 1
 309 130 l 1
 499 349 l 1
 564 349 l 1
 518 134 l 1
 566 134 l 1
 555 78 l 1
 507 78 l 1
 490 0 l 1
 428 0 l 1
375 134 m 1
 456 134 l 1
 472 208 l 2
 478 234 483 247 488 272 c 1
 480 259 466 242 453 226 c 2
 375 134 l 1
EndSplineSet
Validated: 1
EndChar

StartChar: questiondown
Encoding: 191 191 129
Width: 563
Flags: HW
LayerCount: 2
Fore
SplineSet
408 540 m 0
 437 540 457 525 457 493 c 0
 457 487 456 480 454 472 c 0
 444 424 414 405 379 405 c 0
 351 405 331 418 331 450 c 0
 331 457 331 464 333 472 c 0
 343 519 375 540 408 540 c 0
399 306 m 2
 383 232 353 190 274 136 c 0
 197 82 165 50 151 -18 c 0
 149 -26 148 -34 148 -42 c 0
 148 -88 182 -118 246 -118 c 0
 309 -118 360 -100 414 -76 c 1
 431 -148 l 1
 373 -174 311 -195 232 -195 c 0
 123 -195 62 -146 62 -64 c 0
 62 -51 63 -37 66 -22 c 0
 86 70 130 115 215 176 c 0
 297 233 315 258 327 315 c 2
 330 327 l 1
 404 327 l 1
 399 306 l 2
EndSplineSet
Validated: 1
Substitution2: "'smcp' Lowercase to Small Capitals lookup 35 subtable" questiondown.sc
Substitution2: "'c2sc' Capitals to Small Capitals lookup 34 subtable" questiondown.sc
Substitution2: "'aalt' Access All Alternates lookup 0 subtable" questiondown.sc
EndChar

StartChar: Agrave
Encoding: 192 192 130
Width: 563
GlyphClass: 2
Flags: HW
AnchorPoint: "Anchor-2" 695 714 basechar 0
AnchorPoint: "Anchor-1" 483 944 basechar 0
AnchorPoint: "Anchor-0" 282 0 basechar 0
LayerCount: 2
Fore
SplineSet
463 784 m 1
 427 819 372 895 356 934 c 1
 358 944 l 1
 460 944 l 1
 472 899 500 833 522 796 c 1
 520 784 l 1
 463 784 l 1
20 0 m 1
 383 716 l 1
 483 716 l 1
 543 0 l 1
 454 0 l 1
 439 222 l 1
 218 222 l 1
 109 0 l 1
 20 0 l 1
365 521 m 2
 256 300 l 1
 434 300 l 1
 419 521 l 2
 417 549 414 594 414 631 c 1
 399 594 378 548 365 521 c 2
EndSplineSet
Validated: 1048577
Substitution2: "'c2sc' Capitals to Small Capitals lookup 34 subtable" agrave.sc
Substitution2: "'aalt' Access All Alternates lookup 0 subtable" agrave.sc
EndChar

StartChar: Aacute
Encoding: 193 193 131
Width: 563
GlyphClass: 2
Flags: HW
AnchorPoint: "Anchor-2" 695 714 basechar 0
AnchorPoint: "Anchor-1" 483 944 basechar 0
AnchorPoint: "Anchor-0" 282 0 basechar 0
LayerCount: 2
Fore
SplineSet
405 796 m 1
 447 839 498 899 530 944 c 1
 633 944 l 1
 631 934 l 1
 598 896 512 820 459 784 c 1
 403 784 l 1
 405 796 l 1
20 0 m 1
 383 716 l 1
 483 716 l 1
 543 0 l 1
 454 0 l 1
 439 222 l 1
 218 222 l 1
 109 0 l 1
 20 0 l 1
365 521 m 2
 256 300 l 1
 434 300 l 1
 419 521 l 2
 417 549 414 594 414 631 c 1
 399 594 378 548 365 521 c 2
EndSplineSet
Validated: 1048577
Substitution2: "'c2sc' Capitals to Small Capitals lookup 34 subtable" aacute.sc
Substitution2: "'aalt' Access All Alternates lookup 0 subtable" aacute.sc
EndChar

StartChar: Acircumflex
Encoding: 194 194 132
Width: 563
GlyphClass: 2
Flags: HW
AnchorPoint: "Anchor-2" 695 714 basechar 0
AnchorPoint: "Anchor-1" 483 944 basechar 0
AnchorPoint: "Anchor-0" 282 0 basechar 0
LayerCount: 2
Fore
SplineSet
296 795 m 1
 341 837 407 900 439 944 c 1
 524 944 l 1
 537 899 579 835 606 795 c 1
 604 784 l 1
 548 784 l 1
 521 807 493 844 467 880 c 1
 425 844 384 806 348 784 c 1
 294 784 l 1
 296 795 l 1
20 0 m 1
 383 716 l 1
 483 716 l 1
 543 0 l 1
 454 0 l 1
 439 222 l 1
 218 222 l 1
 109 0 l 1
 20 0 l 1
365 521 m 2
 256 300 l 1
 434 300 l 1
 419 521 l 2
 417 549 414 594 414 631 c 1
 399 594 378 548 365 521 c 2
EndSplineSet
Validated: 1048577
Substitution2: "'c2sc' Capitals to Small Capitals lookup 34 subtable" acircumflex.sc
Substitution2: "'aalt' Access All Alternates lookup 0 subtable" acircumflex.sc
EndChar

StartChar: Atilde
Encoding: 195 195 133
Width: 563
GlyphClass: 2
Flags: HW
AnchorPoint: "Anchor-2" 695 714 basechar 0
AnchorPoint: "Anchor-1" 476 912 basechar 0
AnchorPoint: "Anchor-0" 282 0 basechar 0
LayerCount: 2
Fore
SplineSet
280 785 m 1
 304 858 347 911 408 911 c 0
 461 911 494 854 534 854 c 0
 562 854 577 874 594 912 c 1
 644 912 l 1
 620 834 574 786 518 786 c 0
 465 786 432 843 392 843 c 0
 363 843 347 823 331 785 c 1
 280 785 l 1
20 0 m 1
 383 716 l 1
 483 716 l 1
 543 0 l 1
 454 0 l 1
 439 222 l 1
 218 222 l 1
 109 0 l 1
 20 0 l 1
365 521 m 2
 256 300 l 1
 434 300 l 1
 419 521 l 2
 417 549 414 594 414 631 c 1
 399 594 378 548 365 521 c 2
EndSplineSet
Validated: 1048577
Substitution2: "'c2sc' Capitals to Small Capitals lookup 34 subtable" atilde.sc
Substitution2: "'aalt' Access All Alternates lookup 0 subtable" atilde.sc
EndChar

StartChar: Adieresis
Encoding: 196 196 134
Width: 563
GlyphClass: 2
Flags: HW
AnchorPoint: "Anchor-2" 695 714 basechar 0
AnchorPoint: "Anchor-1" 476 915 basechar 0
AnchorPoint: "Anchor-0" 282 0 basechar 0
LayerCount: 2
Fore
SplineSet
557 797 m 0
 533 797 515 810 515 839 c 0
 515 844 516 850 517 857 c 0
 526 898 553 915 582 915 c 0
 607 915 626 903 626 874 c 0
 626 869 625 863 624 857 c 0
 615 816 586 797 557 797 c 0
343 797 m 0
 319 797 301 810 301 839 c 0
 301 844 302 850 303 857 c 0
 312 898 339 915 368 915 c 0
 392 915 411 903 411 875 c 0
 411 870 410 864 409 857 c 0
 400 816 372 797 343 797 c 0
20 0 m 1
 383 716 l 1
 483 716 l 1
 543 0 l 1
 454 0 l 1
 439 222 l 1
 218 222 l 1
 109 0 l 1
 20 0 l 1
365 521 m 2
 256 300 l 1
 434 300 l 1
 419 521 l 2
 417 549 414 594 414 631 c 1
 399 594 378 548 365 521 c 2
EndSplineSet
Validated: 1048577
Substitution2: "'c2sc' Capitals to Small Capitals lookup 34 subtable" adieresis.sc
Substitution2: "'aalt' Access All Alternates lookup 0 subtable" adieresis.sc
EndChar

StartChar: Aring
Encoding: 197 197 135
Width: 563
GlyphClass: 2
Flags: HW
AnchorPoint: "Anchor-2" 695 714 basechar 0
AnchorPoint: "Anchor-1" 493 992 basechar 0
AnchorPoint: "Anchor-0" 282 0 basechar 0
LayerCount: 2
Fore
SplineSet
448 785 m 0
 393 785 360 814 360 862 c 0
 360 870 361 879 363 889 c 0
 377 953 427 992 492 992 c 0
 546 992 582 963 582 914 c 0
 582 906 581 898 579 890 c 0
 565 825 512 785 448 785 c 0
459 836 m 0
 491 836 517 856 524 889 c 0
 525 894 526 899 526 903 c 0
 526 928 509 943 481 943 c 0
 451 943 424 922 417 889 c 0
 416 884 415 879 415 875 c 0
 415 850 433 836 459 836 c 0
20 0 m 1
 383 716 l 1
 483 716 l 1
 543 0 l 1
 454 0 l 1
 439 222 l 1
 218 222 l 1
 109 0 l 1
 20 0 l 1
365 521 m 2
 256 300 l 1
 434 300 l 1
 419 521 l 2
 417 549 414 594 414 631 c 1
 399 594 378 548 365 521 c 2
EndSplineSet
Validated: 1048577
Substitution2: "'c2sc' Capitals to Small Capitals lookup 34 subtable" aring.sc
Substitution2: "'aalt' Access All Alternates lookup 0 subtable" aring.sc
EndChar

StartChar: AE
Encoding: 198 198 136
Width: 563
GlyphClass: 2
Flags: HW
AnchorPoint: "Anchor-1" 465 714 basechar 0
AnchorPoint: "Anchor-0" 282 0 basechar 0
LayerCount: 2
Fore
SplineSet
20 0 m 1
 327 714 l 1
 670 714 l 1
 653 634 l 1
 482 634 l 1
 435 413 l 1
 589 413 l 1
 572 333 l 1
 418 333 l 1
 364 80 l 1
 535 80 l 1
 518 0 l 1
 264 0 l 1
 311 222 l 1
 197 222 l 1
 104 0 l 1
 20 0 l 1
370 634 m 1
 230 299 l 1
 328 299 l 1
 399 634 l 1
 370 634 l 1
EndSplineSet
Validated: 1048577
Substitution2: "'c2sc' Capitals to Small Capitals lookup 34 subtable" ae.sc
Substitution2: "'aalt' Access All Alternates lookup 0 subtable" ae.sc
EndChar

StartChar: Ccedilla
Encoding: 199 199 137
Width: 563
GlyphClass: 2
Flags: HW
AnchorPoint: "Anchor-2" 695 714 basechar 0
AnchorPoint: "Anchor-1" 492 714 basechar 0
AnchorPoint: "Anchor-0" 258 -240 basechar 0
LayerCount: 2
Fore
SplineSet
230 -240 m 0
 210 -240 191 -238 180 -235 c 1
 192 -180 l 1
 203 -183 223 -185 240 -185 c 0
 285 -185 312 -171 319 -140 c 0
 320 -136 320 -133 320 -130 c 0
 320 -103 293 -90 246 -83 c 1
 298 -7 l 1
 174 9 117 96 117 228 c 0
 117 267 122 311 132 357 c 0
 179 577 314 725 504 725 c 0
 569 725 624 710 668 684 c 1
 619 612 l 1
 585 634 537 647 488 647 c 0
 354 647 260 535 222 357 c 0
 213 315 208 277 208 243 c 0
 208 134 256 70 364 70 c 0
 411 70 463 80 515 99 c 1
 498 18 l 1
 447 -1 402 -9 350 -10 c 1
 322 -52 l 1
 364 -61 391 -81 391 -120 c 0
 391 -126 391 -133 389 -141 c 0
 376 -203 320 -240 230 -240 c 0
EndSplineSet
Validated: 1048577
Substitution2: "'c2sc' Capitals to Small Capitals lookup 34 subtable" ccedilla.sc
Substitution2: "'aalt' Access All Alternates lookup 0 subtable" ccedilla.sc
EndChar

StartChar: Egrave
Encoding: 200 200 138
Width: 563
GlyphClass: 2
Flags: HW
AnchorPoint: "Anchor-2" 695 714 basechar 0
AnchorPoint: "Anchor-1" 483 944 basechar 0
AnchorPoint: "Anchor-0" 282 0 basechar 0
LayerCount: 2
Fore
SplineSet
467 784 m 1
 430 819 376 895 360 934 c 1
 362 944 l 1
 464 944 l 1
 475 899 503 833 525 796 c 1
 523 784 l 1
 467 784 l 1
84 0 m 1
 236 714 l 1
 640 714 l 1
 623 635 l 1
 307 635 l 1
 260 412 l 1
 557 412 l 1
 540 332 l 1
 243 332 l 1
 189 79 l 1
 505 79 l 1
 488 0 l 1
 84 0 l 1
EndSplineSet
Validated: 1048577
Substitution2: "'c2sc' Capitals to Small Capitals lookup 34 subtable" egrave.sc
Substitution2: "'aalt' Access All Alternates lookup 0 subtable" egrave.sc
EndChar

StartChar: Eacute
Encoding: 201 201 139
Width: 563
GlyphClass: 2
Flags: HW
AnchorPoint: "Anchor-2" 695 714 basechar 0
AnchorPoint: "Anchor-1" 491 944 basechar 0
AnchorPoint: "Anchor-0" 282 0 basechar 0
LayerCount: 2
Fore
SplineSet
409 796 m 1
 450 839 501 899 534 944 c 1
 636 944 l 1
 634 934 l 1
 601 896 515 820 463 784 c 1
 407 784 l 1
 409 796 l 1
84 0 m 1
 236 714 l 1
 640 714 l 1
 623 635 l 1
 307 635 l 1
 260 412 l 1
 557 412 l 1
 540 332 l 1
 243 332 l 1
 189 79 l 1
 505 79 l 1
 488 0 l 1
 84 0 l 1
EndSplineSet
Validated: 1048577
Substitution2: "'c2sc' Capitals to Small Capitals lookup 34 subtable" eacute.sc
Substitution2: "'aalt' Access All Alternates lookup 0 subtable" eacute.sc
EndChar

StartChar: Ecircumflex
Encoding: 202 202 140
Width: 563
GlyphClass: 2
Flags: HW
AnchorPoint: "Anchor-2" 695 714 basechar 0
AnchorPoint: "Anchor-1" 483 944 basechar 0
AnchorPoint: "Anchor-0" 282 0 basechar 0
LayerCount: 2
Fore
SplineSet
299 795 m 1
 345 837 410 900 443 944 c 1
 528 944 l 1
 541 899 582 835 609 795 c 1
 607 784 l 1
 551 784 l 1
 524 807 497 844 471 880 c 1
 429 844 388 806 352 784 c 1
 297 784 l 1
 299 795 l 1
84 0 m 1
 236 714 l 1
 640 714 l 1
 623 635 l 1
 307 635 l 1
 260 412 l 1
 557 412 l 1
 540 332 l 1
 243 332 l 1
 189 79 l 1
 505 79 l 1
 488 0 l 1
 84 0 l 1
EndSplineSet
Validated: 1048577
Substitution2: "'c2sc' Capitals to Small Capitals lookup 34 subtable" ecircumflex.sc
Substitution2: "'aalt' Access All Alternates lookup 0 subtable" ecircumflex.sc
EndChar

StartChar: Edieresis
Encoding: 203 203 141
Width: 563
GlyphClass: 2
Flags: HW
AnchorPoint: "Anchor-2" 695 714 basechar 0
AnchorPoint: "Anchor-1" 483 915 basechar 0
AnchorPoint: "Anchor-0" 282 0 basechar 0
LayerCount: 2
Fore
SplineSet
561 797 m 0
 537 797 519 810 519 839 c 0
 519 844 520 850 521 857 c 0
 530 898 557 915 586 915 c 0
 610 915 629 903 629 875 c 0
 629 870 628 864 627 857 c 0
 618 816 590 797 561 797 c 0
346 797 m 0
 322 797 305 810 305 838 c 0
 305 844 306 850 307 857 c 0
 316 898 342 915 371 915 c 0
 396 915 415 903 415 874 c 0
 415 869 414 863 413 857 c 0
 404 816 375 797 346 797 c 0
84 0 m 1
 236 714 l 1
 640 714 l 1
 623 635 l 1
 307 635 l 1
 260 412 l 1
 557 412 l 1
 540 332 l 1
 243 332 l 1
 189 79 l 1
 505 79 l 1
 488 0 l 1
 84 0 l 1
EndSplineSet
Validated: 1048577
Substitution2: "'c2sc' Capitals to Small Capitals lookup 34 subtable" edieresis.sc
Substitution2: "'aalt' Access All Alternates lookup 0 subtable" edieresis.sc
EndChar

StartChar: Igrave
Encoding: 204 204 142
Width: 563
GlyphClass: 2
Flags: HW
AnchorPoint: "Anchor-2" 695 714 basechar 0
AnchorPoint: "Anchor-1" 483 944 basechar 0
AnchorPoint: "Anchor-0" 282 0 basechar 0
LayerCount: 2
Fore
SplineSet
463 784 m 1
 427 819 372 895 356 934 c 1
 358 944 l 1
 460 944 l 1
 472 899 500 833 522 796 c 1
 520 784 l 1
 463 784 l 1
97 0 m 1
 110 61 l 1
 253 73 l 1
 373 641 l 1
 236 653 l 1
 249 714 l 1
 618 714 l 1
 605 653 l 1
 460 641 l 1
 340 73 l 1
 479 61 l 1
 466 0 l 1
 97 0 l 1
EndSplineSet
Validated: 1048577
Substitution2: "'c2sc' Capitals to Small Capitals lookup 34 subtable" igrave.sc
Substitution2: "'aalt' Access All Alternates lookup 0 subtable" igrave.sc
EndChar

StartChar: Iacute
Encoding: 205 205 143
Width: 563
GlyphClass: 2
Flags: HW
AnchorPoint: "Anchor-2" 695 714 basechar 0
AnchorPoint: "Anchor-1" 483 944 basechar 0
AnchorPoint: "Anchor-0" 282 0 basechar 0
LayerCount: 2
Fore
SplineSet
405 796 m 1
 447 839 498 899 530 944 c 1
 633 944 l 1
 631 934 l 1
 598 896 512 820 459 784 c 1
 403 784 l 1
 405 796 l 1
97 0 m 1
 110 61 l 1
 253 73 l 1
 373 641 l 1
 236 653 l 1
 249 714 l 1
 618 714 l 1
 605 653 l 1
 460 641 l 1
 340 73 l 1
 479 61 l 1
 466 0 l 1
 97 0 l 1
EndSplineSet
Validated: 1048577
Substitution2: "'c2sc' Capitals to Small Capitals lookup 34 subtable" iacute.sc
Substitution2: "'aalt' Access All Alternates lookup 0 subtable" iacute.sc
EndChar

StartChar: Icircumflex
Encoding: 206 206 144
Width: 563
GlyphClass: 2
Flags: HW
AnchorPoint: "Anchor-2" 695 714 basechar 0
AnchorPoint: "Anchor-1" 483 944 basechar 0
AnchorPoint: "Anchor-0" 282 0 basechar 0
LayerCount: 2
Fore
SplineSet
296 795 m 1
 341 837 407 900 439 944 c 1
 524 944 l 1
 537 899 579 835 606 795 c 1
 604 784 l 1
 548 784 l 1
 521 807 493 844 467 880 c 1
 425 844 384 806 348 784 c 1
 294 784 l 1
 296 795 l 1
97 0 m 1
 110 61 l 1
 253 73 l 1
 373 641 l 1
 236 653 l 1
 249 714 l 1
 618 714 l 1
 605 653 l 1
 460 641 l 1
 340 73 l 1
 479 61 l 1
 466 0 l 1
 97 0 l 1
EndSplineSet
Validated: 1048577
Substitution2: "'c2sc' Capitals to Small Capitals lookup 34 subtable" icircumflex.sc
Substitution2: "'aalt' Access All Alternates lookup 0 subtable" icircumflex.sc
EndChar

StartChar: Idieresis
Encoding: 207 207 145
Width: 563
GlyphClass: 2
Flags: HW
AnchorPoint: "Anchor-2" 695 714 basechar 0
AnchorPoint: "Anchor-1" 476 915 basechar 0
AnchorPoint: "Anchor-0" 282 0 basechar 0
LayerCount: 2
Fore
SplineSet
557 797 m 0
 533 797 515 810 515 839 c 0
 515 844 516 850 517 857 c 0
 526 898 553 915 582 915 c 0
 607 915 626 903 626 874 c 0
 626 869 625 863 624 857 c 0
 615 816 586 797 557 797 c 0
343 797 m 0
 319 797 301 810 301 839 c 0
 301 844 302 850 303 857 c 0
 312 898 339 915 368 915 c 0
 392 915 411 903 411 875 c 0
 411 870 410 864 409 857 c 0
 400 816 372 797 343 797 c 0
97 0 m 1
 110 61 l 1
 253 73 l 1
 373 641 l 1
 236 653 l 1
 249 714 l 1
 618 714 l 1
 605 653 l 1
 460 641 l 1
 340 73 l 1
 479 61 l 1
 466 0 l 1
 97 0 l 1
EndSplineSet
Validated: 1048577
Substitution2: "'c2sc' Capitals to Small Capitals lookup 34 subtable" idieresis.sc
Substitution2: "'aalt' Access All Alternates lookup 0 subtable" idieresis.sc
EndChar

StartChar: Eth
Encoding: 208 208 146
Width: 563
GlyphClass: 2
Flags: HW
AnchorPoint: "Anchor-3" 371 357 basechar 0
AnchorPoint: "Anchor-2" 725 714 basechar 0
AnchorPoint: "Anchor-1" 434 714 basechar 0
AnchorPoint: "Anchor-0" 282 0 basechar 0
LayerCount: 2
Fore
SplineSet
71 0 m 1
 139 320 l 1
 68 320 l 1
 84 396 l 1
 155 396 l 1
 223 714 l 1
 402 714 l 2
 545 714 627 634 627 482 c 0
 627 447 623 408 614 365 c 0
 563 124 426 0 232 0 c 2
 71 0 l 1
242 78 m 2
 393 78 483 175 523 363 c 0
 532 404 536 439 536 470 c 0
 536 585 478 636 371 636 c 2
 293 636 l 1
 242 396 l 1
 374 396 l 1
 358 320 l 1
 226 320 l 1
 175 78 l 1
 242 78 l 2
EndSplineSet
Validated: 1
Substitution2: "'c2sc' Capitals to Small Capitals lookup 34 subtable" eth.sc
Substitution2: "'aalt' Access All Alternates lookup 0 subtable" eth.sc
EndChar

StartChar: Ntilde
Encoding: 209 209 147
Width: 563
GlyphClass: 2
Flags: HW
AnchorPoint: "Anchor-2" 715 714 basechar 0
AnchorPoint: "Anchor-1" 476 912 basechar 0
AnchorPoint: "Anchor-0" 282 0 basechar 0
LayerCount: 2
Fore
SplineSet
285 785 m 1
 309 858 352 911 413 911 c 0
 466 911 499 854 539 854 c 0
 567 854 582 874 599 912 c 1
 649 912 l 1
 625 834 579 786 523 786 c 0
 470 786 437 843 397 843 c 0
 368 843 352 823 336 785 c 1
 285 785 l 1
61 0 m 1
 213 714 l 1
 331 714 l 1
 448 107 l 1
 452 107 l 1
 459 165 468 231 484 307 c 2
 571 714 l 1
 655 714 l 1
 503 0 l 1
 393 0 l 1
 270 625 l 1
 265 625 l 1
 256 555 248 486 232 412 c 2
 144 0 l 1
 61 0 l 1
EndSplineSet
Validated: 1048577
Substitution2: "'c2sc' Capitals to Small Capitals lookup 34 subtable" ntilde.sc
Substitution2: "'aalt' Access All Alternates lookup 0 subtable" ntilde.sc
EndChar

StartChar: Ograve
Encoding: 210 210 148
Width: 563
GlyphClass: 2
Flags: HW
AnchorPoint: "Anchor-3" 358 357 basechar 0
AnchorPoint: "Anchor-2" 715 714 basechar 0
AnchorPoint: "Anchor-1" 483 944 basechar 0
AnchorPoint: "Anchor-0" 282 0 basechar 0
LayerCount: 2
Fore
SplineSet
463 784 m 1
 427 819 372 895 356 934 c 1
 358 944 l 1
 460 944 l 1
 472 899 500 833 522 796 c 1
 520 784 l 1
 463 784 l 1
279 -10 m 0
 149 -10 96 76 96 207 c 0
 96 252 102 303 114 358 c 0
 162 584 267 726 436 726 c 0
 565 726 620 641 620 508 c 0
 620 463 613 413 602 359 c 0
 556 143 454 -10 279 -10 c 0
297 68 m 0
 407 68 473 173 512 358 c 0
 524 414 530 462 530 503 c 0
 530 597 497 648 421 648 c 0
 308 648 242 541 203 358 c 0
 191 304 185 256 185 216 c 0
 185 121 220 68 297 68 c 0
EndSplineSet
Validated: 1
Substitution2: "'c2sc' Capitals to Small Capitals lookup 34 subtable" ograve.sc
Substitution2: "'aalt' Access All Alternates lookup 0 subtable" ograve.sc
EndChar

StartChar: Oacute
Encoding: 211 211 149
Width: 563
GlyphClass: 2
Flags: HW
AnchorPoint: "Anchor-3" 358 357 basechar 0
AnchorPoint: "Anchor-2" 715 714 basechar 0
AnchorPoint: "Anchor-1" 483 944 basechar 0
AnchorPoint: "Anchor-0" 282 0 basechar 0
LayerCount: 2
Fore
SplineSet
405 796 m 1
 447 839 498 899 530 944 c 1
 633 944 l 1
 631 934 l 1
 598 896 512 820 459 784 c 1
 403 784 l 1
 405 796 l 1
279 -10 m 0
 149 -10 96 76 96 207 c 0
 96 252 102 303 114 358 c 0
 162 584 267 726 436 726 c 0
 565 726 620 641 620 508 c 0
 620 463 613 413 602 359 c 0
 556 143 454 -10 279 -10 c 0
297 68 m 0
 407 68 473 173 512 358 c 0
 524 414 530 462 530 503 c 0
 530 597 497 648 421 648 c 0
 308 648 242 541 203 358 c 0
 191 304 185 256 185 216 c 0
 185 121 220 68 297 68 c 0
EndSplineSet
Validated: 1
Substitution2: "'c2sc' Capitals to Small Capitals lookup 34 subtable" oacute.sc
Substitution2: "'aalt' Access All Alternates lookup 0 subtable" oacute.sc
EndChar

StartChar: Ocircumflex
Encoding: 212 212 150
Width: 563
GlyphClass: 2
Flags: HW
AnchorPoint: "Anchor-3" 358 357 basechar 0
AnchorPoint: "Anchor-2" 715 714 basechar 0
AnchorPoint: "Anchor-1" 483 944 basechar 0
AnchorPoint: "Anchor-0" 282 0 basechar 0
LayerCount: 2
Fore
SplineSet
296 795 m 1
 341 837 407 900 439 944 c 1
 524 944 l 1
 537 899 579 835 606 795 c 1
 604 784 l 1
 548 784 l 1
 521 807 493 844 467 880 c 1
 425 844 384 806 348 784 c 1
 294 784 l 1
 296 795 l 1
279 -10 m 0
 149 -10 96 76 96 207 c 0
 96 252 102 303 114 358 c 0
 162 584 267 726 436 726 c 0
 565 726 620 641 620 508 c 0
 620 463 613 413 602 359 c 0
 556 143 454 -10 279 -10 c 0
297 68 m 0
 407 68 473 173 512 358 c 0
 524 414 530 462 530 503 c 0
 530 597 497 648 421 648 c 0
 308 648 242 541 203 358 c 0
 191 304 185 256 185 216 c 0
 185 121 220 68 297 68 c 0
EndSplineSet
Validated: 1
Substitution2: "'c2sc' Capitals to Small Capitals lookup 34 subtable" ocircumflex.sc
Substitution2: "'aalt' Access All Alternates lookup 0 subtable" ocircumflex.sc
EndChar

StartChar: Otilde
Encoding: 213 213 151
Width: 563
GlyphClass: 2
Flags: HW
AnchorPoint: "Anchor-3" 358 357 basechar 0
AnchorPoint: "Anchor-2" 715 714 basechar 0
AnchorPoint: "Anchor-1" 476 912 basechar 0
AnchorPoint: "Anchor-0" 282 0 basechar 0
LayerCount: 2
Fore
SplineSet
280 785 m 1
 304 858 347 911 408 911 c 0
 461 911 494 854 534 854 c 0
 562 854 577 874 594 912 c 1
 644 912 l 1
 620 834 574 786 518 786 c 0
 465 786 432 843 392 843 c 0
 363 843 347 823 331 785 c 1
 280 785 l 1
279 -10 m 0
 149 -10 96 76 96 207 c 0
 96 252 102 303 114 358 c 0
 162 584 267 726 436 726 c 0
 565 726 620 641 620 508 c 0
 620 463 613 413 602 359 c 0
 556 143 454 -10 279 -10 c 0
297 68 m 0
 407 68 473 173 512 358 c 0
 524 414 530 462 530 503 c 0
 530 597 497 648 421 648 c 0
 308 648 242 541 203 358 c 0
 191 304 185 256 185 216 c 0
 185 121 220 68 297 68 c 0
EndSplineSet
Validated: 1
Substitution2: "'c2sc' Capitals to Small Capitals lookup 34 subtable" otilde.sc
Substitution2: "'aalt' Access All Alternates lookup 0 subtable" otilde.sc
EndChar

StartChar: Odieresis
Encoding: 214 214 152
Width: 563
GlyphClass: 2
Flags: HW
AnchorPoint: "Anchor-3" 358 357 basechar 0
AnchorPoint: "Anchor-2" 715 714 basechar 0
AnchorPoint: "Anchor-1" 476 915 basechar 0
AnchorPoint: "Anchor-0" 282 0 basechar 0
LayerCount: 2
Fore
SplineSet
557 797 m 0
 533 797 515 810 515 839 c 0
 515 844 516 850 517 857 c 0
 526 898 553 915 582 915 c 0
 607 915 626 903 626 874 c 0
 626 869 625 863 624 857 c 0
 615 816 586 797 557 797 c 0
343 797 m 0
 319 797 301 810 301 839 c 0
 301 844 302 850 303 857 c 0
 312 898 339 915 368 915 c 0
 392 915 411 903 411 875 c 0
 411 870 410 864 409 857 c 0
 400 816 372 797 343 797 c 0
279 -10 m 0
 149 -10 96 76 96 207 c 0
 96 252 102 303 114 358 c 0
 162 584 267 726 436 726 c 0
 565 726 620 641 620 508 c 0
 620 463 613 413 602 359 c 0
 556 143 454 -10 279 -10 c 0
297 68 m 0
 407 68 473 173 512 358 c 0
 524 414 530 462 530 503 c 0
 530 597 497 648 421 648 c 0
 308 648 242 541 203 358 c 0
 191 304 185 256 185 216 c 0
 185 121 220 68 297 68 c 0
EndSplineSet
Validated: 1
Substitution2: "'c2sc' Capitals to Small Capitals lookup 34 subtable" odieresis.sc
Substitution2: "'aalt' Access All Alternates lookup 0 subtable" odieresis.sc
EndChar

StartChar: multiply
Encoding: 215 215 153
Width: 563
Flags: HW
LayerCount: 2
Fore
SplineSet
160 150 m 1
 121 198 l 1
 307 353 l 1
 186 507 l 1
 245 556 l 1
 366 401 l 1
 555 557 l 1
 594 509 l 1
 406 353 l 1
 526 198 l 1
 468 150 l 1
 345 303 l 1
 160 150 l 1
EndSplineSet
Validated: 1
EndChar

StartChar: Oslash
Encoding: 216 216 154
Width: 563
GlyphClass: 2
Flags: HW
AnchorPoint: "Anchor-3" 358 357 basechar 0
AnchorPoint: "Anchor-2" 715 714 basechar 0
AnchorPoint: "Anchor-1" 434 714 basechar 0
AnchorPoint: "Anchor-0" 282 0 basechar 0
LayerCount: 2
Fore
SplineSet
86 -39 m 1
 31 -5 l 1
 113 98 l 1
 101 129 96 166 96 207 c 0
 96 252 102 303 114 358 c 0
 162 584 267 726 436 726 c 0
 496 726 540 707 570 674 c 1
 630 749 l 1
 684 715 l 1
 604 615 l 1
 615 584 620 547 620 506 c 0
 620 462 613 412 602 359 c 0
 556 143 454 -10 279 -10 c 0
 220 -10 176 8 147 39 c 1
 86 -39 l 1
203 358 m 0
 192 304 186 257 186 217 c 0
 186 208 186 199 187 191 c 1
 512 600 l 1
 494 631 464 648 421 648 c 0
 308 648 242 541 203 358 c 0
297 68 m 0
 407 68 473 173 512 358 c 0
 524 414 531 462 531 502 c 0
 531 509 530 516 530 522 c 1
 207 114 l 1
 225 84 254 68 297 68 c 0
EndSplineSet
Validated: 1
Substitution2: "'c2sc' Capitals to Small Capitals lookup 34 subtable" oslash.sc
Substitution2: "'aalt' Access All Alternates lookup 0 subtable" oslash.sc
EndChar

StartChar: Ugrave
Encoding: 217 217 155
Width: 563
GlyphClass: 2
Flags: HW
AnchorPoint: "Anchor-2" 695 714 basechar 0
AnchorPoint: "Anchor-1" 483 944 basechar 0
AnchorPoint: "Anchor-0" 282 0 basechar 0
LayerCount: 2
Fore
SplineSet
463 784 m 1
 427 819 372 895 356 934 c 1
 358 944 l 1
 460 944 l 1
 472 899 500 833 522 796 c 1
 520 784 l 1
 463 784 l 1
279 -10 m 0
 156 -10 102 48 102 152 c 0
 102 179 105 209 112 241 c 2
 213 714 l 1
 301 714 l 1
 201 245 l 2
 195 218 192 194 192 173 c 0
 192 106 222 68 296 68 c 0
 398 68 444 138 467 246 c 2
 567 714 l 1
 655 714 l 1
 554 240 l 2
 522 88 437 -10 279 -10 c 0
EndSplineSet
Validated: 1048577
Substitution2: "'c2sc' Capitals to Small Capitals lookup 34 subtable" ugrave.sc
Substitution2: "'aalt' Access All Alternates lookup 0 subtable" ugrave.sc
EndChar

StartChar: Uacute
Encoding: 218 218 156
Width: 563
GlyphClass: 2
Flags: HW
AnchorPoint: "Anchor-2" 695 714 basechar 0
AnchorPoint: "Anchor-1" 483 944 basechar 0
AnchorPoint: "Anchor-0" 282 0 basechar 0
LayerCount: 2
Fore
SplineSet
405 796 m 1
 447 839 498 899 530 944 c 1
 633 944 l 1
 631 934 l 1
 598 896 512 820 459 784 c 1
 403 784 l 1
 405 796 l 1
279 -10 m 0
 156 -10 102 48 102 152 c 0
 102 179 105 209 112 241 c 2
 213 714 l 1
 301 714 l 1
 201 245 l 2
 195 218 192 194 192 173 c 0
 192 106 222 68 296 68 c 0
 398 68 444 138 467 246 c 2
 567 714 l 1
 655 714 l 1
 554 240 l 2
 522 88 437 -10 279 -10 c 0
EndSplineSet
Validated: 1048577
Substitution2: "'c2sc' Capitals to Small Capitals lookup 34 subtable" uacute.sc
Substitution2: "'aalt' Access All Alternates lookup 0 subtable" uacute.sc
EndChar

StartChar: Ucircumflex
Encoding: 219 219 157
Width: 563
GlyphClass: 2
Flags: HW
AnchorPoint: "Anchor-2" 695 714 basechar 0
AnchorPoint: "Anchor-1" 483 944 basechar 0
AnchorPoint: "Anchor-0" 282 0 basechar 0
LayerCount: 2
Fore
SplineSet
296 795 m 1
 341 837 407 900 439 944 c 1
 524 944 l 1
 537 899 579 835 606 795 c 1
 604 784 l 1
 548 784 l 1
 521 807 493 844 467 880 c 1
 425 844 384 806 348 784 c 1
 294 784 l 1
 296 795 l 1
279 -10 m 0
 156 -10 102 48 102 152 c 0
 102 179 105 209 112 241 c 2
 213 714 l 1
 301 714 l 1
 201 245 l 2
 195 218 192 194 192 173 c 0
 192 106 222 68 296 68 c 0
 398 68 444 138 467 246 c 2
 567 714 l 1
 655 714 l 1
 554 240 l 2
 522 88 437 -10 279 -10 c 0
EndSplineSet
Validated: 1048577
Substitution2: "'c2sc' Capitals to Small Capitals lookup 34 subtable" ucircumflex.sc
Substitution2: "'aalt' Access All Alternates lookup 0 subtable" ucircumflex.sc
EndChar

StartChar: Udieresis
Encoding: 220 220 158
Width: 563
GlyphClass: 2
Flags: HW
AnchorPoint: "Anchor-2" 695 714 basechar 0
AnchorPoint: "Anchor-1" 476 915 basechar 0
AnchorPoint: "Anchor-0" 282 0 basechar 0
LayerCount: 2
Fore
SplineSet
557 797 m 0
 533 797 515 810 515 839 c 0
 515 844 516 850 517 857 c 0
 526 898 553 915 582 915 c 0
 607 915 626 903 626 874 c 0
 626 869 625 863 624 857 c 0
 615 816 586 797 557 797 c 0
343 797 m 0
 319 797 301 810 301 839 c 0
 301 844 302 850 303 857 c 0
 312 898 339 915 368 915 c 0
 392 915 411 903 411 875 c 0
 411 870 410 864 409 857 c 0
 400 816 372 797 343 797 c 0
279 -10 m 0
 156 -10 102 48 102 152 c 0
 102 179 105 209 112 241 c 2
 213 714 l 1
 301 714 l 1
 201 245 l 2
 195 218 192 194 192 173 c 0
 192 106 222 68 296 68 c 0
 398 68 444 138 467 246 c 2
 567 714 l 1
 655 714 l 1
 554 240 l 2
 522 88 437 -10 279 -10 c 0
EndSplineSet
Validated: 1048577
Substitution2: "'c2sc' Capitals to Small Capitals lookup 34 subtable" udieresis.sc
Substitution2: "'aalt' Access All Alternates lookup 0 subtable" udieresis.sc
EndChar

StartChar: Yacute
Encoding: 221 221 159
Width: 563
GlyphClass: 2
Flags: HW
AnchorPoint: "Anchor-2" 695 714 basechar 0
AnchorPoint: "Anchor-1" 483 944 basechar 0
AnchorPoint: "Anchor-0" 282 0 basechar 0
LayerCount: 2
Fore
SplineSet
405 796 m 1
 447 839 498 899 530 944 c 1
 633 944 l 1
 631 934 l 1
 598 896 512 820 459 784 c 1
 403 784 l 1
 405 796 l 1
239 0 m 1
 298 276 l 1
 182 714 l 1
 278 714 l 1
 357 352 l 1
 592 714 l 1
 686 714 l 1
 383 276 l 1
 324 0 l 1
 239 0 l 1
EndSplineSet
Validated: 1048577
Substitution2: "'c2sc' Capitals to Small Capitals lookup 34 subtable" yacute.sc
Substitution2: "'aalt' Access All Alternates lookup 0 subtable" yacute.sc
EndChar

StartChar: Thorn
Encoding: 222 222 160
Width: 563
GlyphClass: 2
Flags: HW
AnchorPoint: "Anchor-1" 434 714 basechar 0
AnchorPoint: "Anchor-0" 282 0 basechar 0
LayerCount: 2
Fore
SplineSet
84 0 m 1
 236 714 l 1
 323 714 l 1
 296 588 l 1
 406 588 l 2
 539 588 600 536 600 441 c 0
 600 422 598 401 593 379 c 0
 567 255 481 150 301 150 c 2
 203 150 l 1
 171 0 l 1
 84 0 l 1
308 227 m 2
 417 227 478 268 501 374 c 0
 504 389 506 403 506 416 c 0
 506 479 466 510 383 510 c 2
 279 510 l 1
 219 227 l 1
 308 227 l 2
EndSplineSet
Validated: 1048577
Substitution2: "'c2sc' Capitals to Small Capitals lookup 34 subtable" thorn.sc
Substitution2: "'aalt' Access All Alternates lookup 0 subtable" thorn.sc
EndChar

StartChar: germandbls
Encoding: 223 223 161
Width: 563
GlyphClass: 2
Flags: HW
AnchorPoint: "Anchor-1" 445 765 basechar 0
AnchorPoint: "Anchor-0" 282 0 basechar 0
LayerCount: 2
Fore
SplineSet
355 -10 m 0
 307 -10 264 1 236 21 c 1
 254 102 l 1
 281 82 321 63 369 63 c 0
 431 63 464 95 476 150 c 0
 478 159 479 168 479 175 c 0
 479 207 460 227 418 266 c 0
 376 304 349 334 349 378 c 0
 349 386 350 395 352 404 c 0
 375 512 496 522 515 611 c 0
 516 617 517 623 517 629 c 0
 517 670 482 691 424 691 c 0
 357 691 303 661 285 577 c 2
 162 0 l 1
 76 0 l 1
 200 585 l 2
 226 709 320 765 441 765 c 0
 545 765 609 724 609 650 c 0
 609 640 608 630 606 619 c 0
 581 502 456 482 440 408 c 0
 439 404 438 400 438 396 c 0
 438 374 455 359 494 320 c 0
 537 274 566 244 566 190 c 0
 566 178 565 164 562 149 c 0
 539 43 461 -10 355 -10 c 0
EndSplineSet
Validated: 1048577
Substitution2: "'smcp' Lowercase to Small Capitals lookup 35 subtable" germandbls.sc
Substitution2: "'aalt' Access All Alternates lookup 0 subtable" germandbls.sc
EndChar

StartChar: agrave
Encoding: 224 224 162
Width: 563
GlyphClass: 2
Flags: HW
AnchorPoint: "Anchor-2" 657 536 basechar 0
AnchorPoint: "Anchor-1" 445 766 basechar 0
AnchorPoint: "Anchor-0" 282 0 basechar 0
LayerCount: 2
Fore
SplineSet
434 606 m 1
 397 641 343 717 327 756 c 1
 329 766 l 1
 431 766 l 1
 443 721 471 655 492 618 c 1
 490 606 l 1
 434 606 l 1
230 -10 m 0
 147 -10 93 28 93 105 c 0
 93 118 94 133 97 148 c 0
 121 263 213 318 363 322 c 2
 472 325 l 1
 478 351 l 2
 481 366 482 379 482 391 c 0
 482 452 442 473 380 473 c 0
 326 473 271 457 223 432 c 1
 206 499 l 1
 263 525 324 546 400 546 c 0
 508 546 567 505 567 417 c 0
 567 400 565 382 561 362 c 2
 484 0 l 1
 416 0 l 1
 419 75 l 1
 415 75 l 1
 362 19 304 -10 230 -10 c 0
263 63 m 0
 343 63 425 111 447 214 c 2
 458 262 l 1
 370 259 l 2
 253 255 198 218 184 151 c 0
 182 142 181 133 181 126 c 0
 181 81 214 63 263 63 c 0
EndSplineSet
Validated: 1048577
Substitution2: "'smcp' Lowercase to Small Capitals lookup 35 subtable" agrave.sc
Substitution2: "'aalt' Access All Alternates lookup 0 subtable" agrave.sc
EndChar

StartChar: aacute
Encoding: 225 225 163
Width: 563
GlyphClass: 2
Flags: HW
AnchorPoint: "Anchor-2" 657 536 basechar 0
AnchorPoint: "Anchor-1" 445 766 basechar 0
AnchorPoint: "Anchor-0" 282 0 basechar 0
LayerCount: 2
Fore
SplineSet
376 618 m 1
 417 661 468 721 501 766 c 1
 603 766 l 1
 601 756 l 1
 568 718 483 642 430 606 c 1
 374 606 l 1
 376 618 l 1
230 -10 m 0
 147 -10 93 28 93 105 c 0
 93 118 94 133 97 148 c 0
 121 263 213 318 363 322 c 2
 472 325 l 1
 478 351 l 2
 481 366 482 379 482 391 c 0
 482 452 442 473 380 473 c 0
 326 473 271 457 223 432 c 1
 206 499 l 1
 263 525 324 546 400 546 c 0
 508 546 567 505 567 417 c 0
 567 400 565 382 561 362 c 2
 484 0 l 1
 416 0 l 1
 419 75 l 1
 415 75 l 1
 362 19 304 -10 230 -10 c 0
263 63 m 0
 343 63 425 111 447 214 c 2
 458 262 l 1
 370 259 l 2
 253 255 198 218 184 151 c 0
 182 142 181 133 181 126 c 0
 181 81 214 63 263 63 c 0
EndSplineSet
Validated: 1048577
Substitution2: "'smcp' Lowercase to Small Capitals lookup 35 subtable" aacute.sc
Substitution2: "'aalt' Access All Alternates lookup 0 subtable" aacute.sc
EndChar

StartChar: acircumflex
Encoding: 226 226 164
Width: 563
GlyphClass: 2
Flags: HW
AnchorPoint: "Anchor-2" 657 536 basechar 0
AnchorPoint: "Anchor-1" 445 766 basechar 0
AnchorPoint: "Anchor-0" 282 0 basechar 0
LayerCount: 2
Fore
SplineSet
266 617 m 1
 312 659 377 722 410 766 c 1
 495 766 l 1
 508 721 549 657 576 617 c 1
 574 606 l 1
 519 606 l 1
 491 629 464 666 438 702 c 1
 396 666 355 628 319 606 c 1
 264 606 l 1
 266 617 l 1
230 -10 m 0
 147 -10 93 28 93 105 c 0
 93 118 94 133 97 148 c 0
 121 263 213 318 363 322 c 2
 472 325 l 1
 478 351 l 2
 481 366 482 379 482 391 c 0
 482 452 442 473 380 473 c 0
 326 473 271 457 223 432 c 1
 206 499 l 1
 263 525 324 546 400 546 c 0
 508 546 567 505 567 417 c 0
 567 400 565 382 561 362 c 2
 484 0 l 1
 416 0 l 1
 419 75 l 1
 415 75 l 1
 362 19 304 -10 230 -10 c 0
263 63 m 0
 343 63 425 111 447 214 c 2
 458 262 l 1
 370 259 l 2
 253 255 198 218 184 151 c 0
 182 142 181 133 181 126 c 0
 181 81 214 63 263 63 c 0
EndSplineSet
Validated: 1048577
Substitution2: "'smcp' Lowercase to Small Capitals lookup 35 subtable" acircumflex.sc
Substitution2: "'aalt' Access All Alternates lookup 0 subtable" acircumflex.sc
EndChar

StartChar: atilde
Encoding: 227 227 165
Width: 563
GlyphClass: 2
Flags: HW
AnchorPoint: "Anchor-2" 657 536 basechar 0
AnchorPoint: "Anchor-1" 438 734 basechar 0
AnchorPoint: "Anchor-0" 282 0 basechar 0
LayerCount: 2
Fore
SplineSet
251 607 m 1
 274 680 318 733 378 733 c 0
 432 733 464 676 505 676 c 0
 532 676 548 696 564 734 c 1
 615 734 l 1
 591 656 545 608 488 608 c 0
 435 608 402 665 362 665 c 0
 334 665 318 645 302 607 c 1
 251 607 l 1
230 -10 m 0
 147 -10 93 28 93 105 c 0
 93 118 94 133 97 148 c 0
 121 263 213 318 363 322 c 2
 472 325 l 1
 478 351 l 2
 481 366 482 379 482 391 c 0
 482 452 442 473 380 473 c 0
 326 473 271 457 223 432 c 1
 206 499 l 1
 263 525 324 546 400 546 c 0
 508 546 567 505 567 417 c 0
 567 400 565 382 561 362 c 2
 484 0 l 1
 416 0 l 1
 419 75 l 1
 415 75 l 1
 362 19 304 -10 230 -10 c 0
263 63 m 0
 343 63 425 111 447 214 c 2
 458 262 l 1
 370 259 l 2
 253 255 198 218 184 151 c 0
 182 142 181 133 181 126 c 0
 181 81 214 63 263 63 c 0
EndSplineSet
Validated: 1048577
Substitution2: "'smcp' Lowercase to Small Capitals lookup 35 subtable" atilde.sc
Substitution2: "'aalt' Access All Alternates lookup 0 subtable" atilde.sc
EndChar

StartChar: adieresis
Encoding: 228 228 166
Width: 563
GlyphClass: 2
Flags: HW
AnchorPoint: "Anchor-2" 657 536 basechar 0
AnchorPoint: "Anchor-1" 447 737 basechar 0
AnchorPoint: "Anchor-0" 282 0 basechar 0
LayerCount: 2
Fore
SplineSet
529 619 m 0
 505 619 486 632 486 661 c 0
 486 666 487 672 488 679 c 0
 497 720 525 737 554 737 c 0
 579 737 597 725 597 696 c 0
 597 691 596 685 595 679 c 0
 586 638 558 619 529 619 c 0
315 619 m 0
 291 619 272 632 272 661 c 0
 272 666 273 672 274 679 c 0
 283 720 311 737 340 737 c 0
 364 737 382 725 382 696 c 0
 382 691 381 685 380 679 c 0
 371 638 343 619 315 619 c 0
230 -10 m 0
 147 -10 93 28 93 105 c 0
 93 118 94 133 97 148 c 0
 121 263 213 318 363 322 c 2
 472 325 l 1
 478 351 l 2
 481 366 482 379 482 391 c 0
 482 452 442 473 380 473 c 0
 326 473 271 457 223 432 c 1
 206 499 l 1
 263 525 324 546 400 546 c 0
 508 546 567 505 567 417 c 0
 567 400 565 382 561 362 c 2
 484 0 l 1
 416 0 l 1
 419 75 l 1
 415 75 l 1
 362 19 304 -10 230 -10 c 0
263 63 m 0
 343 63 425 111 447 214 c 2
 458 262 l 1
 370 259 l 2
 253 255 198 218 184 151 c 0
 182 142 181 133 181 126 c 0
 181 81 214 63 263 63 c 0
EndSplineSet
Validated: 1048577
Substitution2: "'smcp' Lowercase to Small Capitals lookup 35 subtable" adieresis.sc
Substitution2: "'aalt' Access All Alternates lookup 0 subtable" adieresis.sc
EndChar

StartChar: aring
Encoding: 229 229 167
Width: 563
GlyphClass: 2
Flags: HW
AnchorPoint: "Anchor-2" 657 536 basechar 0
AnchorPoint: "Anchor-1" 455 814 basechar 0
AnchorPoint: "Anchor-0" 282 0 basechar 0
LayerCount: 2
Fore
SplineSet
419 607 m 0
 364 607 330 635 330 684 c 0
 330 692 331 701 333 711 c 0
 347 775 398 814 463 814 c 0
 517 814 552 785 552 736 c 0
 552 728 551 721 549 712 c 0
 535 647 483 607 419 607 c 0
430 658 m 0
 462 658 488 678 495 711 c 0
 496 716 497 721 497 725 c 0
 497 750 480 765 453 765 c 0
 422 765 395 744 388 711 c 0
 387 706 387 701 387 697 c 0
 387 672 404 658 430 658 c 0
230 -10 m 0
 147 -10 93 28 93 105 c 0
 93 118 94 133 97 148 c 0
 121 263 213 318 363 322 c 2
 472 325 l 1
 478 351 l 2
 481 366 482 379 482 391 c 0
 482 452 442 473 380 473 c 0
 326 473 271 457 223 432 c 1
 206 499 l 1
 263 525 324 546 400 546 c 0
 508 546 567 505 567 417 c 0
 567 400 565 382 561 362 c 2
 484 0 l 1
 416 0 l 1
 419 75 l 1
 415 75 l 1
 362 19 304 -10 230 -10 c 0
263 63 m 0
 343 63 425 111 447 214 c 2
 458 262 l 1
 370 259 l 2
 253 255 198 218 184 151 c 0
 182 142 181 133 181 126 c 0
 181 81 214 63 263 63 c 0
EndSplineSet
Validated: 1048577
Substitution2: "'smcp' Lowercase to Small Capitals lookup 35 subtable" aring.sc
Substitution2: "'aalt' Access All Alternates lookup 0 subtable" aring.sc
EndChar

StartChar: ae
Encoding: 230 230 168
Width: 563
GlyphClass: 2
Flags: HW
AnchorPoint: "Anchor-1" 396 536 basechar 0
AnchorPoint: "Anchor-0" 282 0 basechar 0
LayerCount: 2
Fore
SplineSet
138 -10 m 0
 81 -10 43 24 43 94 c 0
 43 110 46 129 50 149 c 0
 73 256 141 316 237 320 c 2
 306 322 l 1
 314 356 l 2
 319 378 321 397 321 412 c 0
 321 456 302 473 266 473 c 0
 236 473 199 458 169 436 c 1
 152 499 l 1
 190 525 245 546 288 546 c 0
 346 546 382 522 391 466 c 1
 423 516 467 546 522 546 c 0
 588 546 622 498 622 410 c 0
 622 380 618 345 610 306 c 2
 598 251 l 1
 370 251 l 1
 363 217 360 189 360 165 c 0
 360 90 392 63 441 63 c 0
 479 63 512 75 554 105 c 1
 538 26 l 1
 496 0 463 -10 420 -10 c 0
 359 -10 309 17 299 100 c 1
 252 20 204 -10 138 -10 c 0
535 322 m 1
 542 355 546 382 546 404 c 0
 546 450 531 473 499 473 c 0
 454 473 411 420 387 322 c 1
 535 322 l 1
167 63 m 0
 212 63 258 101 282 214 c 2
 292 259 l 1
 251 256 l 2
 183 252 143 218 128 149 c 0
 125 137 124 126 124 116 c 0
 124 79 142 63 167 63 c 0
EndSplineSet
Validated: 1048577
Substitution2: "'smcp' Lowercase to Small Capitals lookup 35 subtable" ae.sc
Substitution2: "'aalt' Access All Alternates lookup 0 subtable" ae.sc
EndChar

StartChar: ccedilla
Encoding: 231 231 169
Width: 563
GlyphClass: 2
Flags: HW
AnchorPoint: "Anchor-2" 657 536 basechar 0
AnchorPoint: "Anchor-1" 439 536 basechar 0
AnchorPoint: "Anchor-0" 252 -240 basechar 0
LayerCount: 2
Fore
SplineSet
219 -240 m 0
 199 -240 180 -238 169 -235 c 1
 181 -180 l 1
 192 -183 212 -185 229 -185 c 0
 274 -185 301 -171 308 -140 c 0
 309 -136 309 -133 309 -130 c 0
 309 -103 282 -90 235 -83 c 1
 285 -8 l 1
 184 2 125 57 125 170 c 0
 125 198 129 229 136 264 c 0
 180 470 301 546 446 546 c 0
 505 546 551 534 590 512 c 1
 548 440 l 1
 513 462 479 470 435 470 c 0
 320 470 255 404 226 266 c 0
 220 237 216 210 216 188 c 0
 216 102 261 66 346 66 c 0
 399 66 452 80 495 98 c 1
 478 20 l 1
 439 3 388 -8 339 -10 c 1
 312 -52 l 1
 353 -61 380 -81 380 -120 c 0
 380 -126 380 -133 378 -141 c 0
 365 -203 309 -240 219 -240 c 0
EndSplineSet
Validated: 1048577
Substitution2: "'smcp' Lowercase to Small Capitals lookup 35 subtable" ccedilla.sc
Substitution2: "'aalt' Access All Alternates lookup 0 subtable" ccedilla.sc
EndChar

StartChar: egrave
Encoding: 232 232 170
Width: 563
GlyphClass: 2
Flags: HW
AnchorPoint: "Anchor-2" 657 536 basechar 0
AnchorPoint: "Anchor-1" 445 766 basechar 0
AnchorPoint: "Anchor-0" 282 0 basechar 0
LayerCount: 2
Fore
SplineSet
429 606 m 1
 393 641 338 717 322 756 c 1
 324 766 l 1
 426 766 l 1
 438 721 466 655 488 618 c 1
 486 606 l 1
 429 606 l 1
316 -10 m 0
 180 -10 102 58 102 184 c 0
 102 209 105 236 111 265 c 0
 148 441 264 546 408 546 c 0
 520 546 580 480 580 372 c 0
 580 349 578 323 572 296 c 2
 562 250 l 1
 196 250 l 1
 192 229 190 210 190 193 c 0
 190 101 245 64 336 64 c 0
 393 64 448 80 509 107 c 1
 492 28 l 1
 430 1 372 -10 316 -10 c 0
490 322 m 1
 493 338 495 352 495 366 c 0
 495 433 461 473 393 473 c 0
 310 473 244 416 213 322 c 1
 490 322 l 1
EndSplineSet
Validated: 1048577
Substitution2: "'smcp' Lowercase to Small Capitals lookup 35 subtable" egrave.sc
Substitution2: "'aalt' Access All Alternates lookup 0 subtable" egrave.sc
EndChar

StartChar: eacute
Encoding: 233 233 171
Width: 563
GlyphClass: 2
Flags: HW
AnchorPoint: "Anchor-2" 657 536 basechar 0
AnchorPoint: "Anchor-1" 445 766 basechar 0
AnchorPoint: "Anchor-0" 282 0 basechar 0
LayerCount: 2
Fore
SplineSet
371 618 m 1
 413 661 464 721 496 766 c 1
 599 766 l 1
 597 756 l 1
 564 718 478 642 425 606 c 1
 369 606 l 1
 371 618 l 1
316 -10 m 0
 180 -10 102 58 102 184 c 0
 102 209 105 236 111 265 c 0
 148 441 264 546 408 546 c 0
 520 546 580 480 580 372 c 0
 580 349 578 323 572 296 c 2
 562 250 l 1
 196 250 l 1
 192 229 190 210 190 193 c 0
 190 101 245 64 336 64 c 0
 393 64 448 80 509 107 c 1
 492 28 l 1
 430 1 372 -10 316 -10 c 0
490 322 m 1
 493 338 495 352 495 366 c 0
 495 433 461 473 393 473 c 0
 310 473 244 416 213 322 c 1
 490 322 l 1
EndSplineSet
Validated: 1048577
Substitution2: "'smcp' Lowercase to Small Capitals lookup 35 subtable" eacute.sc
Substitution2: "'aalt' Access All Alternates lookup 0 subtable" eacute.sc
EndChar

StartChar: ecircumflex
Encoding: 234 234 172
Width: 563
GlyphClass: 2
Flags: HW
AnchorPoint: "Anchor-2" 657 536 basechar 0
AnchorPoint: "Anchor-1" 445 766 basechar 0
AnchorPoint: "Anchor-0" 282 0 basechar 0
LayerCount: 2
Fore
SplineSet
262 617 m 1
 307 659 373 722 405 766 c 1
 490 766 l 1
 503 721 545 657 572 617 c 1
 570 606 l 1
 514 606 l 1
 487 629 459 666 433 702 c 1
 391 666 350 628 314 606 c 1
 260 606 l 1
 262 617 l 1
316 -10 m 0
 180 -10 102 58 102 184 c 0
 102 209 105 236 111 265 c 0
 148 441 264 546 408 546 c 0
 520 546 580 480 580 372 c 0
 580 349 578 323 572 296 c 2
 562 250 l 1
 196 250 l 1
 192 229 190 210 190 193 c 0
 190 101 245 64 336 64 c 0
 393 64 448 80 509 107 c 1
 492 28 l 1
 430 1 372 -10 316 -10 c 0
490 322 m 1
 493 338 495 352 495 366 c 0
 495 433 461 473 393 473 c 0
 310 473 244 416 213 322 c 1
 490 322 l 1
EndSplineSet
Validated: 1048577
Substitution2: "'smcp' Lowercase to Small Capitals lookup 35 subtable" ecircumflex.sc
Substitution2: "'aalt' Access All Alternates lookup 0 subtable" ecircumflex.sc
EndChar

StartChar: edieresis
Encoding: 235 235 173
Width: 563
GlyphClass: 2
Flags: HW
AnchorPoint: "Anchor-2" 657 536 basechar 0
AnchorPoint: "Anchor-1" 439 737 basechar 0
AnchorPoint: "Anchor-0" 282 0 basechar 0
LayerCount: 2
Fore
SplineSet
524 619 m 0
 500 619 481 632 481 661 c 0
 481 666 482 672 483 679 c 0
 492 720 520 737 549 737 c 0
 574 737 592 725 592 696 c 0
 592 691 591 685 590 679 c 0
 581 638 553 619 524 619 c 0
310 619 m 0
 286 619 267 632 267 661 c 0
 267 666 268 672 269 679 c 0
 278 720 306 737 335 737 c 0
 359 737 377 725 377 697 c 0
 377 692 376 686 375 679 c 0
 366 638 339 619 310 619 c 0
316 -10 m 0
 180 -10 102 58 102 184 c 0
 102 209 105 236 111 265 c 0
 148 441 264 546 408 546 c 0
 520 546 580 480 580 372 c 0
 580 349 578 323 572 296 c 2
 562 250 l 1
 196 250 l 1
 192 229 190 210 190 193 c 0
 190 101 245 64 336 64 c 0
 393 64 448 80 509 107 c 1
 492 28 l 1
 430 1 372 -10 316 -10 c 0
490 322 m 1
 493 338 495 352 495 366 c 0
 495 433 461 473 393 473 c 0
 310 473 244 416 213 322 c 1
 490 322 l 1
EndSplineSet
Validated: 1048577
Substitution2: "'smcp' Lowercase to Small Capitals lookup 35 subtable" edieresis.sc
Substitution2: "'aalt' Access All Alternates lookup 0 subtable" edieresis.sc
EndChar

StartChar: igrave
Encoding: 236 236 174
Width: 563
GlyphClass: 2
Flags: HW
AnchorPoint: "Anchor-3" 357 284 basechar 0
AnchorPoint: "Anchor-1" 445 766 basechar 0
AnchorPoint: "Anchor-0" 282 0 basechar 0
LayerCount: 2
Fore
SplineSet
425 606 m 1
 389 641 334 717 318 756 c 1
 320 766 l 1
 422 766 l 1
 434 721 462 655 484 618 c 1
 482 606 l 1
 425 606 l 1
78 0 m 1
 91 60 l 1
 267 73 l 1
 349 462 l 1
 191 475 l 1
 204 536 l 1
 452 536 l 1
 354 73 l 1
 511 60 l 1
 498 0 l 1
 78 0 l 1
EndSplineSet
Validated: 1048577
Substitution2: "'smcp' Lowercase to Small Capitals lookup 35 subtable" igrave.sc
Substitution2: "'aalt' Access All Alternates lookup 0 subtable" igrave.sc
EndChar

StartChar: iacute
Encoding: 237 237 175
Width: 563
GlyphClass: 2
Flags: HW
AnchorPoint: "Anchor-3" 357 284 basechar 0
AnchorPoint: "Anchor-1" 445 766 basechar 0
AnchorPoint: "Anchor-0" 282 0 basechar 0
LayerCount: 2
Fore
SplineSet
367 618 m 1
 409 661 460 721 492 766 c 1
 595 766 l 1
 593 756 l 1
 560 718 474 642 421 606 c 1
 365 606 l 1
 367 618 l 1
78 0 m 1
 91 60 l 1
 267 73 l 1
 349 462 l 1
 191 475 l 1
 204 536 l 1
 452 536 l 1
 354 73 l 1
 511 60 l 1
 498 0 l 1
 78 0 l 1
EndSplineSet
Validated: 1048577
Substitution2: "'smcp' Lowercase to Small Capitals lookup 35 subtable" iacute.sc
Substitution2: "'aalt' Access All Alternates lookup 0 subtable" iacute.sc
EndChar

StartChar: icircumflex
Encoding: 238 238 176
Width: 563
GlyphClass: 2
Flags: HW
AnchorPoint: "Anchor-3" 357 284 basechar 0
AnchorPoint: "Anchor-1" 445 766 basechar 0
AnchorPoint: "Anchor-0" 282 0 basechar 0
LayerCount: 2
Fore
SplineSet
258 617 m 1
 303 659 369 722 401 766 c 1
 486 766 l 1
 499 721 541 657 568 617 c 1
 566 606 l 1
 510 606 l 1
 483 629 455 666 429 702 c 1
 387 666 346 628 310 606 c 1
 256 606 l 1
 258 617 l 1
78 0 m 1
 91 60 l 1
 267 73 l 1
 349 462 l 1
 191 475 l 1
 204 536 l 1
 452 536 l 1
 354 73 l 1
 511 60 l 1
 498 0 l 1
 78 0 l 1
EndSplineSet
Validated: 1048577
Substitution2: "'smcp' Lowercase to Small Capitals lookup 35 subtable" icircumflex.sc
Substitution2: "'aalt' Access All Alternates lookup 0 subtable" icircumflex.sc
EndChar

StartChar: idieresis
Encoding: 239 239 177
Width: 563
GlyphClass: 2
Flags: HW
AnchorPoint: "Anchor-3" 357 284 basechar 0
AnchorPoint: "Anchor-1" 439 737 basechar 0
AnchorPoint: "Anchor-0" 282 0 basechar 0
LayerCount: 2
Fore
SplineSet
520 619 m 0
 496 619 477 632 477 661 c 0
 477 666 478 672 479 679 c 0
 488 720 516 737 545 737 c 0
 570 737 588 725 588 696 c 0
 588 691 587 685 586 679 c 0
 577 638 549 619 520 619 c 0
306 619 m 0
 282 619 263 632 263 661 c 0
 263 666 264 672 265 679 c 0
 274 720 302 737 331 737 c 0
 355 737 373 725 373 697 c 0
 373 692 372 686 371 679 c 0
 362 638 335 619 306 619 c 0
78 0 m 1
 91 60 l 1
 267 73 l 1
 349 462 l 1
 191 475 l 1
 204 536 l 1
 452 536 l 1
 354 73 l 1
 511 60 l 1
 498 0 l 1
 78 0 l 1
EndSplineSet
Validated: 1048577
Substitution2: "'smcp' Lowercase to Small Capitals lookup 35 subtable" idieresis.sc
Substitution2: "'aalt' Access All Alternates lookup 0 subtable" idieresis.sc
EndChar

StartChar: eth
Encoding: 240 240 178
Width: 563
GlyphClass: 2
Flags: HW
AnchorPoint: "Anchor-3" 339 268 basechar 0
AnchorPoint: "Anchor-2" 705 760 basechar 0
AnchorPoint: "Anchor-1" 445 765 basechar 0
AnchorPoint: "Anchor-0" 282 0 basechar 0
LayerCount: 2
Fore
SplineSet
281 -10 m 0
 163 -10 92 59 92 169 c 0
 92 189 95 210 100 233 c 0
 132 383 237 473 373 473 c 0
 438 473 484 456 506 418 c 1
 510 420 l 1
 504 493 474 557 429 610 c 1
 297 541 l 1
 272 596 l 1
 385 655 l 1
 364 674 341 691 316 707 c 1
 365 765 l 1
 402 745 434 721 461 694 c 1
 591 762 l 1
 615 708 l 1
 502 648 l 1
 556 576 585 488 585 389 c 0
 585 351 581 312 572 272 c 0
 532 85 425 -10 281 -10 c 0
298 62 m 0
 396 62 453 127 479 249 c 0
 482 264 484 278 484 292 c 0
 484 355 449 402 370 402 c 0
 267 402 210 342 186 230 c 0
 182 211 180 193 180 176 c 0
 180 108 215 62 298 62 c 0
EndSplineSet
Validated: 1
Substitution2: "'smcp' Lowercase to Small Capitals lookup 35 subtable" eth.sc
Substitution2: "'aalt' Access All Alternates lookup 0 subtable" eth.sc
EndChar

StartChar: ntilde
Encoding: 241 241 179
Width: 563
GlyphClass: 2
Flags: HW
AnchorPoint: "Anchor-2" 657 536 basechar 0
AnchorPoint: "Anchor-1" 438 734 basechar 0
AnchorPoint: "Anchor-0" 282 0 basechar 0
LayerCount: 2
Fore
SplineSet
254 607 m 1
 277 680 321 733 381 733 c 0
 435 733 467 676 508 676 c 0
 535 676 551 696 567 734 c 1
 618 734 l 1
 594 656 548 608 491 608 c 0
 438 608 405 665 365 665 c 0
 337 665 321 645 305 607 c 1
 254 607 l 1
73 0 m 1
 187 536 l 1
 257 536 l 1
 253 460 l 1
 258 460 l 1
 301 519 366 546 439 546 c 0
 526 546 579 506 579 418 c 0
 579 399 576 378 571 355 c 2
 496 0 l 1
 409 0 l 1
 482 343 l 2
 486 362 488 378 488 393 c 0
 488 447 461 473 402 473 c 0
 303 473 246 401 219 276 c 2
 160 0 l 1
 73 0 l 1
EndSplineSet
Validated: 1048577
Substitution2: "'smcp' Lowercase to Small Capitals lookup 35 subtable" ntilde.sc
Substitution2: "'aalt' Access All Alternates lookup 0 subtable" ntilde.sc
EndChar

StartChar: ograve
Encoding: 242 242 180
Width: 563
GlyphClass: 2
Flags: HW
AnchorPoint: "Anchor-3" 339 268 basechar 0
AnchorPoint: "Anchor-2" 657 536 basechar 0
AnchorPoint: "Anchor-1" 445 766 basechar 0
AnchorPoint: "Anchor-0" 282 0 basechar 0
LayerCount: 2
Fore
SplineSet
425 606 m 1
 389 641 334 717 318 756 c 1
 320 766 l 1
 422 766 l 1
 434 721 462 655 484 618 c 1
 482 606 l 1
 425 606 l 1
281 -10 m 0
 168 -10 97 54 97 180 c 0
 97 207 100 237 107 270 c 0
 146 452 259 546 396 546 c 0
 508 546 581 482 581 356 c 0
 581 329 578 299 571 267 c 0
 532 85 417 -10 281 -10 c 0
295 62 m 0
 390 62 454 138 482 269 c 0
 488 299 492 325 492 349 c 0
 492 429 455 474 382 474 c 0
 287 474 222 400 194 269 c 0
 188 239 185 212 185 188 c 0
 185 107 221 62 295 62 c 0
EndSplineSet
Validated: 1
Substitution2: "'smcp' Lowercase to Small Capitals lookup 35 subtable" ograve.sc
Substitution2: "'aalt' Access All Alternates lookup 0 subtable" ograve.sc
EndChar

StartChar: oacute
Encoding: 243 243 181
Width: 563
GlyphClass: 2
Flags: HW
AnchorPoint: "Anchor-3" 339 268 basechar 0
AnchorPoint: "Anchor-2" 657 536 basechar 0
AnchorPoint: "Anchor-1" 445 766 basechar 0
AnchorPoint: "Anchor-0" 282 0 basechar 0
LayerCount: 2
Fore
SplineSet
367 618 m 1
 409 661 460 721 492 766 c 1
 595 766 l 1
 593 756 l 1
 560 718 474 642 421 606 c 1
 365 606 l 1
 367 618 l 1
281 -10 m 0
 168 -10 97 54 97 180 c 0
 97 207 100 237 107 270 c 0
 146 452 259 546 396 546 c 0
 508 546 581 482 581 356 c 0
 581 329 578 299 571 267 c 0
 532 85 417 -10 281 -10 c 0
295 62 m 0
 390 62 454 138 482 269 c 0
 488 299 492 325 492 349 c 0
 492 429 455 474 382 474 c 0
 287 474 222 400 194 269 c 0
 188 239 185 212 185 188 c 0
 185 107 221 62 295 62 c 0
EndSplineSet
Validated: 1
Substitution2: "'smcp' Lowercase to Small Capitals lookup 35 subtable" oacute.sc
Substitution2: "'aalt' Access All Alternates lookup 0 subtable" oacute.sc
EndChar

StartChar: ocircumflex
Encoding: 244 244 182
Width: 563
GlyphClass: 2
Flags: HW
AnchorPoint: "Anchor-3" 339 268 basechar 0
AnchorPoint: "Anchor-2" 657 536 basechar 0
AnchorPoint: "Anchor-1" 445 766 basechar 0
AnchorPoint: "Anchor-0" 282 0 basechar 0
LayerCount: 2
Fore
SplineSet
258 617 m 1
 303 659 369 722 401 766 c 1
 486 766 l 1
 499 721 541 657 568 617 c 1
 566 606 l 1
 510 606 l 1
 483 629 455 666 429 702 c 1
 387 666 346 628 310 606 c 1
 256 606 l 1
 258 617 l 1
281 -10 m 0
 168 -10 97 54 97 180 c 0
 97 207 100 237 107 270 c 0
 146 452 259 546 396 546 c 0
 508 546 581 482 581 356 c 0
 581 329 578 299 571 267 c 0
 532 85 417 -10 281 -10 c 0
295 62 m 0
 390 62 454 138 482 269 c 0
 488 299 492 325 492 349 c 0
 492 429 455 474 382 474 c 0
 287 474 222 400 194 269 c 0
 188 239 185 212 185 188 c 0
 185 107 221 62 295 62 c 0
EndSplineSet
Validated: 1
Substitution2: "'smcp' Lowercase to Small Capitals lookup 35 subtable" ocircumflex.sc
Substitution2: "'aalt' Access All Alternates lookup 0 subtable" ocircumflex.sc
EndChar

StartChar: otilde
Encoding: 245 245 183
Width: 563
GlyphClass: 2
Flags: HW
AnchorPoint: "Anchor-3" 339 268 basechar 0
AnchorPoint: "Anchor-2" 657 536 basechar 0
AnchorPoint: "Anchor-1" 438 734 basechar 0
AnchorPoint: "Anchor-0" 282 0 basechar 0
LayerCount: 2
Fore
SplineSet
242 607 m 1
 266 680 309 733 370 733 c 0
 423 733 456 676 496 676 c 0
 524 676 539 696 556 734 c 1
 606 734 l 1
 582 656 536 608 480 608 c 0
 427 608 394 665 354 665 c 0
 325 665 309 645 293 607 c 1
 242 607 l 1
281 -10 m 0
 168 -10 97 54 97 180 c 0
 97 207 100 237 107 270 c 0
 146 452 259 546 396 546 c 0
 508 546 581 482 581 356 c 0
 581 329 578 299 571 267 c 0
 532 85 417 -10 281 -10 c 0
295 62 m 0
 390 62 454 138 482 269 c 0
 488 299 492 325 492 349 c 0
 492 429 455 474 382 474 c 0
 287 474 222 400 194 269 c 0
 188 239 185 212 185 188 c 0
 185 107 221 62 295 62 c 0
EndSplineSet
Validated: 1
Substitution2: "'smcp' Lowercase to Small Capitals lookup 35 subtable" otilde.sc
Substitution2: "'aalt' Access All Alternates lookup 0 subtable" otilde.sc
EndChar

StartChar: odieresis
Encoding: 246 246 184
Width: 563
GlyphClass: 2
Flags: HW
AnchorPoint: "Anchor-3" 339 268 basechar 0
AnchorPoint: "Anchor-2" 657 536 basechar 0
AnchorPoint: "Anchor-1" 439 737 basechar 0
AnchorPoint: "Anchor-0" 282 0 basechar 0
LayerCount: 2
Fore
SplineSet
520 619 m 0
 496 619 477 632 477 661 c 0
 477 666 478 672 479 679 c 0
 488 720 516 737 545 737 c 0
 570 737 588 725 588 696 c 0
 588 691 587 685 586 679 c 0
 577 638 549 619 520 619 c 0
306 619 m 0
 282 619 263 632 263 661 c 0
 263 666 264 672 265 679 c 0
 274 720 302 737 331 737 c 0
 355 737 373 725 373 697 c 0
 373 692 372 686 371 679 c 0
 362 638 335 619 306 619 c 0
281 -10 m 0
 168 -10 97 54 97 180 c 0
 97 207 100 237 107 270 c 0
 146 452 259 546 396 546 c 0
 508 546 581 482 581 356 c 0
 581 329 578 299 571 267 c 0
 532 85 417 -10 281 -10 c 0
295 62 m 0
 390 62 454 138 482 269 c 0
 488 299 492 325 492 349 c 0
 492 429 455 474 382 474 c 0
 287 474 222 400 194 269 c 0
 188 239 185 212 185 188 c 0
 185 107 221 62 295 62 c 0
EndSplineSet
Validated: 1
Substitution2: "'smcp' Lowercase to Small Capitals lookup 35 subtable" odieresis.sc
Substitution2: "'aalt' Access All Alternates lookup 0 subtable" odieresis.sc
EndChar

StartChar: divide
Encoding: 247 247 185
Width: 563
Flags: HW
LayerCount: 2
Fore
SplineSet
381 465 m 0
 355 465 338 478 338 506 c 0
 338 512 338 519 340 526 c 0
 349 569 375 587 407 587 c 0
 433 587 449 574 449 546 c 0
 449 540 449 534 447 526 c 0
 438 483 410 465 381 465 c 0
143 318 m 1
 157 388 l 1
 570 388 l 1
 556 318 l 1
 143 318 l 1
307 118 m 0
 281 118 264 131 264 159 c 0
 264 165 264 172 266 179 c 0
 275 223 301 240 333 240 c 0
 359 240 375 229 375 200 c 0
 375 194 375 187 373 179 c 0
 364 136 336 118 307 118 c 0
EndSplineSet
Validated: 1
EndChar

StartChar: oslash
Encoding: 248 248 186
Width: 563
GlyphClass: 2
Flags: HW
AnchorPoint: "Anchor-3" 339 268 basechar 0
AnchorPoint: "Anchor-2" 657 536 basechar 0
AnchorPoint: "Anchor-1" 396 536 basechar 0
AnchorPoint: "Anchor-0" 282 0 basechar 0
LayerCount: 2
Fore
SplineSet
116 -39 m 1
 67 -3 l 1
 125 63 l 1
 107 93 97 132 97 179 c 0
 97 206 100 237 107 270 c 0
 146 452 259 546 396 546 c 0
 446 546 487 534 519 509 c 1
 573 570 l 1
 623 534 l 1
 558 461 l 1
 573 433 581 398 581 356 c 0
 581 329 578 299 571 267 c 0
 532 85 417 -10 281 -10 c 0
 236 -10 198 0 168 20 c 1
 116 -39 l 1
194 269 m 0
 188 240 185 213 185 190 c 0
 185 170 187 153 191 137 c 1
 462 444 l 1
 443 464 417 474 382 474 c 0
 287 474 222 400 194 269 c 0
295 62 m 0
 390 62 454 138 482 269 c 0
 488 298 491 324 491 347 c 0
 491 360 490 372 488 383 c 1
 225 84 l 1
 242 70 265 62 295 62 c 0
EndSplineSet
Validated: 1
Substitution2: "'smcp' Lowercase to Small Capitals lookup 35 subtable" oslash.sc
Substitution2: "'aalt' Access All Alternates lookup 0 subtable" oslash.sc
EndChar

StartChar: ugrave
Encoding: 249 249 187
Width: 563
GlyphClass: 2
Flags: HW
AnchorPoint: "Anchor-2" 657 536 basechar 0
AnchorPoint: "Anchor-1" 445 766 basechar 0
AnchorPoint: "Anchor-0" 282 0 basechar 0
LayerCount: 2
Fore
SplineSet
425 606 m 1
 389 641 334 717 318 756 c 1
 320 766 l 1
 422 766 l 1
 434 721 462 655 484 618 c 1
 482 606 l 1
 425 606 l 1
241 -10 m 0
 146 -10 98 31 98 114 c 0
 98 133 101 154 106 177 c 2
 182 536 l 1
 269 536 l 1
 196 192 l 2
 192 173 190 156 190 141 c 0
 190 87 217 63 280 63 c 0
 380 63 433 135 459 259 c 2
 518 536 l 1
 605 536 l 1
 491 0 l 1
 420 0 l 1
 422 72 l 1
 417 72 l 1
 370 13 312 -10 241 -10 c 0
EndSplineSet
Validated: 1048577
Substitution2: "'smcp' Lowercase to Small Capitals lookup 35 subtable" ugrave.sc
Substitution2: "'aalt' Access All Alternates lookup 0 subtable" ugrave.sc
EndChar

StartChar: uacute
Encoding: 250 250 188
Width: 563
GlyphClass: 2
Flags: HW
AnchorPoint: "Anchor-2" 657 536 basechar 0
AnchorPoint: "Anchor-1" 445 766 basechar 0
AnchorPoint: "Anchor-0" 282 0 basechar 0
LayerCount: 2
Fore
SplineSet
367 618 m 1
 409 661 460 721 492 766 c 1
 595 766 l 1
 593 756 l 1
 560 718 474 642 421 606 c 1
 365 606 l 1
 367 618 l 1
241 -10 m 0
 146 -10 98 31 98 114 c 0
 98 133 101 154 106 177 c 2
 182 536 l 1
 269 536 l 1
 196 192 l 2
 192 173 190 156 190 141 c 0
 190 87 217 63 280 63 c 0
 380 63 433 135 459 259 c 2
 518 536 l 1
 605 536 l 1
 491 0 l 1
 420 0 l 1
 422 72 l 1
 417 72 l 1
 370 13 312 -10 241 -10 c 0
EndSplineSet
Validated: 1048577
Substitution2: "'smcp' Lowercase to Small Capitals lookup 35 subtable" uacute.sc
Substitution2: "'aalt' Access All Alternates lookup 0 subtable" uacute.sc
EndChar

StartChar: ucircumflex
Encoding: 251 251 189
Width: 563
GlyphClass: 2
Flags: HW
AnchorPoint: "Anchor-2" 657 536 basechar 0
AnchorPoint: "Anchor-1" 445 766 basechar 0
AnchorPoint: "Anchor-0" 282 0 basechar 0
LayerCount: 2
Fore
SplineSet
258 617 m 1
 303 659 369 722 401 766 c 1
 486 766 l 1
 499 721 541 657 568 617 c 1
 566 606 l 1
 510 606 l 1
 483 629 455 666 429 702 c 1
 387 666 346 628 310 606 c 1
 256 606 l 1
 258 617 l 1
241 -10 m 0
 146 -10 98 31 98 114 c 0
 98 133 101 154 106 177 c 2
 182 536 l 1
 269 536 l 1
 196 192 l 2
 192 173 190 156 190 141 c 0
 190 87 217 63 280 63 c 0
 380 63 433 135 459 259 c 2
 518 536 l 1
 605 536 l 1
 491 0 l 1
 420 0 l 1
 422 72 l 1
 417 72 l 1
 370 13 312 -10 241 -10 c 0
EndSplineSet
Validated: 1048577
Substitution2: "'smcp' Lowercase to Small Capitals lookup 35 subtable" ucircumflex.sc
Substitution2: "'aalt' Access All Alternates lookup 0 subtable" ucircumflex.sc
EndChar

StartChar: udieresis
Encoding: 252 252 190
Width: 563
GlyphClass: 2
Flags: HW
AnchorPoint: "Anchor-2" 657 536 basechar 0
AnchorPoint: "Anchor-1" 439 737 basechar 0
AnchorPoint: "Anchor-0" 282 0 basechar 0
LayerCount: 2
Fore
SplineSet
520 619 m 0
 496 619 477 632 477 661 c 0
 477 666 478 672 479 679 c 0
 488 720 516 737 545 737 c 0
 570 737 588 725 588 696 c 0
 588 691 587 685 586 679 c 0
 577 638 549 619 520 619 c 0
306 619 m 0
 282 619 263 632 263 661 c 0
 263 666 264 672 265 679 c 0
 274 720 302 737 331 737 c 0
 355 737 373 725 373 697 c 0
 373 692 372 686 371 679 c 0
 362 638 335 619 306 619 c 0
241 -10 m 0
 146 -10 98 31 98 114 c 0
 98 133 101 154 106 177 c 2
 182 536 l 1
 269 536 l 1
 196 192 l 2
 192 173 190 156 190 141 c 0
 190 87 217 63 280 63 c 0
 380 63 433 135 459 259 c 2
 518 536 l 1
 605 536 l 1
 491 0 l 1
 420 0 l 1
 422 72 l 1
 417 72 l 1
 370 13 312 -10 241 -10 c 0
EndSplineSet
Validated: 1048577
Substitution2: "'smcp' Lowercase to Small Capitals lookup 35 subtable" udieresis.sc
Substitution2: "'aalt' Access All Alternates lookup 0 subtable" udieresis.sc
EndChar

StartChar: yacute
Encoding: 253 253 191
Width: 563
GlyphClass: 2
Flags: HW
AnchorPoint: "Anchor-2" 657 536 basechar 0
AnchorPoint: "Anchor-1" 445 766 basechar 0
AnchorPoint: "Anchor-0" 230 -245 basechar 0
LayerCount: 2
Fore
SplineSet
367 618 m 1
 409 661 460 721 492 766 c 1
 595 766 l 1
 593 756 l 1
 560 718 474 642 421 606 c 1
 365 606 l 1
 367 618 l 1
74 -245 m 0
 49 -245 26 -241 7 -237 c 1
 21 -168 l 1
 36 -171 59 -174 79 -174 c 0
 135 -174 166 -147 206 -78 c 2
 250 -5 l 1
 154 536 l 1
 240 536 l 1
 292 222 l 2
 299 177 305 124 307 79 c 1
 310 79 l 1
 331 125 359 181 381 223 c 2
 547 536 l 1
 637 536 l 1
 295 -70 l 2
 236 -174 179 -245 74 -245 c 0
EndSplineSet
Validated: 1048577
Substitution2: "'smcp' Lowercase to Small Capitals lookup 35 subtable" yacute.sc
Substitution2: "'aalt' Access All Alternates lookup 0 subtable" yacute.sc
EndChar

StartChar: thorn
Encoding: 254 254 192
Width: 563
GlyphClass: 2
Flags: HW
AnchorPoint: "Anchor-1" 464 760 basechar 0
AnchorPoint: "Anchor-0" 251 -240 basechar 0
LayerCount: 2
Fore
SplineSet
22 -240 m 1
 235 760 l 1
 321 760 l 1
 276 549 l 2
 269 518 262 492 253 463 c 1
 257 463 l 1
 298 513 353 546 428 546 c 0
 526 546 583 486 583 370 c 0
 583 340 579 306 571 269 c 0
 532 86 432 -10 309 -10 c 0
 236 -10 196 27 174 69 c 1
 168 69 l 1
 166 42 163 15 157 -11 c 2
 108 -240 l 1
 22 -240 l 1
305 63 m 0
 395 63 453 133 482 271 c 0
 489 305 493 335 493 361 c 0
 493 436 461 473 392 473 c 0
 299 473 245 407 220 289 c 2
 216 269 l 2
 209 234 205 204 205 177 c 0
 205 105 234 63 305 63 c 0
EndSplineSet
Validated: 1048577
Substitution2: "'smcp' Lowercase to Small Capitals lookup 35 subtable" thorn.sc
Substitution2: "'aalt' Access All Alternates lookup 0 subtable" thorn.sc
EndChar

StartChar: ydieresis
Encoding: 255 255 193
Width: 563
GlyphClass: 2
Flags: HW
AnchorPoint: "Anchor-2" 657 536 basechar 0
AnchorPoint: "Anchor-1" 439 737 basechar 0
AnchorPoint: "Anchor-0" 230 -245 basechar 0
LayerCount: 2
Fore
SplineSet
520 619 m 0
 496 619 477 632 477 661 c 0
 477 666 478 672 479 679 c 0
 488 720 516 737 545 737 c 0
 570 737 588 725 588 696 c 0
 588 691 587 685 586 679 c 0
 577 638 549 619 520 619 c 0
306 619 m 0
 282 619 263 632 263 661 c 0
 263 666 264 672 265 679 c 0
 274 720 302 737 331 737 c 0
 355 737 373 725 373 697 c 0
 373 692 372 686 371 679 c 0
 362 638 335 619 306 619 c 0
74 -245 m 0
 49 -245 26 -241 7 -237 c 1
 21 -168 l 1
 36 -171 59 -174 79 -174 c 0
 135 -174 166 -147 206 -78 c 2
 250 -5 l 1
 154 536 l 1
 240 536 l 1
 292 222 l 2
 299 177 305 124 307 79 c 1
 310 79 l 1
 331 125 359 181 381 223 c 2
 547 536 l 1
 637 536 l 1
 295 -70 l 2
 236 -174 179 -245 74 -245 c 0
EndSplineSet
Validated: 1048577
Substitution2: "'smcp' Lowercase to Small Capitals lookup 35 subtable" ydieresis.sc
Substitution2: "'aalt' Access All Alternates lookup 0 subtable" ydieresis.sc
EndChar

StartChar: Amacron
Encoding: 256 256 194
Width: 563
GlyphClass: 2
Flags: HW
AnchorPoint: "Anchor-2" 695 714 basechar 0
AnchorPoint: "Anchor-1" 466 867 basechar 0
AnchorPoint: "Anchor-0" 282 0 basechar 0
LayerCount: 2
Fore
SplineSet
313 800 m 1
 327 867 l 1
 604 867 l 1
 590 800 l 1
 313 800 l 1
20 0 m 1
 383 716 l 1
 483 716 l 1
 543 0 l 1
 454 0 l 1
 439 222 l 1
 218 222 l 1
 109 0 l 1
 20 0 l 1
365 521 m 2
 256 300 l 1
 434 300 l 1
 419 521 l 2
 417 549 414 594 414 631 c 1
 399 594 378 548 365 521 c 2
EndSplineSet
Validated: 1048577
Substitution2: "'c2sc' Capitals to Small Capitals lookup 34 subtable" amacron.sc
Substitution2: "'aalt' Access All Alternates lookup 0 subtable" amacron.sc
EndChar

StartChar: amacron
Encoding: 257 257 195
Width: 563
GlyphClass: 2
Flags: HW
AnchorPoint: "Anchor-2" 657 536 basechar 0
AnchorPoint: "Anchor-1" 428 689 basechar 0
AnchorPoint: "Anchor-0" 282 0 basechar 0
LayerCount: 2
Fore
SplineSet
284 622 m 1
 298 689 l 1
 575 689 l 1
 561 622 l 1
 284 622 l 1
230 -10 m 0
 147 -10 93 28 93 105 c 0
 93 118 94 133 97 148 c 0
 121 263 213 318 363 322 c 2
 472 325 l 1
 478 351 l 2
 481 366 482 379 482 391 c 0
 482 452 442 473 380 473 c 0
 326 473 271 457 223 432 c 1
 206 499 l 1
 263 525 324 546 400 546 c 0
 508 546 567 505 567 417 c 0
 567 400 565 382 561 362 c 2
 484 0 l 1
 416 0 l 1
 419 75 l 1
 415 75 l 1
 362 19 304 -10 230 -10 c 0
263 63 m 0
 343 63 425 111 447 214 c 2
 458 262 l 1
 370 259 l 2
 253 255 198 218 184 151 c 0
 182 142 181 133 181 126 c 0
 181 81 214 63 263 63 c 0
EndSplineSet
Validated: 1048577
Substitution2: "'smcp' Lowercase to Small Capitals lookup 35 subtable" amacron.sc
Substitution2: "'aalt' Access All Alternates lookup 0 subtable" amacron.sc
EndChar

StartChar: Abreve
Encoding: 258 258 196
Width: 563
GlyphClass: 2
Flags: HW
AnchorPoint: "Anchor-2" 695 714 basechar 0
AnchorPoint: "Anchor-1" 477 918 basechar 0
AnchorPoint: "Anchor-0" 282 0 basechar 0
LayerCount: 2
Fore
SplineSet
446 786 m 0
 370 786 330 825 330 888 c 0
 330 898 331 907 333 918 c 1
 389 918 l 1
 387 863 422 847 461 847 c 0
 502 847 542 863 563 918 c 1
 620 918 l 1
 601 839 537 786 446 786 c 0
20 0 m 1
 383 716 l 1
 483 716 l 1
 543 0 l 1
 454 0 l 1
 439 222 l 1
 218 222 l 1
 109 0 l 1
 20 0 l 1
365 521 m 2
 256 300 l 1
 434 300 l 1
 419 521 l 2
 417 549 414 594 414 631 c 1
 399 594 378 548 365 521 c 2
EndSplineSet
Validated: 1048609
Substitution2: "'c2sc' Capitals to Small Capitals lookup 34 subtable" abreve.sc
Substitution2: "'aalt' Access All Alternates lookup 0 subtable" abreve.sc
EndChar

StartChar: abreve
Encoding: 259 259 197
Width: 563
GlyphClass: 2
Flags: HW
AnchorPoint: "Anchor-2" 657 536 basechar 0
AnchorPoint: "Anchor-1" 439 740 basechar 0
AnchorPoint: "Anchor-0" 282 0 basechar 0
LayerCount: 2
Fore
SplineSet
417 608 m 0
 341 608 301 647 301 710 c 0
 301 720 302 729 304 740 c 1
 360 740 l 1
 358 685 393 669 432 669 c 0
 472 669 512 685 534 740 c 1
 590 740 l 1
 572 661 507 608 417 608 c 0
230 -10 m 0
 147 -10 93 28 93 105 c 0
 93 118 94 133 97 148 c 0
 121 263 213 318 363 322 c 2
 472 325 l 1
 478 351 l 2
 481 366 482 379 482 391 c 0
 482 452 442 473 380 473 c 0
 326 473 271 457 223 432 c 1
 206 499 l 1
 263 525 324 546 400 546 c 0
 508 546 567 505 567 417 c 0
 567 400 565 382 561 362 c 2
 484 0 l 1
 416 0 l 1
 419 75 l 1
 415 75 l 1
 362 19 304 -10 230 -10 c 0
263 63 m 0
 343 63 425 111 447 214 c 2
 458 262 l 1
 370 259 l 2
 253 255 198 218 184 151 c 0
 182 142 181 133 181 126 c 0
 181 81 214 63 263 63 c 0
EndSplineSet
Validated: 1048609
Substitution2: "'smcp' Lowercase to Small Capitals lookup 35 subtable" abreve.sc
Substitution2: "'aalt' Access All Alternates lookup 0 subtable" abreve.sc
EndChar

StartChar: Aogonek
Encoding: 260 260 198
Width: 563
GlyphClass: 2
Flags: HW
AnchorPoint: "Anchor-2" 695 714 basechar 0
AnchorPoint: "Anchor-1" 434 714 basechar 0
AnchorPoint: "Anchor-0" 235 -221 basechar 0
LayerCount: 2
Fore
SplineSet
20 0 m 1
 383 716 l 1
 483 716 l 1
 543 0 l 1
 490 -43 462 -77 454 -115 c 0
 453 -121 452 -126 452 -131 c 0
 452 -154 466 -163 492 -163 c 0
 506 -163 522 -160 532 -157 c 1
 520 -213 l 1
 503 -218 485 -221 462 -221 c 0
 404 -221 377 -196 377 -156 c 0
 377 -149 378 -140 380 -132 c 0
 392 -77 435 -32 479 0 c 1
 454 0 l 1
 439 222 l 1
 218 222 l 1
 109 0 l 1
 20 0 l 1
365 521 m 2
 256 300 l 1
 434 300 l 1
 419 521 l 2
 417 549 414 594 414 631 c 1
 399 594 378 548 365 521 c 2
EndSplineSet
Validated: 1048577
Substitution2: "'c2sc' Capitals to Small Capitals lookup 34 subtable" aogonek.sc
Substitution2: "'locl' Localized Forms in Latin lookup 10 subtable" Aogonek.loclNAV
Ligature2: "'ccmp' Glyph Composition/Decomposition lookup 6 subtable" A uni0328
AlternateSubs2: "'aalt' Access All Alternates lookup 1 subtable" Aogonek.loclNAV aogonek.sc
EndChar

StartChar: aogonek
Encoding: 261 261 199
Width: 563
GlyphClass: 2
Flags: HW
AnchorPoint: "Anchor-2" 657 536 basechar 0
AnchorPoint: "Anchor-1" 396 536 basechar 0
AnchorPoint: "Anchor-0" 235 -221 basechar 0
LayerCount: 2
Fore
SplineSet
230 -10 m 0
 147 -10 93 28 93 105 c 0
 93 118 94 133 97 148 c 0
 121 263 213 318 363 322 c 2
 472 325 l 1
 478 351 l 2
 481 366 482 379 482 391 c 0
 482 452 442 473 380 473 c 0
 326 473 271 457 223 432 c 1
 206 499 l 1
 263 525 324 546 400 546 c 0
 508 546 567 505 567 417 c 0
 567 400 565 382 561 362 c 2
 484 0 l 1
 480 0 l 1
 426 -43 399 -77 391 -115 c 0
 390 -121 389 -126 389 -131 c 0
 389 -153 402 -163 429 -163 c 0
 443 -163 458 -160 469 -157 c 1
 457 -213 l 1
 439 -218 421 -221 399 -221 c 0
 341 -221 314 -196 314 -156 c 0
 314 -149 315 -140 317 -132 c 0
 329 -77 372 -32 416 0 c 1
 419 75 l 1
 415 75 l 1
 362 19 304 -10 230 -10 c 0
263 63 m 0
 343 63 425 111 447 214 c 2
 458 262 l 1
 370 259 l 2
 253 255 198 218 184 151 c 0
 182 142 181 133 181 126 c 0
 181 81 214 63 263 63 c 0
EndSplineSet
Validated: 1048577
Substitution2: "'smcp' Lowercase to Small Capitals lookup 35 subtable" aogonek.sc
Substitution2: "'locl' Localized Forms in Latin lookup 10 subtable" aogonek.loclNAV
Ligature2: "'ccmp' Glyph Composition/Decomposition lookup 6 subtable" a uni0328
AlternateSubs2: "'aalt' Access All Alternates lookup 1 subtable" aogonek.loclNAV aogonek.sc
EndChar

StartChar: Cacute
Encoding: 262 262 200
Width: 563
GlyphClass: 2
Flags: HW
AnchorPoint: "Anchor-2" 695 714 basechar 0
AnchorPoint: "Anchor-1" 548 944 basechar 0
AnchorPoint: "Anchor-0" 340 0 basechar 0
LayerCount: 2
Fore
SplineSet
464 796 m 1
 505 839 556 899 589 944 c 1
 691 944 l 1
 689 934 l 1
 656 896 571 820 518 784 c 1
 462 784 l 1
 464 796 l 1
342 -10 m 0
 187 -10 117 82 117 228 c 0
 117 267 122 310 132 357 c 0
 179 577 314 725 504 725 c 0
 569 725 624 710 668 684 c 1
 619 612 l 1
 585 634 537 647 488 647 c 0
 354 647 260 535 222 357 c 0
 213 315 208 277 208 243 c 0
 208 134 256 70 364 70 c 0
 411 70 463 80 515 99 c 1
 498 18 l 1
 444 -2 398 -10 342 -10 c 0
EndSplineSet
Validated: 1048577
Substitution2: "'c2sc' Capitals to Small Capitals lookup 34 subtable" cacute.sc
Substitution2: "'aalt' Access All Alternates lookup 0 subtable" cacute.sc
EndChar

StartChar: cacute
Encoding: 263 263 201
Width: 563
GlyphClass: 2
Flags: HW
AnchorPoint: "Anchor-2" 657 536 basechar 0
AnchorPoint: "Anchor-1" 494 766 basechar 0
AnchorPoint: "Anchor-0" 310 0 basechar 0
LayerCount: 2
Fore
SplineSet
398 618 m 1
 439 661 490 721 523 766 c 1
 625 766 l 1
 623 756 l 1
 590 718 504 642 452 606 c 1
 396 606 l 1
 398 618 l 1
322 -10 m 0
 199 -10 125 44 125 170 c 0
 125 198 129 229 136 264 c 0
 180 470 301 546 446 546 c 0
 505 546 551 534 590 512 c 1
 548 440 l 1
 513 462 479 470 435 470 c 0
 320 470 255 404 226 266 c 0
 220 237 216 210 216 188 c 0
 216 102 261 66 346 66 c 0
 399 66 452 80 495 98 c 1
 478 20 l 1
 434 1 377 -10 322 -10 c 0
EndSplineSet
Validated: 1048577
Substitution2: "'smcp' Lowercase to Small Capitals lookup 35 subtable" cacute.sc
Substitution2: "'aalt' Access All Alternates lookup 0 subtable" cacute.sc
EndChar

StartChar: Ccircumflex
Encoding: 264 264 202
Width: 563
GlyphClass: 2
Flags: HW
AnchorPoint: "Anchor-2" 695 714 basechar 0
AnchorPoint: "Anchor-1" 539 944 basechar 0
AnchorPoint: "Anchor-0" 340 0 basechar 0
LayerCount: 2
Fore
SplineSet
354 795 m 1
 400 837 465 900 498 944 c 1
 583 944 l 1
 596 899 637 835 664 795 c 1
 662 784 l 1
 607 784 l 1
 579 807 552 844 526 880 c 1
 484 844 443 806 407 784 c 1
 352 784 l 1
 354 795 l 1
342 -10 m 0
 187 -10 117 82 117 228 c 0
 117 267 122 310 132 357 c 0
 179 577 314 725 504 725 c 0
 569 725 624 710 668 684 c 1
 619 612 l 1
 585 634 537 647 488 647 c 0
 354 647 260 535 222 357 c 0
 213 315 208 277 208 243 c 0
 208 134 256 70 364 70 c 0
 411 70 463 80 515 99 c 1
 498 18 l 1
 444 -2 398 -10 342 -10 c 0
EndSplineSet
Validated: 1048577
Substitution2: "'c2sc' Capitals to Small Capitals lookup 34 subtable" ccircumflex.sc
Substitution2: "'aalt' Access All Alternates lookup 0 subtable" ccircumflex.sc
EndChar

StartChar: ccircumflex
Encoding: 265 265 203
Width: 563
GlyphClass: 2
Flags: HW
AnchorPoint: "Anchor-2" 657 536 basechar 0
AnchorPoint: "Anchor-1" 477 764 basechar 0
AnchorPoint: "Anchor-0" 337 0 basechar 0
LayerCount: 2
Fore
SplineSet
288 617 m 1
 334 659 399 722 432 766 c 1
 517 766 l 1
 530 721 571 657 598 617 c 1
 596 606 l 1
 541 606 l 1
 513 629 486 666 460 702 c 1
 418 666 377 628 341 606 c 1
 286 606 l 1
 288 617 l 1
322 -10 m 0
 199 -10 125 44 125 170 c 0
 125 198 129 229 136 264 c 0
 180 470 301 546 446 546 c 0
 505 546 551 534 590 512 c 1
 548 440 l 1
 513 462 479 470 435 470 c 0
 320 470 255 404 226 266 c 0
 220 237 216 210 216 188 c 0
 216 102 261 66 346 66 c 0
 399 66 452 80 495 98 c 1
 478 20 l 1
 434 1 377 -10 322 -10 c 0
EndSplineSet
Validated: 1048577
Substitution2: "'smcp' Lowercase to Small Capitals lookup 35 subtable" ccircumflex.sc
Substitution2: "'aalt' Access All Alternates lookup 0 subtable" ccircumflex.sc
EndChar

StartChar: Cdot
Encoding: 266 266 204
Width: 563
GlyphClass: 2
Flags: HW
AnchorPoint: "Anchor-2" 695 714 basechar 0
AnchorPoint: "Anchor-1" 533 910 basechar 0
AnchorPoint: "Anchor-0" 340 0 basechar 0
LayerCount: 2
Fore
SplineSet
510 803 m 0
 481 803 461 819 461 849 c 0
 461 855 462 860 463 867 c 0
 473 912 503 932 537 932 c 0
 566 932 586 918 586 886 c 0
 586 880 585 874 584 867 c 0
 575 824 544 803 510 803 c 0
342 -10 m 0
 187 -10 117 82 117 228 c 0
 117 267 122 310 132 357 c 0
 179 577 314 725 504 725 c 0
 569 725 624 710 668 684 c 1
 619 612 l 1
 585 634 537 647 488 647 c 0
 354 647 260 535 222 357 c 0
 213 315 208 277 208 243 c 0
 208 134 256 70 364 70 c 0
 411 70 463 80 515 99 c 1
 498 18 l 1
 444 -2 398 -10 342 -10 c 0
EndSplineSet
Validated: 1048577
Substitution2: "'c2sc' Capitals to Small Capitals lookup 34 subtable" cdotaccent.sc
Substitution2: "'aalt' Access All Alternates lookup 0 subtable" cdotaccent.sc
EndChar

StartChar: cdot
Encoding: 267 267 205
Width: 563
GlyphClass: 2
Flags: HW
AnchorPoint: "Anchor-2" 657 536 basechar 0
AnchorPoint: "Anchor-1" 468 732 basechar 0
AnchorPoint: "Anchor-0" 326 0 basechar 0
LayerCount: 2
Fore
SplineSet
446 633 m 0
 417 633 397 648 397 678 c 0
 397 684 398 689 399 696 c 0
 409 741 439 761 473 761 c 0
 502 761 522 747 522 715 c 0
 522 709 521 703 520 696 c 0
 511 654 480 633 446 633 c 0
322 -10 m 0
 199 -10 125 44 125 170 c 0
 125 198 129 229 136 264 c 0
 180 470 301 546 446 546 c 0
 505 546 551 534 590 512 c 1
 548 440 l 1
 513 462 479 470 435 470 c 0
 320 470 255 404 226 266 c 0
 220 237 216 210 216 188 c 0
 216 102 261 66 346 66 c 0
 399 66 452 80 495 98 c 1
 478 20 l 1
 434 1 377 -10 322 -10 c 0
EndSplineSet
Validated: 1048577
EndChar

StartChar: Ccaron
Encoding: 268 268 206
Width: 563
GlyphClass: 2
Flags: HW
AnchorPoint: "Anchor-2" 695 714 basechar 0
AnchorPoint: "Anchor-1" 540 944 basechar 0
AnchorPoint: "Anchor-0" 332 0 basechar 0
LayerCount: 2
Fore
SplineSet
464 784 m 1
 450 829 410 891 383 932 c 1
 386 944 l 1
 441 944 l 1
 467 921 496 887 520 851 c 1
 563 889 600 917 641 944 c 1
 696 944 l 1
 693 932 l 1
 650 893 582 829 549 784 c 1
 464 784 l 1
342 -10 m 0
 187 -10 117 82 117 228 c 0
 117 267 122 310 132 357 c 0
 179 577 314 725 504 725 c 0
 569 725 624 710 668 684 c 1
 619 612 l 1
 585 634 537 647 488 647 c 0
 354 647 260 535 222 357 c 0
 213 315 208 277 208 243 c 0
 208 134 256 70 364 70 c 0
 411 70 463 80 515 99 c 1
 498 18 l 1
 444 -2 398 -10 342 -10 c 0
EndSplineSet
Validated: 1048577
Substitution2: "'c2sc' Capitals to Small Capitals lookup 34 subtable" ccaron.sc
Substitution2: "'aalt' Access All Alternates lookup 0 subtable" ccaron.sc
EndChar

StartChar: ccaron
Encoding: 269 269 207
Width: 563
GlyphClass: 2
Flags: HW
AnchorPoint: "Anchor-2" 657 536 basechar 0
AnchorPoint: "Anchor-1" 476 766 basechar 0
AnchorPoint: "Anchor-0" 314 0 basechar 0
LayerCount: 2
Fore
SplineSet
398 606 m 1
 384 651 344 713 317 754 c 1
 320 766 l 1
 375 766 l 1
 401 743 430 709 454 673 c 1
 497 711 534 739 575 766 c 1
 630 766 l 1
 627 754 l 1
 584 715 516 651 483 606 c 1
 398 606 l 1
322 -10 m 0
 199 -10 125 44 125 170 c 0
 125 198 129 229 136 264 c 0
 180 470 301 546 446 546 c 0
 505 546 551 534 590 512 c 1
 548 440 l 1
 513 462 479 470 435 470 c 0
 320 470 255 404 226 266 c 0
 220 237 216 210 216 188 c 0
 216 102 261 66 346 66 c 0
 399 66 452 80 495 98 c 1
 478 20 l 1
 434 1 377 -10 322 -10 c 0
EndSplineSet
Validated: 1048577
Substitution2: "'smcp' Lowercase to Small Capitals lookup 35 subtable" ccaron.sc
Substitution2: "'aalt' Access All Alternates lookup 0 subtable" ccaron.sc
EndChar

StartChar: Dcaron
Encoding: 270 270 208
Width: 563
GlyphClass: 2
Flags: HW
AnchorPoint: "Anchor-3" 361 357 basechar 0
AnchorPoint: "Anchor-2" 715 714 basechar 0
AnchorPoint: "Anchor-1" 461 944 basechar 0
AnchorPoint: "Anchor-0" 282 0 basechar 0
LayerCount: 2
Fore
SplineSet
385 784 m 1
 371 829 331 891 304 932 c 1
 307 944 l 1
 362 944 l 1
 388 921 417 887 441 851 c 1
 484 889 521 917 562 944 c 1
 617 944 l 1
 614 932 l 1
 571 893 503 829 470 784 c 1
 385 784 l 1
61 0 m 1
 213 714 l 1
 392 714 l 2
 535 714 617 634 617 482 c 0
 617 447 613 408 604 365 c 0
 553 124 416 0 222 0 c 2
 61 0 l 1
232 78 m 2
 383 78 473 175 513 363 c 0
 522 404 526 439 526 470 c 0
 526 585 468 636 361 636 c 2
 283 636 l 1
 165 78 l 1
 232 78 l 2
EndSplineSet
Validated: 1
Substitution2: "'c2sc' Capitals to Small Capitals lookup 34 subtable" dcaron.sc
Substitution2: "'aalt' Access All Alternates lookup 0 subtable" dcaron.sc
EndChar

StartChar: dcaron
Encoding: 271 271 209
Width: 563
GlyphClass: 2
Flags: HW
AnchorPoint: "Anchor-3" 299 268 basechar 0
AnchorPoint: "Anchor-2" 691 760 basechar 0
AnchorPoint: "Anchor-1" 460 760 basechar 0
AnchorPoint: "Anchor-0" 267 0 basechar 0
LayerCount: 2
Fore
SplineSet
225 -10 m 0
 136 -10 84 47 84 159 c 0
 84 191 88 227 97 268 c 0
 135 449 225 546 347 546 c 0
 420 546 450 512 467 468 c 1
 473 468 l 1
 475 492 479 520 485 550 c 2
 530 760 l 1
 616 760 l 1
 454 0 l 1
 384 0 l 1
 388 72 l 1
 384 72 l 1
 346 24 294 -10 225 -10 c 0
622 611 m 1
 641 646 672 719 685 760 c 1
 772 760 l 1
 770 752 l 1
 753 715 705 642 668 600 c 1
 620 600 l 1
 622 611 l 1
260 63 m 0
 345 63 398 135 422 247 c 2
 426 267 l 2
 434 302 438 335 438 363 c 0
 438 430 414 473 351 473 c 0
 271 473 215 404 185 262 c 0
 177 226 173 194 173 168 c 0
 173 98 200 63 260 63 c 0
EndSplineSet
Validated: 1
Substitution2: "'smcp' Lowercase to Small Capitals lookup 35 subtable" dcaron.sc
Substitution2: "'aalt' Access All Alternates lookup 0 subtable" dcaron.sc
EndChar

StartChar: Dcroat
Encoding: 272 272 210
Width: 563
GlyphClass: 2
Flags: HW
AnchorPoint: "Anchor-3" 371 357 basechar 0
AnchorPoint: "Anchor-2" 725 714 basechar 0
AnchorPoint: "Anchor-1" 434 714 basechar 0
AnchorPoint: "Anchor-0" 282 0 basechar 0
LayerCount: 2
Fore
SplineSet
71 0 m 1
 139 320 l 1
 68 320 l 1
 84 396 l 1
 155 396 l 1
 223 714 l 1
 402 714 l 2
 545 714 627 634 627 482 c 0
 627 447 623 408 614 365 c 0
 563 124 426 0 232 0 c 2
 71 0 l 1
242 78 m 2
 393 78 483 175 523 363 c 0
 532 404 536 439 536 470 c 0
 536 585 478 636 371 636 c 2
 293 636 l 1
 242 396 l 1
 374 396 l 1
 358 320 l 1
 226 320 l 1
 175 78 l 1
 242 78 l 2
EndSplineSet
Validated: 1
Substitution2: "'c2sc' Capitals to Small Capitals lookup 34 subtable" dcroat.sc
Substitution2: "'aalt' Access All Alternates lookup 0 subtable" dcroat.sc
EndChar

StartChar: dcroat
Encoding: 273 273 211
Width: 563
GlyphClass: 2
Flags: HW
AnchorPoint: "Anchor-3" 339 268 basechar 0
AnchorPoint: "Anchor-2" 705 760 basechar 0
AnchorPoint: "Anchor-1" 444 760 basechar 0
AnchorPoint: "Anchor-0" 282 0 basechar 0
LayerCount: 2
Fore
SplineSet
253 -10 m 0
 154 -10 95 48 95 165 c 0
 95 195 99 229 107 266 c 0
 145 445 239 541 376 541 c 0
 448 541 486 507 503 463 c 1
 508 463 l 1
 511 487 513 516 519 542 c 2
 532 604 l 1
 357 604 l 1
 371 670 l 1
 546 670 l 1
 566 760 l 1
 653 760 l 1
 633 670 l 1
 705 670 l 1
 691 604 l 1
 619 604 l 1
 491 0 l 1
 421 0 l 1
 424 72 l 1
 420 72 l 1
 382 25 329 -10 253 -10 c 0
288 63 m 0
 379 63 433 133 457 244 c 2
 461 264 l 2
 468 298 473 330 473 357 c 0
 473 426 446 468 377 468 c 0
 286 468 224 399 194 258 c 0
 187 226 184 198 184 174 c 0
 184 100 216 63 288 63 c 0
EndSplineSet
Validated: 1
Substitution2: "'smcp' Lowercase to Small Capitals lookup 35 subtable" dcroat.sc
Substitution2: "'aalt' Access All Alternates lookup 0 subtable" dcroat.sc
EndChar

StartChar: Emacron
Encoding: 274 274 212
Width: 563
GlyphClass: 2
Flags: HW
AnchorPoint: "Anchor-2" 695 714 basechar 0
AnchorPoint: "Anchor-1" 475 867 basechar 0
AnchorPoint: "Anchor-0" 282 0 basechar 0
LayerCount: 2
Fore
SplineSet
316 800 m 1
 330 867 l 1
 608 867 l 1
 594 800 l 1
 316 800 l 1
84 0 m 1
 236 714 l 1
 640 714 l 1
 623 635 l 1
 307 635 l 1
 260 412 l 1
 557 412 l 1
 540 332 l 1
 243 332 l 1
 189 79 l 1
 505 79 l 1
 488 0 l 1
 84 0 l 1
EndSplineSet
Validated: 1048577
Substitution2: "'c2sc' Capitals to Small Capitals lookup 34 subtable" emacron.sc
Substitution2: "'aalt' Access All Alternates lookup 0 subtable" emacron.sc
EndChar

StartChar: emacron
Encoding: 275 275 213
Width: 563
GlyphClass: 2
Flags: HW
AnchorPoint: "Anchor-2" 657 536 basechar 0
AnchorPoint: "Anchor-1" 433 689 basechar 0
AnchorPoint: "Anchor-0" 282 0 basechar 0
LayerCount: 2
Fore
SplineSet
279 622 m 1
 293 689 l 1
 570 689 l 1
 556 622 l 1
 279 622 l 1
316 -10 m 0
 180 -10 102 58 102 184 c 0
 102 209 105 236 111 265 c 0
 148 441 264 546 408 546 c 0
 520 546 580 480 580 372 c 0
 580 349 578 323 572 296 c 2
 562 250 l 1
 196 250 l 1
 192 229 190 210 190 193 c 0
 190 101 245 64 336 64 c 0
 393 64 448 80 509 107 c 1
 492 28 l 1
 430 1 372 -10 316 -10 c 0
490 322 m 1
 493 338 495 352 495 366 c 0
 495 433 461 473 393 473 c 0
 310 473 244 416 213 322 c 1
 490 322 l 1
EndSplineSet
Validated: 1048577
Substitution2: "'smcp' Lowercase to Small Capitals lookup 35 subtable" emacron.sc
Substitution2: "'aalt' Access All Alternates lookup 0 subtable" emacron.sc
EndChar

StartChar: Ebreve
Encoding: 276 276 214
Width: 563
GlyphClass: 2
Flags: HW
AnchorPoint: "Anchor-2" 695 714 basechar 0
AnchorPoint: "Anchor-1" 479 918 basechar 0
AnchorPoint: "Anchor-0" 282 0 basechar 0
LayerCount: 2
Fore
SplineSet
450 786 m 0
 374 786 334 825 334 888 c 0
 334 898 335 907 337 918 c 1
 393 918 l 1
 393 916 393 914 393 912 c 0
 393 862 426 847 464 847 c 0
 505 847 545 863 567 918 c 1
 623 918 l 1
 604 839 540 786 450 786 c 0
84 0 m 1
 236 714 l 1
 640 714 l 1
 623 635 l 1
 307 635 l 1
 260 412 l 1
 557 412 l 1
 540 332 l 1
 243 332 l 1
 189 79 l 1
 505 79 l 1
 488 0 l 1
 84 0 l 1
EndSplineSet
Validated: 1048577
Substitution2: "'c2sc' Capitals to Small Capitals lookup 34 subtable" ebreve.sc
Substitution2: "'aalt' Access All Alternates lookup 0 subtable" ebreve.sc
EndChar

StartChar: ebreve
Encoding: 277 277 215
Width: 563
GlyphClass: 2
Flags: HW
AnchorPoint: "Anchor-2" 657 536 basechar 0
AnchorPoint: "Anchor-1" 443 740 basechar 0
AnchorPoint: "Anchor-0" 282 0 basechar 0
LayerCount: 2
Fore
SplineSet
412 608 m 0
 336 608 296 647 296 710 c 0
 296 720 297 729 299 740 c 1
 355 740 l 1
 353 685 388 669 427 669 c 0
 468 669 508 685 529 740 c 1
 586 740 l 1
 567 661 503 608 412 608 c 0
316 -10 m 0
 180 -10 102 58 102 184 c 0
 102 209 105 236 111 265 c 0
 148 441 264 546 408 546 c 0
 520 546 580 480 580 372 c 0
 580 349 578 323 572 296 c 2
 562 250 l 1
 196 250 l 1
 192 229 190 210 190 193 c 0
 190 101 245 64 336 64 c 0
 393 64 448 80 509 107 c 1
 492 28 l 1
 430 1 372 -10 316 -10 c 0
490 322 m 1
 493 338 495 352 495 366 c 0
 495 433 461 473 393 473 c 0
 310 473 244 416 213 322 c 1
 490 322 l 1
EndSplineSet
Validated: 1048609
Substitution2: "'smcp' Lowercase to Small Capitals lookup 35 subtable" ebreve.sc
Substitution2: "'aalt' Access All Alternates lookup 0 subtable" ebreve.sc
EndChar

StartChar: Edotaccent
Encoding: 278 278 216
Width: 563
GlyphClass: 2
Flags: HW
AnchorPoint: "Anchor-2" 695 714 basechar 0
AnchorPoint: "Anchor-1" 478 910 basechar 0
AnchorPoint: "Anchor-0" 282 0 basechar 0
LayerCount: 2
Fore
SplineSet
455 803 m 0
 426 803 406 819 406 849 c 0
 406 855 407 860 408 867 c 0
 418 912 447 932 482 932 c 0
 511 932 531 918 531 886 c 0
 531 880 530 874 529 867 c 0
 520 824 489 803 455 803 c 0
84 0 m 1
 236 714 l 1
 640 714 l 1
 623 635 l 1
 307 635 l 1
 260 412 l 1
 557 412 l 1
 540 332 l 1
 243 332 l 1
 189 79 l 1
 505 79 l 1
 488 0 l 1
 84 0 l 1
EndSplineSet
Validated: 1048577
Substitution2: "'c2sc' Capitals to Small Capitals lookup 34 subtable" edotaccent.sc
Substitution2: "'aalt' Access All Alternates lookup 0 subtable" edotaccent.sc
EndChar

StartChar: edotaccent
Encoding: 279 279 217
Width: 563
GlyphClass: 2
Flags: HW
AnchorPoint: "Anchor-2" 657 536 basechar 0
AnchorPoint: "Anchor-1" 443 732 basechar 0
AnchorPoint: "Anchor-0" 282 0 basechar 0
LayerCount: 2
Fore
SplineSet
420 633 m 0
 390 633 370 648 370 678 c 0
 370 683 371 690 372 696 c 0
 382 741 412 761 447 761 c 0
 476 761 495 747 495 716 c 0
 495 710 495 703 493 696 c 0
 484 654 454 633 420 633 c 0
316 -10 m 0
 180 -10 102 58 102 184 c 0
 102 209 105 236 111 265 c 0
 148 441 264 546 408 546 c 0
 520 546 580 480 580 372 c 0
 580 349 578 323 572 296 c 2
 562 250 l 1
 196 250 l 1
 192 229 190 210 190 193 c 0
 190 101 245 64 336 64 c 0
 393 64 448 80 509 107 c 1
 492 28 l 1
 430 1 372 -10 316 -10 c 0
490 322 m 1
 493 338 495 352 495 366 c 0
 495 433 461 473 393 473 c 0
 310 473 244 416 213 322 c 1
 490 322 l 1
EndSplineSet
Validated: 1048577
Substitution2: "'smcp' Lowercase to Small Capitals lookup 35 subtable" edotaccent.sc
Substitution2: "'aalt' Access All Alternates lookup 0 subtable" edotaccent.sc
EndChar

StartChar: Eogonek
Encoding: 280 280 218
Width: 563
GlyphClass: 2
Flags: HW
AnchorPoint: "Anchor-2" 695 714 basechar 0
AnchorPoint: "Anchor-1" 443 714 basechar 0
AnchorPoint: "Anchor-0" 256 -221 basechar 0
LayerCount: 2
Fore
SplineSet
84 0 m 1
 236 714 l 1
 640 714 l 1
 623 635 l 1
 307 635 l 1
 260 412 l 1
 557 412 l 1
 540 332 l 1
 243 332 l 1
 189 79 l 1
 505 79 l 1
 488 0 l 1
 440 0 l 1
 387 -43 359 -77 351 -115 c 0
 350 -121 349 -126 349 -131 c 0
 349 -154 363 -163 390 -163 c 0
 403 -163 419 -160 429 -157 c 1
 417 -213 l 1
 400 -218 382 -221 359 -221 c 0
 301 -221 274 -196 274 -156 c 0
 274 -149 275 -140 277 -132 c 0
 289 -77 332 -32 376 0 c 1
 84 0 l 1
EndSplineSet
Validated: 1048577
Substitution2: "'c2sc' Capitals to Small Capitals lookup 34 subtable" eogonek.sc
Substitution2: "'locl' Localized Forms in Latin lookup 10 subtable" Eogonek.loclNAV
Ligature2: "'ccmp' Glyph Composition/Decomposition lookup 6 subtable" E uni0328
AlternateSubs2: "'aalt' Access All Alternates lookup 1 subtable" Eogonek.loclNAV eogonek.sc
EndChar

StartChar: eogonek
Encoding: 281 281 219
Width: 563
GlyphClass: 2
Flags: HW
AnchorPoint: "Anchor-2" 657 536 basechar 0
AnchorPoint: "Anchor-1" 396 536 basechar 0
AnchorPoint: "Anchor-0" 251 -221 basechar 0
LayerCount: 2
Fore
SplineSet
316 -10 m 0
 180 -10 102 58 102 184 c 0
 102 209 105 236 111 265 c 0
 148 441 264 546 408 546 c 0
 520 546 580 480 580 372 c 0
 580 349 578 323 572 296 c 2
 562 250 l 1
 196 250 l 1
 192 229 190 210 190 193 c 0
 190 101 245 64 336 64 c 0
 393 64 448 80 509 107 c 1
 492 28 l 1
 432 -12 385 -58 374 -109 c 0
 373 -115 372 -122 372 -127 c 0
 372 -151 386 -163 412 -163 c 0
 424 -163 440 -160 451 -157 c 1
 439 -213 l 1
 422 -218 403 -221 382 -221 c 0
 324 -221 298 -191 298 -148 c 0
 298 -139 299 -131 301 -121 c 0
 311 -73 344 -35 382 -5 c 1
 359 -8 338 -10 316 -10 c 0
490 322 m 1
 493 338 495 352 495 366 c 0
 495 433 461 473 393 473 c 0
 310 473 244 416 213 322 c 1
 490 322 l 1
EndSplineSet
Validated: 1048577
Substitution2: "'smcp' Lowercase to Small Capitals lookup 35 subtable" eogonek.sc
Substitution2: "'locl' Localized Forms in Latin lookup 10 subtable" eogonek.loclNAV
Ligature2: "'ccmp' Glyph Composition/Decomposition lookup 6 subtable" e uni0328
AlternateSubs2: "'aalt' Access All Alternates lookup 1 subtable" eogonek.loclNAV eogonek.sc
EndChar

StartChar: Ecaron
Encoding: 282 282 220
Width: 563
GlyphClass: 2
Flags: HW
AnchorPoint: "Anchor-2" 695 714 basechar 0
AnchorPoint: "Anchor-1" 486 944 basechar 0
AnchorPoint: "Anchor-0" 282 0 basechar 0
LayerCount: 2
Fore
SplineSet
409 784 m 1
 395 829 355 891 328 932 c 1
 331 944 l 1
 386 944 l 1
 412 921 441 887 465 851 c 1
 508 889 545 917 585 944 c 1
 641 944 l 1
 638 932 l 1
 595 893 527 829 494 784 c 1
 409 784 l 1
84 0 m 1
 236 714 l 1
 640 714 l 1
 623 635 l 1
 307 635 l 1
 260 412 l 1
 557 412 l 1
 540 332 l 1
 243 332 l 1
 189 79 l 1
 505 79 l 1
 488 0 l 1
 84 0 l 1
EndSplineSet
Validated: 1048577
Substitution2: "'c2sc' Capitals to Small Capitals lookup 34 subtable" ecaron.sc
Substitution2: "'aalt' Access All Alternates lookup 0 subtable" ecaron.sc
EndChar

StartChar: ecaron
Encoding: 283 283 221
Width: 563
GlyphClass: 2
Flags: HW
AnchorPoint: "Anchor-2" 657 536 basechar 0
AnchorPoint: "Anchor-1" 448 766 basechar 0
AnchorPoint: "Anchor-0" 282 0 basechar 0
LayerCount: 2
Fore
SplineSet
371 606 m 1
 357 651 317 713 291 754 c 1
 294 766 l 1
 348 766 l 1
 374 743 404 709 427 673 c 1
 471 711 507 739 548 766 c 1
 604 766 l 1
 601 754 l 1
 558 715 489 651 456 606 c 1
 371 606 l 1
316 -10 m 0
 180 -10 102 58 102 184 c 0
 102 209 105 236 111 265 c 0
 148 441 264 546 408 546 c 0
 520 546 580 480 580 372 c 0
 580 349 578 323 572 296 c 2
 562 250 l 1
 196 250 l 1
 192 229 190 210 190 193 c 0
 190 101 245 64 336 64 c 0
 393 64 448 80 509 107 c 1
 492 28 l 1
 430 1 372 -10 316 -10 c 0
490 322 m 1
 493 338 495 352 495 366 c 0
 495 433 461 473 393 473 c 0
 310 473 244 416 213 322 c 1
 490 322 l 1
EndSplineSet
Validated: 1048577
Substitution2: "'smcp' Lowercase to Small Capitals lookup 35 subtable" ecaron.sc
Substitution2: "'aalt' Access All Alternates lookup 0 subtable" ecaron.sc
EndChar

StartChar: Gcircumflex
Encoding: 284 284 222
Width: 563
GlyphClass: 2
Flags: HW
AnchorPoint: "Anchor-2" 695 714 basechar 0
AnchorPoint: "Anchor-1" 500 944 basechar 0
AnchorPoint: "Anchor-0" 282 0 basechar 0
LayerCount: 2
Fore
SplineSet
318 795 m 1
 363 837 429 900 461 944 c 1
 546 944 l 1
 559 899 601 835 628 795 c 1
 626 784 l 1
 570 784 l 1
 543 807 515 844 489 880 c 1
 447 844 406 806 370 784 c 1
 316 784 l 1
 318 795 l 1
317 -10 m 0
 168 -10 97 74 97 219 c 0
 97 259 103 303 113 351 c 0
 162 580 290 725 482 725 c 0
 547 725 599 710 642 682 c 1
 594 609 l 1
 561 633 522 646 467 646 c 0
 333 646 242 540 202 353 c 0
 193 312 188 273 188 238 c 0
 188 136 229 68 335 68 c 0
 374 68 406 75 434 83 c 1
 479 298 l 1
 360 298 l 1
 377 377 l 1
 581 377 l 1
 507 26 l 1
 451 5 387 -10 317 -10 c 0
EndSplineSet
Validated: 1048577
Substitution2: "'c2sc' Capitals to Small Capitals lookup 34 subtable" gcircumflex.sc
Substitution2: "'aalt' Access All Alternates lookup 0 subtable" gcircumflex.sc
EndChar

StartChar: gcircumflex
Encoding: 285 285 223
Width: 563
GlyphClass: 2
Flags: HW
AnchorPoint: "Anchor-2" 657 536 basechar 0
AnchorPoint: "Anchor-1" 445 766 basechar 0
AnchorPoint: "Anchor-0" 230 -245 basechar 0
LayerCount: 2
Fore
SplineSet
258 617 m 1
 303 659 369 722 401 766 c 1
 486 766 l 1
 499 721 541 657 568 617 c 1
 566 606 l 1
 510 606 l 1
 483 629 455 666 429 702 c 1
 387 666 346 628 310 606 c 1
 256 606 l 1
 258 617 l 1
207 -245 m 0
 141 -245 83 -231 36 -208 c 1
 53 -128 l 1
 99 -158 166 -173 221 -173 c 0
 329 -173 383 -113 403 -17 c 2
 408 5 l 2
 411 21 417 41 424 65 c 1
 421 65 l 1
 374 10 322 -10 257 -10 c 0
 152 -10 95 55 95 169 c 0
 95 198 99 230 106 265 c 0
 143 439 243 546 372 546 c 0
 438 546 480 523 504 468 c 1
 509 468 l 1
 535 536 l 1
 605 536 l 1
 488 -14 l 2
 455 -167 365 -245 207 -245 c 0
293 63 m 0
 377 63 436 119 463 246 c 2
 468 267 l 2
 475 302 479 332 479 357 c 0
 479 438 443 473 378 473 c 0
 284 473 224 399 196 268 c 0
 189 236 186 208 186 183 c 0
 186 104 221 63 293 63 c 0
EndSplineSet
Validated: 1048577
Substitution2: "'smcp' Lowercase to Small Capitals lookup 35 subtable" gcircumflex.sc
Substitution2: "'aalt' Access All Alternates lookup 0 subtable" gcircumflex.sc
EndChar

StartChar: Gbreve
Encoding: 286 286 224
Width: 563
GlyphClass: 2
Flags: HW
AnchorPoint: "Anchor-2" 695 714 basechar 0
AnchorPoint: "Anchor-1" 500 917 basechar 0
AnchorPoint: "Anchor-0" 282 0 basechar 0
LayerCount: 2
Fore
SplineSet
468 786 m 0
 392 786 352 825 352 888 c 0
 352 898 353 907 355 918 c 1
 411 918 l 1
 409 863 444 847 483 847 c 0
 524 847 564 863 585 918 c 1
 642 918 l 1
 623 839 559 786 468 786 c 0
317 -10 m 0
 168 -10 97 74 97 219 c 0
 97 259 103 303 113 351 c 0
 162 580 290 725 482 725 c 0
 547 725 599 710 642 682 c 1
 594 609 l 1
 561 633 522 646 467 646 c 0
 333 646 242 540 202 353 c 0
 193 312 188 273 188 238 c 0
 188 136 229 68 335 68 c 0
 374 68 406 75 434 83 c 1
 479 298 l 1
 360 298 l 1
 377 377 l 1
 581 377 l 1
 507 26 l 1
 451 5 387 -10 317 -10 c 0
EndSplineSet
Validated: 1048609
Substitution2: "'c2sc' Capitals to Small Capitals lookup 34 subtable" gbreve.sc
Substitution2: "'aalt' Access All Alternates lookup 0 subtable" gbreve.sc
EndChar

StartChar: gbreve
Encoding: 287 287 225
Width: 563
GlyphClass: 2
Flags: HW
AnchorPoint: "Anchor-2" 657 536 basechar 0
AnchorPoint: "Anchor-1" 439 740 basechar 0
AnchorPoint: "Anchor-0" 230 -245 basechar 0
LayerCount: 2
Fore
SplineSet
408 608 m 0
 332 608 292 647 292 710 c 0
 292 720 293 729 295 740 c 1
 351 740 l 1
 349 685 384 669 423 669 c 0
 464 669 504 685 525 740 c 1
 582 740 l 1
 563 661 499 608 408 608 c 0
207 -245 m 0
 141 -245 83 -231 36 -208 c 1
 53 -128 l 1
 99 -158 166 -173 221 -173 c 0
 329 -173 383 -113 403 -17 c 2
 408 5 l 2
 411 21 417 41 424 65 c 1
 421 65 l 1
 374 10 322 -10 257 -10 c 0
 152 -10 95 55 95 169 c 0
 95 198 99 230 106 265 c 0
 143 439 243 546 372 546 c 0
 438 546 480 523 504 468 c 1
 509 468 l 1
 535 536 l 1
 605 536 l 1
 488 -14 l 2
 455 -167 365 -245 207 -245 c 0
293 63 m 0
 377 63 436 119 463 246 c 2
 468 267 l 2
 475 302 479 332 479 357 c 0
 479 438 443 473 378 473 c 0
 284 473 224 399 196 268 c 0
 189 236 186 208 186 183 c 0
 186 104 221 63 293 63 c 0
EndSplineSet
Validated: 1048609
Substitution2: "'smcp' Lowercase to Small Capitals lookup 35 subtable" gbreve.sc
Substitution2: "'aalt' Access All Alternates lookup 0 subtable" gbreve.sc
EndChar

StartChar: Gdot
Encoding: 288 288 226
Width: 563
GlyphClass: 2
Flags: HW
AnchorPoint: "Anchor-2" 695 714 basechar 0
AnchorPoint: "Anchor-1" 497 910 basechar 0
AnchorPoint: "Anchor-0" 282 0 basechar 0
LayerCount: 2
Fore
SplineSet
474 803 m 0
 444 803 424 819 424 849 c 0
 424 855 425 861 426 867 c 0
 436 912 466 932 501 932 c 0
 530 932 550 918 550 887 c 0
 550 881 549 874 547 867 c 0
 538 824 508 803 474 803 c 0
317 -10 m 0
 168 -10 97 74 97 219 c 0
 97 259 103 303 113 351 c 0
 162 580 290 725 482 725 c 0
 547 725 599 710 642 682 c 1
 594 609 l 1
 561 633 522 646 467 646 c 0
 333 646 242 540 202 353 c 0
 193 312 188 273 188 238 c 0
 188 136 229 68 335 68 c 0
 374 68 406 75 434 83 c 1
 479 298 l 1
 360 298 l 1
 377 377 l 1
 581 377 l 1
 507 26 l 1
 451 5 387 -10 317 -10 c 0
EndSplineSet
Validated: 1048577
Substitution2: "'c2sc' Capitals to Small Capitals lookup 34 subtable" gdotaccent.sc
Substitution2: "'aalt' Access All Alternates lookup 0 subtable" gdotaccent.sc
EndChar

StartChar: gdot
Encoding: 289 289 227
Width: 563
GlyphClass: 2
Flags: HW
AnchorPoint: "Anchor-2" 657 536 basechar 0
AnchorPoint: "Anchor-1" 438 732 basechar 0
AnchorPoint: "Anchor-0" 230 -245 basechar 0
LayerCount: 2
Fore
SplineSet
416 633 m 0
 386 633 366 648 366 678 c 0
 366 683 367 690 368 696 c 0
 378 741 408 761 443 761 c 0
 472 761 491 747 491 716 c 0
 491 710 491 703 489 696 c 0
 480 654 450 633 416 633 c 0
207 -245 m 0
 141 -245 83 -231 36 -208 c 1
 53 -128 l 1
 99 -158 166 -173 221 -173 c 0
 329 -173 383 -113 403 -17 c 2
 408 5 l 2
 411 21 417 41 424 65 c 1
 421 65 l 1
 374 10 322 -10 257 -10 c 0
 152 -10 95 55 95 169 c 0
 95 198 99 230 106 265 c 0
 143 439 243 546 372 546 c 0
 438 546 480 523 504 468 c 1
 509 468 l 1
 535 536 l 1
 605 536 l 1
 488 -14 l 2
 455 -167 365 -245 207 -245 c 0
293 63 m 0
 377 63 436 119 463 246 c 2
 468 267 l 2
 475 302 479 332 479 357 c 0
 479 438 443 473 378 473 c 0
 284 473 224 399 196 268 c 0
 189 236 186 208 186 183 c 0
 186 104 221 63 293 63 c 0
EndSplineSet
Validated: 1048577
EndChar

StartChar: uni0122
Encoding: 290 290 228
Width: 563
GlyphClass: 2
Flags: HW
AnchorPoint: "Anchor-2" 695 714 basechar 0
AnchorPoint: "Anchor-1" 469 714 basechar 0
AnchorPoint: "Anchor-0" 235 -221 basechar 0
LayerCount: 2
Fore
SplineSet
317 -10 m 0
 168 -10 97 74 97 219 c 0
 97 259 103 303 113 351 c 0
 162 580 290 725 482 725 c 0
 547 725 599 710 642 682 c 1
 594 609 l 1
 561 633 522 646 467 646 c 0
 333 646 242 540 202 353 c 0
 193 312 188 273 188 238 c 0
 188 136 229 68 335 68 c 0
 374 68 406 75 434 83 c 1
 479 298 l 1
 360 298 l 1
 377 377 l 1
 581 377 l 1
 507 26 l 1
 451 5 387 -10 317 -10 c 0
191 -209 m 1
 213 -176 248 -104 262 -61 c 1
 348 -61 l 1
 347 -68 l 1
 329 -107 279 -179 236 -221 c 1
 188 -221 l 1
 191 -209 l 1
EndSplineSet
Validated: 1048577
Substitution2: "'c2sc' Capitals to Small Capitals lookup 34 subtable" uni0123.sc
Substitution2: "'aalt' Access All Alternates lookup 0 subtable" uni0123.sc
EndChar

StartChar: uni0123
Encoding: 291 291 229
Width: 563
GlyphClass: 2
Flags: HW
AnchorPoint: "Anchor-2" 657 536 basechar 0
AnchorPoint: "Anchor-1" 447 766 basechar 0
AnchorPoint: "Anchor-0" 230 -245 basechar 0
LayerCount: 2
Fore
SplineSet
348 614 m 1
 366 652 415 723 459 766 c 1
 508 766 l 1
 505 754 l 1
 482 720 447 648 433 606 c 1
 346 606 l 1
 348 614 l 1
207 -245 m 0
 141 -245 83 -231 36 -208 c 1
 53 -128 l 1
 99 -158 166 -173 221 -173 c 0
 329 -173 383 -113 403 -17 c 2
 408 5 l 2
 411 21 417 41 424 65 c 1
 421 65 l 1
 374 10 322 -10 257 -10 c 0
 152 -10 95 55 95 169 c 0
 95 198 99 230 106 265 c 0
 143 439 243 546 372 546 c 0
 438 546 480 523 504 468 c 1
 509 468 l 1
 535 536 l 1
 605 536 l 1
 488 -14 l 2
 455 -167 365 -245 207 -245 c 0
293 63 m 0
 377 63 436 119 463 246 c 2
 468 267 l 2
 475 302 479 332 479 357 c 0
 479 438 443 473 378 473 c 0
 284 473 224 399 196 268 c 0
 189 236 186 208 186 183 c 0
 186 104 221 63 293 63 c 0
EndSplineSet
Validated: 1048577
Substitution2: "'smcp' Lowercase to Small Capitals lookup 35 subtable" uni0123.sc
Substitution2: "'aalt' Access All Alternates lookup 0 subtable" uni0123.sc
EndChar

StartChar: Hcircumflex
Encoding: 292 292 230
Width: 563
GlyphClass: 2
Flags: HW
AnchorPoint: "Anchor-3" 361 373 basechar 0
AnchorPoint: "Anchor-2" 715 714 basechar 0
AnchorPoint: "Anchor-1" 483 944 basechar 0
AnchorPoint: "Anchor-0" 282 0 basechar 0
LayerCount: 2
Fore
SplineSet
296 795 m 1
 341 837 407 900 439 944 c 1
 524 944 l 1
 537 899 579 835 606 795 c 1
 604 784 l 1
 548 784 l 1
 521 807 493 844 467 880 c 1
 425 844 384 806 348 784 c 1
 294 784 l 1
 296 795 l 1
61 0 m 1
 213 714 l 1
 301 714 l 1
 236 411 l 1
 502 411 l 1
 567 714 l 1
 655 714 l 1
 503 0 l 1
 415 0 l 1
 486 332 l 1
 220 332 l 1
 149 0 l 1
 61 0 l 1
EndSplineSet
Validated: 1
Substitution2: "'c2sc' Capitals to Small Capitals lookup 34 subtable" hcircumflex.sc
Substitution2: "'aalt' Access All Alternates lookup 0 subtable" hcircumflex.sc
EndChar

StartChar: hcircumflex
Encoding: 293 293 231
Width: 563
GlyphClass: 2
Flags: HW
AnchorPoint: "Anchor-3" 339 268 basechar 0
AnchorPoint: "Anchor-2" 705 760 basechar 0
AnchorPoint: "Anchor-1" 326 990 basechar 0
AnchorPoint: "Anchor-0" 282 0 basechar 0
LayerCount: 2
Fore
SplineSet
140 841 m 1
 186 883 251 946 283 990 c 1
 368 990 l 1
 381 945 423 881 451 841 c 1
 448 830 l 1
 392 830 l 1
 364 853 338 890 312 926 c 1
 270 890 228 852 192 830 c 1
 137 830 l 1
 140 841 l 1
73 0 m 1
 235 760 l 1
 322 760 l 1
 275 540 l 2
 270 515 259 478 253 455 c 1
 258 455 l 1
 302 515 362 546 434 546 c 0
 521 546 578 505 578 413 c 0
 578 394 575 373 570 350 c 2
 496 0 l 1
 409 0 l 1
 480 332 l 2
 484 352 486 369 486 384 c 0
 486 444 455 473 397 473 c 0
 311 473 245 402 219 278 c 2
 160 0 l 1
 73 0 l 1
EndSplineSet
Validated: 1
Substitution2: "'smcp' Lowercase to Small Capitals lookup 35 subtable" hcircumflex.sc
Substitution2: "'aalt' Access All Alternates lookup 0 subtable" hcircumflex.sc
EndChar

StartChar: Hbar
Encoding: 294 294 232
Width: 563
GlyphClass: 2
Flags: HW
AnchorPoint: "Anchor-3" 358 357 basechar 0
AnchorPoint: "Anchor-1" 434 714 basechar 0
AnchorPoint: "Anchor-0" 282 0 basechar 0
LayerCount: 2
Fore
SplineSet
61 0 m 1
 172 524 l 1
 111 524 l 1
 126 595 l 1
 187 595 l 1
 213 714 l 1
 301 714 l 1
 275 595 l 1
 541 595 l 1
 567 714 l 1
 655 714 l 1
 629 595 l 1
 689 595 l 1
 674 524 l 1
 614 524 l 1
 503 0 l 1
 415 0 l 1
 486 332 l 1
 220 332 l 1
 149 0 l 1
 61 0 l 1
236 411 m 1
 502 411 l 1
 526 524 l 1
 260 524 l 1
 236 411 l 1
EndSplineSet
Validated: 1048577
Substitution2: "'c2sc' Capitals to Small Capitals lookup 34 subtable" hbar.sc
Substitution2: "'aalt' Access All Alternates lookup 0 subtable" hbar.sc
EndChar

StartChar: hbar
Encoding: 295 295 233
Width: 563
GlyphClass: 2
Flags: HW
AnchorPoint: "Anchor-3" 339 268 basechar 0
AnchorPoint: "Anchor-1" 278 760 basechar 0
AnchorPoint: "Anchor-0" 282 0 basechar 0
LayerCount: 2
Fore
SplineSet
73 0 m 1
 201 604 l 1
 128 604 l 1
 142 670 l 1
 215 670 l 1
 235 760 l 1
 322 760 l 1
 302 670 l 1
 477 670 l 1
 463 604 l 1
 288 604 l 1
 275 540 l 2
 270 515 259 478 253 455 c 1
 258 455 l 1
 302 515 362 546 434 546 c 0
 521 546 578 505 578 413 c 0
 578 394 575 373 570 350 c 2
 496 0 l 1
 409 0 l 1
 480 332 l 2
 484 352 486 369 486 384 c 0
 486 444 455 473 397 473 c 0
 311 473 245 402 219 278 c 2
 160 0 l 1
 73 0 l 1
EndSplineSet
Validated: 1048577
Substitution2: "'smcp' Lowercase to Small Capitals lookup 35 subtable" hbar.sc
Substitution2: "'aalt' Access All Alternates lookup 0 subtable" hbar.sc
EndChar

StartChar: Itilde
Encoding: 296 296 234
Width: 563
GlyphClass: 2
Flags: HW
AnchorPoint: "Anchor-2" 695 714 basechar 0
AnchorPoint: "Anchor-1" 476 912 basechar 0
AnchorPoint: "Anchor-0" 282 0 basechar 0
LayerCount: 2
Fore
SplineSet
280 785 m 1
 304 858 347 911 408 911 c 0
 461 911 494 854 534 854 c 0
 562 854 577 874 594 912 c 1
 644 912 l 1
 620 834 574 786 518 786 c 0
 465 786 432 843 392 843 c 0
 363 843 347 823 331 785 c 1
 280 785 l 1
97 0 m 1
 110 61 l 1
 253 73 l 1
 373 641 l 1
 236 653 l 1
 249 714 l 1
 618 714 l 1
 605 653 l 1
 460 641 l 1
 340 73 l 1
 479 61 l 1
 466 0 l 1
 97 0 l 1
EndSplineSet
Validated: 1048577
Substitution2: "'c2sc' Capitals to Small Capitals lookup 34 subtable" itilde.sc
Substitution2: "'aalt' Access All Alternates lookup 0 subtable" itilde.sc
EndChar

StartChar: itilde
Encoding: 297 297 235
Width: 563
GlyphClass: 2
Flags: HW
AnchorPoint: "Anchor-3" 357 284 basechar 0
AnchorPoint: "Anchor-1" 438 734 basechar 0
AnchorPoint: "Anchor-0" 282 0 basechar 0
LayerCount: 2
Fore
SplineSet
242 607 m 1
 266 680 309 733 370 733 c 0
 423 733 456 676 496 676 c 0
 524 676 539 696 556 734 c 1
 606 734 l 1
 582 656 536 608 480 608 c 0
 427 608 394 665 354 665 c 0
 325 665 309 645 293 607 c 1
 242 607 l 1
78 0 m 1
 91 60 l 1
 267 73 l 1
 349 462 l 1
 191 475 l 1
 204 536 l 1
 452 536 l 1
 354 73 l 1
 511 60 l 1
 498 0 l 1
 78 0 l 1
EndSplineSet
Validated: 1048577
Substitution2: "'smcp' Lowercase to Small Capitals lookup 35 subtable" itilde.sc
Substitution2: "'aalt' Access All Alternates lookup 0 subtable" itilde.sc
EndChar

StartChar: Imacron
Encoding: 298 298 236
Width: 563
GlyphClass: 2
Flags: HW
AnchorPoint: "Anchor-2" 695 714 basechar 0
AnchorPoint: "Anchor-1" 466 867 basechar 0
AnchorPoint: "Anchor-0" 282 0 basechar 0
LayerCount: 2
Fore
SplineSet
313 800 m 1
 327 867 l 1
 604 867 l 1
 590 800 l 1
 313 800 l 1
97 0 m 1
 110 61 l 1
 253 73 l 1
 373 641 l 1
 236 653 l 1
 249 714 l 1
 618 714 l 1
 605 653 l 1
 460 641 l 1
 340 73 l 1
 479 61 l 1
 466 0 l 1
 97 0 l 1
EndSplineSet
Validated: 1048577
Substitution2: "'c2sc' Capitals to Small Capitals lookup 34 subtable" imacron.sc
Substitution2: "'aalt' Access All Alternates lookup 0 subtable" imacron.sc
EndChar

StartChar: imacron
Encoding: 299 299 237
Width: 563
GlyphClass: 2
Flags: HW
AnchorPoint: "Anchor-3" 357 284 basechar 0
AnchorPoint: "Anchor-1" 428 689 basechar 0
AnchorPoint: "Anchor-0" 282 0 basechar 0
LayerCount: 2
Fore
SplineSet
275 622 m 1
 289 689 l 1
 566 689 l 1
 552 622 l 1
 275 622 l 1
78 0 m 1
 91 60 l 1
 267 73 l 1
 349 462 l 1
 191 475 l 1
 204 536 l 1
 452 536 l 1
 354 73 l 1
 511 60 l 1
 498 0 l 1
 78 0 l 1
EndSplineSet
Validated: 1048577
Substitution2: "'smcp' Lowercase to Small Capitals lookup 35 subtable" imacron.sc
Substitution2: "'aalt' Access All Alternates lookup 0 subtable" imacron.sc
EndChar

StartChar: Ibreve
Encoding: 300 300 238
Width: 563
GlyphClass: 2
Flags: HW
AnchorPoint: "Anchor-2" 695 714 basechar 0
AnchorPoint: "Anchor-1" 477 918 basechar 0
AnchorPoint: "Anchor-0" 282 0 basechar 0
LayerCount: 2
Fore
SplineSet
446 786 m 0
 370 786 330 825 330 888 c 0
 330 898 331 907 333 918 c 1
 389 918 l 1
 387 863 422 847 461 847 c 0
 502 847 542 863 563 918 c 1
 620 918 l 1
 601 839 537 786 446 786 c 0
97 0 m 1
 110 61 l 1
 253 73 l 1
 373 641 l 1
 236 653 l 1
 249 714 l 1
 618 714 l 1
 605 653 l 1
 460 641 l 1
 340 73 l 1
 479 61 l 1
 466 0 l 1
 97 0 l 1
EndSplineSet
Validated: 1048609
Substitution2: "'c2sc' Capitals to Small Capitals lookup 34 subtable" ibreve.sc
Substitution2: "'aalt' Access All Alternates lookup 0 subtable" ibreve.sc
EndChar

StartChar: ibreve
Encoding: 301 301 239
Width: 563
GlyphClass: 2
Flags: HW
AnchorPoint: "Anchor-3" 357 284 basechar 0
AnchorPoint: "Anchor-1" 439 740 basechar 0
AnchorPoint: "Anchor-0" 282 0 basechar 0
LayerCount: 2
Fore
SplineSet
408 608 m 0
 332 608 292 647 292 710 c 0
 292 720 293 729 295 740 c 1
 351 740 l 1
 349 685 384 669 423 669 c 0
 464 669 504 685 525 740 c 1
 582 740 l 1
 563 661 499 608 408 608 c 0
78 0 m 1
 91 60 l 1
 267 73 l 1
 349 462 l 1
 191 475 l 1
 204 536 l 1
 452 536 l 1
 354 73 l 1
 511 60 l 1
 498 0 l 1
 78 0 l 1
EndSplineSet
Validated: 1048609
Substitution2: "'smcp' Lowercase to Small Capitals lookup 35 subtable" ibreve.sc
Substitution2: "'aalt' Access All Alternates lookup 0 subtable" ibreve.sc
EndChar

StartChar: Iogonek
Encoding: 302 302 240
Width: 563
GlyphClass: 2
Flags: HW
AnchorPoint: "Anchor-2" 695 714 basechar 0
AnchorPoint: "Anchor-1" 434 714 basechar 0
AnchorPoint: "Anchor-0" 235 -221 basechar 0
LayerCount: 2
Fore
SplineSet
97 0 m 1
 110 61 l 1
 253 73 l 1
 373 641 l 1
 236 653 l 1
 249 714 l 1
 618 714 l 1
 605 653 l 1
 460 641 l 1
 340 73 l 1
 479 61 l 1
 466 0 l 1
 418 0 l 1
 365 -43 337 -77 329 -115 c 0
 328 -121 327 -126 327 -131 c 0
 327 -153 340 -163 367 -163 c 0
 381 -163 396 -160 407 -157 c 1
 395 -213 l 1
 378 -218 359 -221 337 -221 c 0
 279 -221 252 -196 252 -156 c 0
 252 -149 253 -140 255 -132 c 0
 267 -77 310 -32 354 0 c 1
 97 0 l 1
EndSplineSet
Validated: 1048577
Substitution2: "'c2sc' Capitals to Small Capitals lookup 34 subtable" iogonek.sc
Substitution2: "'locl' Localized Forms in Latin lookup 10 subtable" Iogonek.loclNAV
Ligature2: "'ccmp' Glyph Composition/Decomposition lookup 6 subtable" I uni0328
AlternateSubs2: "'aalt' Access All Alternates lookup 1 subtable" Iogonek.loclNAV iogonek.sc
EndChar

StartChar: iogonek
Encoding: 303 303 241
Width: 563
GlyphClass: 2
Flags: HW
AnchorPoint: "Anchor-3" 357 284 basechar 0
AnchorPoint: "Anchor-2" 627 762 basechar 0
AnchorPoint: "Anchor-1" 460 762 basechar 0
AnchorPoint: "Anchor-0" 251 -221 basechar 0
LayerCount: 2
Fore
SplineSet
422 633 m 0
 392 633 372 648 372 679 c 0
 372 685 373 690 374 697 c 0
 383 741 414 762 449 762 c 0
 478 762 498 747 498 716 c 0
 498 710 497 704 496 697 c 0
 487 654 456 633 422 633 c 0
78 0 m 1
 91 60 l 1
 267 73 l 1
 349 462 l 1
 191 475 l 1
 204 536 l 1
 452 536 l 1
 354 73 l 1
 511 60 l 1
 498 0 l 1
 433 0 l 1
 380 -43 352 -77 344 -115 c 0
 343 -121 342 -126 342 -131 c 0
 342 -153 355 -163 382 -163 c 0
 396 -163 411 -160 422 -157 c 1
 410 -213 l 1
 393 -218 375 -221 352 -221 c 0
 294 -221 267 -196 267 -156 c 0
 267 -149 268 -140 270 -132 c 0
 282 -77 325 -32 369 0 c 1
 78 0 l 1
EndSplineSet
Validated: 1
Substitution2: "'smcp' Lowercase to Small Capitals lookup 35 subtable" iogonek.sc
Substitution2: "'locl' Localized Forms in Latin lookup 10 subtable" iogonek.loclNAV
Ligature2: "'ccmp' Glyph Composition/Decomposition lookup 6 subtable" i uni0328
Substitution2: "Single Substitution lookup 5 subtable" iogonekdotless
Substitution2: "Single Substitution lookup 4 subtable" iogonekdotless
AlternateSubs2: "'aalt' Access All Alternates lookup 1 subtable" iogonekdotless iogonek.loclNAV iogonek.sc
EndChar

StartChar: Idotaccent
Encoding: 304 304 242
Width: 563
GlyphClass: 2
Flags: HW
AnchorPoint: "Anchor-2" 695 714 basechar 0
AnchorPoint: "Anchor-1" 475 910 basechar 0
AnchorPoint: "Anchor-0" 282 0 basechar 0
LayerCount: 2
Fore
SplineSet
452 803 m 0
 422 803 402 819 402 849 c 0
 402 855 403 861 404 867 c 0
 414 912 444 932 479 932 c 0
 508 932 528 918 528 887 c 0
 528 881 527 874 525 867 c 0
 516 824 486 803 452 803 c 0
97 0 m 1
 110 61 l 1
 253 73 l 1
 373 641 l 1
 236 653 l 1
 249 714 l 1
 618 714 l 1
 605 653 l 1
 460 641 l 1
 340 73 l 1
 479 61 l 1
 466 0 l 1
 97 0 l 1
EndSplineSet
Validated: 1048577
Substitution2: "'c2sc' Capitals to Small Capitals lookup 34 subtable" i.loclTRK.sc
Substitution2: "'aalt' Access All Alternates lookup 0 subtable" i.loclTRK.sc
EndChar

StartChar: IJ
Encoding: 306 306 243
Width: 563
GlyphClass: 2
Flags: HW
AnchorPoint: "Anchor-1" 434 714 basechar 0
AnchorPoint: "Anchor-0" 282 0 basechar 0
LayerCount: 2
Fore
SplineSet
256 -10 m 0
 200 -10 131 2 104 19 c 1
 122 103 l 1
 143 91 207 72 264 72 c 0
 343 72 405 113 429 225 c 2
 533 714 l 1
 621 714 l 1
 514 213 l 2
 484 71 392 -10 256 -10 c 0
139 193 m 1
 250 714 l 1
 338 714 l 1
 227 193 l 1
 139 193 l 1
EndSplineSet
Validated: 1048577
Substitution2: "'c2sc' Capitals to Small Capitals lookup 34 subtable" ij.sc
Substitution2: "'aalt' Access All Alternates lookup 0 subtable" ij.sc
EndChar

StartChar: ij
Encoding: 307 307 244
Width: 563
GlyphClass: 2
Flags: HW
AnchorPoint: "Anchor-1" 446 762 basechar 0
AnchorPoint: "Anchor-0" 239 -245 basechar 0
LayerCount: 2
Fore
SplineSet
288 633 m 0
 259 633 239 647 239 678 c 0
 239 684 239 691 241 698 c 0
 250 741 280 762 315 762 c 0
 344 762 364 747 364 716 c 0
 364 710 363 705 362 698 c 0
 352 653 321 633 288 633 c 0
545 633 m 0
 516 633 496 647 496 678 c 0
 496 684 496 691 498 698 c 0
 507 741 537 762 572 762 c 0
 601 762 621 747 621 716 c 0
 621 710 620 705 619 698 c 0
 609 653 578 633 545 633 c 0
201 -245 m 0
 159 -245 106 -238 73 -228 c 1
 89 -150 l 1
 122 -162 171 -171 211 -171 c 0
 296 -171 344 -130 361 -48 c 2
 485 536 l 1
 572 536 l 1
 446 -56 l 2
 420 -180 332 -245 201 -245 c 0
109 0 m 1
 223 536 l 1
 310 536 l 1
 196 0 l 1
 109 0 l 1
EndSplineSet
Validated: 1048577
Substitution2: "'smcp' Lowercase to Small Capitals lookup 35 subtable" ij.sc
Substitution2: "'aalt' Access All Alternates lookup 0 subtable" ij.sc
EndChar

StartChar: Jcircumflex
Encoding: 308 308 245
Width: 563
GlyphClass: 2
Flags: HW
AnchorPoint: "Anchor-2" 695 714 basechar 0
AnchorPoint: "Anchor-1" 592 944 basechar 0
AnchorPoint: "Anchor-0" 302 0 basechar 0
LayerCount: 2
Fore
SplineSet
408 795 m 1
 453 837 519 900 551 944 c 1
 636 944 l 1
 649 899 691 835 718 795 c 1
 716 784 l 1
 660 784 l 1
 632 807 605 844 579 880 c 1
 537 844 496 806 460 784 c 1
 406 784 l 1
 408 795 l 1
223 -10 m 0
 172 -10 117 2 86 19 c 1
 103 101 l 1
 133 86 184 70 233 70 c 0
 316 70 375 118 398 225 c 2
 502 714 l 1
 590 714 l 1
 483 212 l 2
 454 75 363 -10 223 -10 c 0
EndSplineSet
Validated: 1048577
Substitution2: "'c2sc' Capitals to Small Capitals lookup 34 subtable" jcircumflex.sc
Substitution2: "'aalt' Access All Alternates lookup 0 subtable" jcircumflex.sc
EndChar

StartChar: jcircumflex
Encoding: 309 309 246
Width: 563
GlyphClass: 2
Flags: HW
AnchorPoint: "Anchor-1" 482 766 basechar 0
AnchorPoint: "Anchor-0" 230 -245 basechar 0
LayerCount: 2
Fore
SplineSet
298 617 m 1
 343 659 409 722 441 766 c 1
 526 766 l 1
 539 721 581 657 608 617 c 1
 606 606 l 1
 550 606 l 1
 523 629 495 666 469 702 c 1
 427 666 386 628 350 606 c 1
 296 606 l 1
 298 617 l 1
128 -245 m 0
 87 -245 38 -238 7 -228 c 1
 23 -150 l 1
 53 -162 99 -171 136 -171 c 0
 216 -171 261 -130 278 -48 c 2
 386 462 l 1
 215 475 l 1
 228 536 l 1
 489 536 l 1
 363 -56 l 2
 337 -180 253 -245 128 -245 c 0
EndSplineSet
Validated: 1048577
Substitution2: "'smcp' Lowercase to Small Capitals lookup 35 subtable" jcircumflex.sc
Substitution2: "'aalt' Access All Alternates lookup 0 subtable" jcircumflex.sc
EndChar

StartChar: uni0136
Encoding: 310 310 247
Width: 563
GlyphClass: 2
Flags: HW
AnchorPoint: "Anchor-2" 695 714 basechar 0
AnchorPoint: "Anchor-1" 434 714 basechar 0
AnchorPoint: "Anchor-0" 235 -221 basechar 0
LayerCount: 2
Fore
SplineSet
61 0 m 1
 213 714 l 1
 300 714 l 1
 220 339 l 1
 250 373 282 410 321 453 c 2
 565 714 l 1
 665 714 l 1
 367 392 l 1
 523 0 l 1
 423 0 l 1
 294 331 l 1
 201 247 l 1
 148 0 l 1
 61 0 l 1
167 -209 m 1
 188 -176 223 -104 237 -61 c 1
 324 -61 l 1
 323 -68 l 1
 305 -107 255 -179 212 -221 c 1
 164 -221 l 1
 167 -209 l 1
EndSplineSet
Validated: 1048577
Substitution2: "'c2sc' Capitals to Small Capitals lookup 34 subtable" uni0137.sc
Substitution2: "'aalt' Access All Alternates lookup 0 subtable" uni0137.sc
EndChar

StartChar: uni0137
Encoding: 311 311 248
Width: 563
GlyphClass: 2
Flags: HW
AnchorPoint: "Anchor-2" 654 849 basechar 0
AnchorPoint: "Anchor-1" 444 760 basechar 0
AnchorPoint: "Anchor-0" 235 -221 basechar 0
LayerCount: 2
Fore
SplineSet
90 0 m 1
 252 760 l 1
 339 760 l 1
 262 400 l 2
 253 356 238 303 225 255 c 1
 226 255 l 1
 254 285 279 308 309 335 c 2
 530 536 l 1
 637 536 l 1
 377 305 l 1
 536 0 l 1
 434 0 l 1
 306 248 l 1
 215 179 l 1
 177 0 l 1
 90 0 l 1
190 -209 m 1
 212 -176 247 -104 261 -61 c 1
 347 -61 l 1
 346 -68 l 1
 328 -107 279 -179 235 -221 c 1
 187 -221 l 1
 190 -209 l 1
EndSplineSet
Validated: 1048577
Substitution2: "'smcp' Lowercase to Small Capitals lookup 35 subtable" uni0137.sc
Substitution2: "'aalt' Access All Alternates lookup 0 subtable" uni0137.sc
EndChar

StartChar: kgreenlandic
Encoding: 312 312 249
Width: 563
GlyphClass: 2
Flags: HW
AnchorPoint: "Anchor-1" 396 536 basechar 0
AnchorPoint: "Anchor-0" 282 0 basechar 0
LayerCount: 2
Fore
SplineSet
90 0 m 1
 204 536 l 1
 291 536 l 1
 262 400 l 2
 253 356 238 303 225 255 c 1
 226 255 l 1
 254 285 278 308 309 335 c 2
 530 536 l 1
 637 536 l 1
 377 305 l 1
 536 0 l 1
 434 0 l 1
 306 248 l 1
 215 179 l 1
 177 0 l 1
 90 0 l 1
EndSplineSet
Validated: 1048577
EndChar

StartChar: Lacute
Encoding: 313 313 250
Width: 563
GlyphClass: 2
Flags: HW
AnchorPoint: "Anchor-3" 358 357 basechar 0
AnchorPoint: "Anchor-2" 568 714 basechar 0
AnchorPoint: "Anchor-1" 355 944 basechar 0
AnchorPoint: "Anchor-0" 282 0 basechar 0
LayerCount: 2
Fore
SplineSet
269 796 m 1
 311 839 362 899 394 944 c 1
 497 944 l 1
 495 934 l 1
 462 896 376 820 323 784 c 1
 267 784 l 1
 269 796 l 1
100 0 m 1
 252 714 l 1
 340 714 l 1
 205 82 l 1
 505 82 l 1
 488 0 l 1
 100 0 l 1
EndSplineSet
Validated: 1
Substitution2: "'c2sc' Capitals to Small Capitals lookup 34 subtable" lacute.sc
Substitution2: "'aalt' Access All Alternates lookup 0 subtable" lacute.sc
EndChar

StartChar: lacute
Encoding: 314 314 251
Width: 563
GlyphClass: 2
Flags: HW
AnchorPoint: "Anchor-3" 377 381 basechar 0
AnchorPoint: "Anchor-2" 625 760 basechar 0
AnchorPoint: "Anchor-1" 492 990 basechar 0
AnchorPoint: "Anchor-0" 282 0 basechar 0
LayerCount: 2
Fore
SplineSet
415 842 m 1
 457 885 507 945 539 990 c 1
 642 990 l 1
 640 980 l 1
 607 942 521 866 468 830 c 1
 412 830 l 1
 415 842 l 1
78 0 m 1
 91 60 l 1
 268 73 l 1
 398 687 l 1
 232 699 l 1
 245 760 l 1
 501 760 l 1
 355 73 l 1
 511 60 l 1
 498 0 l 1
 78 0 l 1
EndSplineSet
Validated: 1
Substitution2: "'smcp' Lowercase to Small Capitals lookup 35 subtable" lacute.sc
Substitution2: "'aalt' Access All Alternates lookup 0 subtable" lacute.sc
EndChar

StartChar: uni013B
Encoding: 315 315 252
Width: 563
GlyphClass: 2
Flags: HW
AnchorPoint: "Anchor-3" 358 357 basechar 0
AnchorPoint: "Anchor-2" 568 714 basechar 0
AnchorPoint: "Anchor-1" 295 714 basechar 0
AnchorPoint: "Anchor-0" 235 -221 basechar 0
LayerCount: 2
Fore
SplineSet
100 0 m 1
 252 714 l 1
 340 714 l 1
 205 82 l 1
 505 82 l 1
 488 0 l 1
 100 0 l 1
184 -209 m 1
 205 -176 240 -104 254 -61 c 1
 340 -61 l 1
 339 -68 l 1
 321 -107 272 -179 228 -221 c 1
 181 -221 l 1
 184 -209 l 1
EndSplineSet
Validated: 1
Substitution2: "'c2sc' Capitals to Small Capitals lookup 34 subtable" uni013C.sc
Substitution2: "'locl' Localized Forms in Latin lookup 13 subtable" uni013B.loclMAH
AlternateSubs2: "'aalt' Access All Alternates lookup 1 subtable" uni013B.loclMAH uni013C.sc
EndChar

StartChar: uni013C
Encoding: 316 316 253
Width: 563
GlyphClass: 2
Flags: HW
AnchorPoint: "Anchor-3" 377 381 basechar 0
AnchorPoint: "Anchor-2" 625 760 basechar 0
AnchorPoint: "Anchor-1" 444 760 basechar 0
AnchorPoint: "Anchor-0" 235 -221 basechar 0
LayerCount: 2
Fore
SplineSet
78 0 m 1
 91 60 l 1
 268 73 l 1
 398 687 l 1
 232 699 l 1
 245 760 l 1
 501 760 l 1
 355 73 l 1
 511 60 l 1
 498 0 l 1
 78 0 l 1
172 -209 m 1
 193 -176 228 -104 242 -61 c 1
 329 -61 l 1
 328 -68 l 1
 310 -107 260 -179 217 -221 c 1
 169 -221 l 1
 172 -209 l 1
EndSplineSet
Validated: 1
Substitution2: "'smcp' Lowercase to Small Capitals lookup 35 subtable" uni013C.sc
Substitution2: "'locl' Localized Forms in Latin lookup 13 subtable" uni013C.loclMAH
AlternateSubs2: "'aalt' Access All Alternates lookup 1 subtable" uni013C.loclMAH uni013C.sc
EndChar

StartChar: Lcaron
Encoding: 317 317 254
Width: 563
GlyphClass: 2
Flags: HW
AnchorPoint: "Anchor-3" 358 357 basechar 0
AnchorPoint: "Anchor-2" 568 714 basechar 0
AnchorPoint: "Anchor-1" 295 714 basechar 0
AnchorPoint: "Anchor-0" 282 0 basechar 0
LayerCount: 2
Fore
SplineSet
487 565 m 1
 505 600 536 673 550 714 c 1
 636 714 l 1
 634 706 l 1
 617 669 570 596 532 554 c 1
 485 554 l 1
 487 565 l 1
100 0 m 1
 252 714 l 1
 340 714 l 1
 205 82 l 1
 505 82 l 1
 488 0 l 1
 100 0 l 1
EndSplineSet
Validated: 1
Substitution2: "'c2sc' Capitals to Small Capitals lookup 34 subtable" lcaron.sc
Substitution2: "'aalt' Access All Alternates lookup 0 subtable" lcaron.sc
EndChar

StartChar: lcaron
Encoding: 318 318 255
Width: 563
GlyphClass: 2
Flags: HW
AnchorPoint: "Anchor-3" 377 381 basechar 0
AnchorPoint: "Anchor-2" 625 760 basechar 0
AnchorPoint: "Anchor-1" 444 760 basechar 0
AnchorPoint: "Anchor-0" 282 0 basechar 0
LayerCount: 2
Fore
SplineSet
541 611 m 1
 560 646 591 719 604 760 c 1
 691 760 l 1
 689 752 l 1
 672 715 624 642 586 600 c 1
 539 600 l 1
 541 611 l 1
78 0 m 1
 91 60 l 1
 268 73 l 1
 398 687 l 1
 232 699 l 1
 245 760 l 1
 501 760 l 1
 355 73 l 1
 511 60 l 1
 498 0 l 1
 78 0 l 1
EndSplineSet
Validated: 1
Substitution2: "'smcp' Lowercase to Small Capitals lookup 35 subtable" lcaron.sc
Substitution2: "'aalt' Access All Alternates lookup 0 subtable" lcaron.sc
EndChar

StartChar: Ldot
Encoding: 319 319 256
Width: 563
GlyphClass: 2
Flags: HW
AnchorPoint: "Anchor-3" 358 357 basechar 0
AnchorPoint: "Anchor-2" 568 714 basechar 0
AnchorPoint: "Anchor-1" 294 714 basechar 0
AnchorPoint: "Anchor-0" 282 0 basechar 0
LayerCount: 2
Fore
SplineSet
100 0 m 1
 252 714 l 1
 340 714 l 1
 205 82 l 1
 505 82 l 1
 488 0 l 1
 100 0 l 1
484 307 m 0
 456 307 436 321 436 353 c 0
 436 359 436 366 438 374 c 0
 448 422 479 441 513 441 c 0
 541 441 562 429 562 396 c 0
 562 390 561 382 559 374 c 0
 549 327 518 307 484 307 c 0
EndSplineSet
Validated: 1
Substitution2: "'c2sc' Capitals to Small Capitals lookup 34 subtable" ldot.sc
Ligature2: "Ligature Substitution lookup 16 subtable" L periodcentered
Substitution2: "'aalt' Access All Alternates lookup 0 subtable" ldot.sc
EndChar

StartChar: ldot
Encoding: 320 320 257
Width: 563
GlyphClass: 2
Flags: HW
AnchorPoint: "Anchor-3" 377 381 basechar 0
AnchorPoint: "Anchor-2" 625 760 basechar 0
AnchorPoint: "Anchor-1" 444 760 basechar 0
AnchorPoint: "Anchor-0" 282 0 basechar 0
LayerCount: 2
Fore
SplineSet
78 0 m 1
 91 60 l 1
 268 73 l 1
 398 687 l 1
 232 699 l 1
 245 760 l 1
 501 760 l 1
 355 73 l 1
 511 60 l 1
 498 0 l 1
 78 0 l 1
635 339 m 0
 607 339 587 354 587 386 c 0
 587 392 588 399 590 407 c 0
 600 455 630 474 664 474 c 0
 692 474 713 462 713 429 c 0
 713 423 713 415 711 407 c 0
 701 360 669 339 635 339 c 0
EndSplineSet
Validated: 1
Substitution2: "'smcp' Lowercase to Small Capitals lookup 35 subtable" ldot.sc
Ligature2: "Ligature Substitution lookup 15 subtable" l periodcentered
Substitution2: "'aalt' Access All Alternates lookup 0 subtable" ldot.sc
EndChar

